<?xml version="1.0" encoding="UTF-8"?>
<svg id="Layer_2" data-name="Layer 2" xmlns="http://www.w3.org/2000/svg" xmlns:xlink="http://www.w3.org/1999/xlink" viewBox="0 0 599.6 201.2">
  <defs>
    <style>
      .cls-1 {
        fill: url(#linear-gradient-12);
      }

      .cls-1, .cls-2, .cls-3, .cls-4, .cls-5, .cls-6, .cls-7, .cls-8, .cls-9, .cls-10, .cls-11, .cls-12, .cls-13, .cls-14, .cls-15, .cls-16, .cls-17, .cls-18, .cls-19, .cls-20, .cls-21, .cls-22, .cls-23, .cls-24, .cls-25, .cls-26, .cls-27, .cls-28, .cls-29, .cls-30, .cls-31, .cls-32, .cls-33, .cls-34, .cls-35, .cls-36, .cls-37, .cls-38, .cls-39, .cls-40, .cls-41, .cls-42, .cls-43, .cls-44, .cls-45, .cls-46, .cls-47, .cls-48, .cls-49, .cls-50, .cls-51, .cls-52, .cls-53, .cls-54, .cls-55, .cls-56, .cls-57, .cls-58, .cls-59, .cls-60, .cls-61, .cls-62, .cls-63, .cls-64, .cls-65, .cls-66, .cls-67, .cls-68, .cls-69, .cls-70, .cls-71, .cls-72, .cls-73, .cls-74, .cls-75, .cls-76, .cls-77, .cls-78, .cls-79, .cls-80, .cls-81 {
        stroke-width: 0px;
      }

      .cls-2 {
        fill: #cc505d;
      }

      .cls-3 {
        fill: url(#linear-gradient-17);
      }

      .cls-4 {
        fill: url(#linear-gradient-19);
      }

      .cls-5 {
        fill: url(#linear-gradient);
      }

      .cls-6 {
        fill: #000;
      }

      .cls-7 {
        fill: #151515;
      }

      .cls-8 {
        fill: #1c1c1c;
      }

      .cls-9 {
        fill: url(#linear-gradient-21);
      }

      .cls-10 {
        fill: #c34958;
      }

      .cls-11 {
        fill: url(#linear-gradient-6);
      }

      .cls-82, .cls-19, .cls-83, .cls-84, .cls-85, .cls-86 {
        fill: #033753;
      }

      .cls-82, .cls-87, .cls-86 {
        font-family: Cairo-Bold, Cairo;
        font-weight: 700;
      }

      .cls-82, .cls-83, .cls-84 {
        font-size: 9px;
      }

      .cls-12 {
        fill: #f7e3e5;
      }

      .cls-13 {
        fill: #3b3d3d;
      }

      .cls-14 {
        fill: #424342;
      }

      .cls-15 {
        fill: #288948;
      }

      .cls-88 {
        isolation: isolate;
      }

      .cls-16 {
        fill: #33ac4e;
      }

      .cls-17 {
        fill: #636363;
      }

      .cls-18 {
        fill: #dd535d;
      }

      .cls-20, .cls-87 {
        fill: #c92127;
      }

      .cls-21, .cls-58 {
        fill: #215ba8;
      }

      .cls-22 {
        fill: #e44c55;
      }

      .cls-23 {
        fill: url(#linear-gradient-15);
      }

      .cls-24 {
        fill: url(#linear-gradient-11);
      }

      .cls-25 {
        fill: #7c7b7b;
      }

      .cls-26 {
        fill: url(#linear-gradient-5);
      }

      .cls-87 {
        font-size: 13px;
      }

      .cls-27 {
        fill: none;
      }

      .cls-28 {
        fill: #5764aa;
      }

      .cls-29 {
        fill: #5461a8;
      }

      .cls-30 {
        fill: #d24b57;
      }

      .cls-31 {
        fill: #ad1f32;
      }

      .cls-32 {
        fill: #e61f2d;
      }

      .cls-33 {
        fill: #1a9e4a;
      }

      .cls-34 {
        fill: #c54e5c;
      }

      .cls-35 {
        fill: url(#linear-gradient-13);
      }

      .cls-36 {
        fill: #f6f6f5;
      }

      .cls-37 {
        fill: #faecee;
      }

      .cls-38 {
        fill: url(#linear-gradient-16);
      }

      .cls-39 {
        fill: #fdfafa;
      }

      .cls-83 {
        font-family: Bahnschrift-Condensed, Bahnschrift;
        font-variation-settings: 'wght' 400, 'wdth' 75;
      }

      .cls-40 {
        fill: url(#linear-gradient-20);
      }

      .cls-41 {
        fill: #f3f1f1;
      }

      .cls-42 {
        fill: #ea6a71;
      }

      .cls-43 {
        fill: url(#linear-gradient-14);
      }

      .cls-44 {
        fill: #109448;
      }

      .cls-45 {
        fill: url(#linear-gradient-2);
      }

      .cls-46 {
        fill: #010101;
      }

      .cls-47 {
        fill: #292a2a;
      }

      .cls-48 {
        fill: #ea1f2f;
      }

      .cls-49 {
        fill: #e6222a;
      }

      .cls-50 {
        fill: url(#linear-gradient-7);
      }

      .cls-51 {
        fill: url(#linear-gradient-3);
      }

      .cls-52 {
        fill: #c72b39;
      }

      .cls-89 {
        clip-path: url(#clippath);
      }

      .cls-53 {
        fill: #e24c55;
      }

      .cls-54 {
        fill: url(#linear-gradient-9);
      }

      .cls-55 {
        fill: url(#radial-gradient);
      }

      .cls-56 {
        fill: #e62227;
      }

      .cls-57 {
        fill: #5563a9;
      }

      .cls-58 {
        fill-rule: evenodd;
      }

      .cls-59 {
        fill: #9d9da1;
      }

      .cls-60 {
        fill: #de222e;
      }

      .cls-61 {
        fill: #ce353b;
      }

      .cls-62 {
        fill: #439058;
      }

      .cls-63 {
        fill: #be4858;
      }

      .cls-64 {
        fill: #111;
      }

      .cls-90 {
        opacity: .83;
      }

      .cls-65 {
        fill: #b84348;
      }

      .cls-66 {
        fill: url(#linear-gradient-8);
      }

      .cls-67 {
        fill: url(#linear-gradient-18);
      }

      .cls-68 {
        fill: #e3535c;
      }

      .cls-69 {
        fill: #fff;
      }

      .cls-84 {
        font-family: Cairo-SemiBold, Cairo;
        font-weight: 600;
      }

      .cls-85 {
        font-family: Cairo-Medium, Cairo;
        font-size: 11px;
        font-weight: 500;
      }

      .cls-70 {
        fill: #e14d57;
      }

      .cls-71 {
        fill: url(#linear-gradient-10);
      }

      .cls-72 {
        fill: #c64a58;
      }

      .cls-73 {
        fill: #258044;
      }

      .cls-74 {
        fill: #e64e57;
      }

      .cls-75 {
        fill: url(#linear-gradient-4);
      }

      .cls-76 {
        fill: #191919;
      }

      .cls-77 {
        fill: #d54e59;
      }

      .cls-78 {
        fill: #030303;
      }

      .cls-79 {
        fill: #bd4d5d;
      }

      .cls-80 {
        fill: #fefefe;
      }

      .cls-81 {
        fill: #e1242a;
      }

      .cls-86 {
        font-size: 8px;
      }
    </style>
    <radialGradient id="radial-gradient" cx="-23379.62" cy="12752.25" fx="-23379.62" fy="12752.25" r="308.59" gradientTransform="translate(-2167.85 -3106.93) rotate(-180) scale(.1 -.25)" gradientUnits="userSpaceOnUse">
      <stop offset="0" stop-color="#bdbdbd"/>
      <stop offset=".23" stop-color="#d5d5d5"/>
      <stop offset=".51" stop-color="#ececec"/>
      <stop offset=".77" stop-color="#fafafa"/>
      <stop offset="1" stop-color="#fff"/>
    </radialGradient>
    <clipPath id="clippath">
      <path class="cls-27" d="M39,110.5h46.1c.9,0,1.7.7,1.7,1.6v19.2c0,.9-.7,1.6-1.7,1.6h-46.1c-.9,0-1.7-.7-1.7-1.6v-19.2c0-.9.8-1.6,1.7-1.6Z"/>
    </clipPath>
    <linearGradient id="linear-gradient" x1="41.49" y1="-5519.76" x2="44.32" y2="-5519.76" gradientTransform="translate(0 -5481.61) scale(1 -1)" gradientUnits="userSpaceOnUse">
      <stop offset="0" stop-color="#e9262a"/>
      <stop offset="1" stop-color="#a21d30"/>
    </linearGradient>
    <linearGradient id="linear-gradient-2" x1="45.7" y1="-5577.46" x2="61.35" y2="-5577.46" xlink:href="#linear-gradient"/>
    <linearGradient id="linear-gradient-3" x1="49.61" y1="-5558.98" x2="89.49" y2="-5558.98" xlink:href="#linear-gradient"/>
    <linearGradient id="linear-gradient-4" x1="61.63" y1="-5578.05" x2="77.91" y2="-5578.05" xlink:href="#linear-gradient"/>
    <linearGradient id="linear-gradient-5" x1="78.57" y1="-5577.93" x2="93.65" y2="-5577.93" xlink:href="#linear-gradient"/>
    <linearGradient id="linear-gradient-6" x1="78.98" y1="-5558.73" x2="108.85" y2="-5558.73" xlink:href="#linear-gradient"/>
    <linearGradient id="linear-gradient-7" x1="65.92" y1="-5528.32" x2="82.52" y2="-5528.32" xlink:href="#linear-gradient"/>
    <linearGradient id="linear-gradient-8" x1="65.97" y1="-5535.21" x2="85.64" y2="-5535.21" xlink:href="#linear-gradient"/>
    <linearGradient id="linear-gradient-9" x1="53.23" y1="-5554.66" x2="65.85" y2="-5554.66" xlink:href="#linear-gradient"/>
    <linearGradient id="linear-gradient-10" x1="80.21" y1="-5520.46" x2="83.73" y2="-5520.46" xlink:href="#linear-gradient"/>
    <linearGradient id="linear-gradient-11" x1="34.43" y1="-5547.01" x2="35.07" y2="-5547.01" xlink:href="#linear-gradient"/>
    <linearGradient id="linear-gradient-12" x1="78.79" y1="-5566.56" x2="94.83" y2="-5566.56" xlink:href="#linear-gradient"/>
    <linearGradient id="linear-gradient-13" x1="65.84" y1="-5538.31" x2="66.5" y2="-5538.31" xlink:href="#linear-gradient"/>
    <linearGradient id="linear-gradient-14" x1="66.48" y1="-5539.96" x2="67.15" y2="-5539.96" xlink:href="#linear-gradient"/>
    <linearGradient id="linear-gradient-15" x1="54.49" y1="-5554.74" x2="67.16" y2="-5554.74" xlink:href="#linear-gradient"/>
    <linearGradient id="linear-gradient-16" x1="58.1" y1="-5560.6" x2="72.56" y2="-5560.6" xlink:href="#linear-gradient"/>
    <linearGradient id="linear-gradient-17" x1="55.52" y1="-5556.01" x2="70.38" y2="-5556.01" xlink:href="#linear-gradient"/>
    <linearGradient id="linear-gradient-18" x1="57.89" y1="-5559.31" x2="71.56" y2="-5559.31" xlink:href="#linear-gradient"/>
    <linearGradient id="linear-gradient-19" x1="55.74" y1="-5558.21" x2="68.89" y2="-5558.21" xlink:href="#linear-gradient"/>
    <linearGradient id="linear-gradient-20" x1="57.57" y1="-5552.41" x2="62.4" y2="-5552.41" xlink:href="#linear-gradient"/>
    <linearGradient id="linear-gradient-21" x1="93.79" y1="-5577.61" x2="106.67" y2="-5577.61" xlink:href="#linear-gradient"/>
  </defs>
  <g id="Layer_1-2" data-name="Layer 1">
    <g>
      <rect class="cls-69" width="599.6" height="199.8"/>
      <rect class="cls-20" x="172" y="80.4" width="89.4" height="1"/>
      <path class="cls-55" d="M163,7.1v151c-13.9-7.5-24.4-38.4-24.4-75.5s10.5-68,24.4-75.5Z"/>
      <g class="cls-88">
        <path class="cls-19" d="M170,27.7v-6.9h2.5c.5,0,.8.1,1.1.2.3.1.5.3.7.6s.2.6.2,1c0,.3,0,.5-.1.7s-.2.4-.3.5-.3.2-.5.3c.2.1.4.2.5.3.2.1.3.3.4.5.1.2.1.5.1.8,0,.4,0,.7-.1.9s-.2.5-.4.6-.4.3-.7.3c-.3.1-.6.1-.9.1h-2.5v.1ZM170.8,23.9h1.8c.3,0,.5,0,.7-.1s.3-.2.4-.4c.1-.2.1-.4.1-.7,0-.4-.1-.7-.3-.9s-.5-.3-1-.3h-1.7v2.4ZM170.8,27h1.8c.3,0,.5,0,.7-.1s.4-.2.5-.4.2-.4.2-.8c0-.3,0-.5-.1-.6-.1-.2-.2-.3-.4-.4-.1-.1-.3-.1-.5-.2h-2.2v2.5Z"/>
        <path class="cls-19" d="M177.8,27.8c-.5,0-.9-.1-1.2-.3s-.5-.5-.6-.9-.2-.9-.2-1.4c0-.6.1-1.1.3-1.5s.4-.7.7-.8.7-.3,1.1-.3c.7,0,1.2.2,1.5.6.3.4.5,1,.5,1.8v.6h-3.3c0,.5.1.9.3,1.2s.5.4,1,.4h1.9v.6c-.2,0-.4.1-.6.1s-.5,0-.7.1c-.3-.2-.5-.2-.7-.2ZM176.6,24.9h2.6c0-.6-.1-1-.3-1.3-.2-.2-.5-.4-.9-.4-.3,0-.5.1-.7.2-.2.1-.3.3-.4.5-.3.3-.3.6-.3,1Z"/>
        <path class="cls-19" d="M182.6,27.8h-.6c-.2,0-.4,0-.6-.1s-.4-.1-.6-.1v-.7c.2,0,.4,0,.6.1.2,0,.4,0,.6.1s.4,0,.5,0c.3,0,.5,0,.7-.1.2,0,.3-.1.4-.3s.1-.3.1-.5,0-.3-.1-.4c-.1-.1-.2-.2-.4-.2-.2-.1-.5-.1-.8-.2-.4-.1-.7-.1-.9-.2s-.4-.2-.6-.4c-.1-.2-.2-.4-.2-.8s.1-.7.3-.9.4-.4.7-.5.6-.1.9-.1h.6c.2,0,.4,0,.7.1s.4.1.5.1v.7c-.2,0-.3-.1-.6-.1-.2,0-.4,0-.6-.1s-.4,0-.6,0-.4,0-.5.1-.3.1-.4.2-.1.3-.1.5c0,.1,0,.3.1.4.1.1.2.2.4.2.2.1.5.1.8.2.4.1.7.2,1,.2.2.1.4.2.5.4s.2.4.2.8-.1.7-.2.9c-.2.2-.4.4-.7.5-.3.2-.7.2-1.1.2Z"/>
        <path class="cls-19" d="M187.4,27.9c-.3,0-.6-.1-.8-.2-.2-.1-.3-.3-.4-.6-.1-.3-.1-.6-.1-1.1v-2.6h-.7v-.7h.7v-1.5h.8v1.5h1.6v.7h-1.6v3.2c0,.2.1.3.2.4s.3.1.5.1h.9v.7h-.7c-.2,0-.3.1-.4.1Z"/>
        <path class="cls-19" d="M191.6,27.7v-6.9h2.6c.5,0,.9.1,1.2.2.3.1.6.4.7.7.2.3.2.7.2,1.2s-.1.9-.3,1.3c-.2.3-.5.6-1,.7l1.3,2.8h-.8l-1.2-2.6h-1.9v2.6h-.8ZM192.4,24.4h1.8c.3,0,.6-.1.8-.2.2-.1.3-.3.4-.5s.1-.5.1-.8c0-.5-.1-.8-.3-1.1s-.6-.3-1-.3h-1.8v2.9Z"/>
        <path class="cls-19" d="M199.4,27.8c-.5,0-.9-.1-1.2-.3s-.5-.5-.6-.9-.2-.9-.2-1.4c0-.6.1-1.1.3-1.5s.4-.7.7-.8.7-.3,1.1-.3c.7,0,1.2.2,1.5.6.3.4.5,1,.5,1.8v.6h-3.3c0,.5.1.9.3,1.2s.5.4,1,.4h1.9v.6c-.2,0-.4.1-.6.1s-.5,0-.7.1c-.3-.2-.5-.2-.7-.2ZM198.2,24.9h2.6c0-.6-.1-1-.3-1.3-.2-.2-.5-.4-.9-.4-.3,0-.5.1-.7.2-.2.1-.3.3-.4.5-.3.3-.3.6-.3,1Z"/>
        <path class="cls-19" d="M204.6,30.1c-.5,0-.9,0-1.3-.1-.3-.1-.5-.2-.7-.5-.1-.2-.2-.5-.2-.9,0-.2,0-.4.1-.5s.1-.3.3-.4c.1-.1.3-.2.4-.4-.1-.1-.2-.2-.2-.3-.1-.1-.1-.3-.1-.4,0,0,0-.1.1-.2,0-.1.1-.2.1-.3s.1-.2.1-.3c-.1-.1-.3-.2-.4-.3-.1-.1-.2-.3-.3-.5s-.1-.5-.1-.8c0-.4.1-.7.2-1s.4-.4.7-.5.6-.2,1-.2h.6c.2,0,.4.1.5.1h1.5v.7h-.9c.1.1.2.2.2.4s.1.4.1.6c0,.4-.1.8-.2,1-.1.2-.4.4-.6.5-.3.1-.6.1-1.1.1h-.4c0,.1-.1.2-.1.3s-.1.2-.1.2v.2l.1.1s.2.1.4.1h.7c.5,0,.9,0,1.1.1s.5.2.6.4.2.5.2.9c0,.6-.2,1-.6,1.2-.5.6-1,.7-1.7.7ZM204.6,29.4c.5,0,.9-.1,1.1-.2.2-.1.4-.4.4-.7,0-.2,0-.4-.1-.5s-.2-.2-.4-.2-.4-.1-.7-.1h-1l-.3.3c-.1.1-.1.2-.2.3,0,.1-.1.2-.1.3,0,.2,0,.4.1.5s.2.2.4.3c.1,0,.4,0,.8,0ZM204.4,25.4c.4,0,.7-.1.9-.2.2-.2.3-.4.3-.8s-.1-.7-.3-.8c-.2-.2-.5-.2-.9-.2s-.7.1-.8.2c-.2.2-.3.4-.3.8s.1.7.3.8c.1.1.4.2.8.2Z"/>
        <path class="cls-19" d="M208.9,27.8c-.5,0-.8-.1-1.1-.4-.2-.3-.4-.6-.4-1.1,0-.3.1-.6.2-.8.1-.2.3-.4.5-.5s.5-.2.9-.2l1.5-.1v-.4c0-.3-.1-.6-.2-.7s-.4-.2-.7-.2h-.6c-.2,0-.5,0-.7.1-.2,0-.4,0-.6.1v-.6c.2,0,.4-.1.6-.1s.5-.1.7-.1h.7c.4,0,.7.1.9.2.2.1.4.3.5.5s.2.5.2.9v2.5c0,.1.1.3.2.3.1.1.2.1.4.1v.6h-.5c-.1,0-.2,0-.2-.1-.1,0-.2-.1-.2-.1,0,0-.2-.1-.2-.2-.1.1-.3.1-.5.2-.2.1-.4.1-.6.2-.4-.1-.6-.1-.8-.1ZM209,27.2h.6c.2,0,.4-.1.5-.1s.3-.1.4-.1v-1.6l-1.5.1c-.3,0-.5.1-.6.3-.1.1-.2.4-.2.6,0,.3.1.5.2.7s.4.1.6.1Z"/>
        <path class="cls-19" d="M212.8,27.7v-5h.8v.7c.1-.1.3-.2.5-.3s.4-.2.6-.3c.2-.1.5-.2.7-.2v.8c-.2,0-.5.1-.7.2-.2.1-.4.2-.6.2-.2.1-.4.2-.5.2v3.7h-.8Z"/>
        <path class="cls-19" d="M217.9,27.8c-.2,0-.4,0-.6-.1s-.3-.1-.5-.2l-.4-.4c-.1-.2-.2-.4-.3-.7s-.1-.7-.1-1.1c0-.6.1-1.1.2-1.5.1-.4.4-.7.7-.9s.7-.3,1.2-.3h.8c.1,0,.3,0,.3.1v-2.2h.8v7.2h-.8v-.3c-.1.1-.2.1-.4.2-.2.1-.4.1-.5.2h-.4ZM218,27.1c.2,0,.3,0,.5-.1s.3-.1.5-.1.3-.1.4-.2v-3.3h-1.1c-.3,0-.6.1-.8.2s-.3.4-.4.7c-.1.3-.1.7-.1,1.1s0,.7.1,1,.1.4.2.6c.1.1.2.2.4.3s.1-.2.3-.2Z"/>
        <path class="cls-19" d="M223.2,27.8h-.6c-.2,0-.4,0-.6-.1s-.4-.1-.6-.1v-.7c.2,0,.4,0,.6.1.2,0,.4,0,.6.1s.4,0,.5,0c.3,0,.5,0,.7-.1.2,0,.3-.1.4-.3s.1-.3.1-.5,0-.3-.1-.4c-.1-.1-.2-.2-.4-.2-.2-.1-.5-.1-.8-.2-.4-.1-.7-.1-.9-.2s-.4-.2-.6-.4c-.1-.2-.2-.4-.2-.8s.1-.7.3-.9.4-.4.7-.5.6-.1.9-.1h.6c.2,0,.4,0,.7.1s.4.1.5.1v.7c-.2,0-.3-.1-.6-.1-.2,0-.4,0-.6-.1s-.4,0-.6,0-.4,0-.5.1-.3.1-.4.2-.1.3-.1.5c0,.1,0,.3.1.4.1.1.2.2.4.2.2.1.5.1.8.2.4.1.7.2,1,.2.2.1.4.2.5.4s.2.4.2.8-.1.7-.2.9c-.2.2-.4.4-.7.5-.4.2-.7.2-1.1.2Z"/>
        <path class="cls-19" d="M225.9,29l.5-2.3h.9l-.7,2.3h-.7Z"/>
      </g>
      <path class="cls-20" d="M164.85,173c2.4,0,4.3,1.9,4.3,4.3s-1.9,4.3-4.3,4.3-4.4-1.9-4.4-4.3c0-2.3,2-4.3,4.4-4.3h0ZM166.15,180h.1c.4-.2.8-.5,1.1-.9.1-.1.1-.2,0-.3-.4-.3-.7-.5-1.1-.7-.1-.1-.2,0-.3.1s-.2.2-.3.3q-.1.1-.2.1c-.1,0-.2-.1-.3-.1-.7-.3-1.1-.9-1.4-1.6,0-.1,0-.2.1-.2.1-.1.2-.2.3-.2.1-.1.2-.2.1-.4-.2-.4-.4-.7-.6-1.1-.1-.2-.2-.2-.3,0-.3.3-.6.6-.9,1,0,.1-.1.1,0,.2,0,.2.1.4.1.5.2.6.6,1.2,1,1.7.6.6,1.2,1.2,2,1.5.1-.1.3,0,.6.1h0ZM167.35,177.2c0-1.4-1.2-2.4-2.4-2.4v.3h0c1.2.1,1.9.8,2.1,2.1h.3ZM166.45,177.2c.1-.8-.8-1.5-1.5-1.5v.4c.3,0,.6.1.8.3.2.2.3.5.3.8,0,0,.4,0,.4,0Z"/>
      <g>
        <path class="cls-20" d="M73.7,177v.8c-.1.9-.5,1.6-1.1,2.3-.7.8-1.5,1.2-2.5,1.4-.2,0-.3,0-.5.1h-.6c-.9-.1-1.8-.4-2.5-1-1.1-1-1.6-2.2-1.5-3.7.1-.9.4-1.8,1.1-2.4.8-.9,1.9-1.4,3.1-1.4.8,0,1.6.2,2.3.6,1.1.7,1.8,1.7,2.1,3,0,0,0,.1.1.3h0ZM69.3,180.1c.3-.4.6-.8.9-1.2.4-.5.7-1,1-1.6.2-.4.3-.8.2-1.2-.2-.9-.8-1.5-1.7-1.7-.8-.2-1.7.2-2.2.9-.3.4-.4.9-.4,1.4,0,.3.2.6.3.9.3.6.8,1.2,1.2,1.8.4.2.5.4.7.7h0Z"/>
        <path class="cls-20" d="M70.2,176.5c0,.4-.4.8-.8.8s-.9-.3-.9-.8.4-.8.8-.8.8.4.9.8h0Z"/>
      </g>
      <g>
        <path class="cls-20" d="M429.09,177.79v-.6c0-.2,0-.4.1-.6.3-1.3,1.1-2.3,2.3-2.9.8-.4,1.7-.5,2.6-.4,1.1.2,2,.7,2.7,1.6s1,2,.9,3.2c-.1.9-.5,1.6-1,2.3-.7.7-1.5,1.2-2.5,1.4-.2,0-.3.1-.5.1h-.8c-.9-.1-1.6-.5-2.3-1-.8-.7-1.2-1.5-1.4-2.5,0-.2,0-.4-.1-.6h0ZM433.39,179.49h2.2c.4,0,.6-.2.6-.6v-2.8c0-.4-.2-.6-.6-.6h-4.4c-.4,0-.6.2-.6.6v2.7c0,.3.2.6.6.6.8.1,1.5.1,2.2.1h0Z"/>
        <path class="cls-20" d="M431.09,176.29c.3.2.5.4.8.6.5.4.9.8,1.4,1.1.1.1.2.1.3,0,.7-.5,1.4-1.1,2-1.6l.1-.1v2.6c0,.1,0,.2-.2.2h-4.3c-.1,0-.2,0-.2-.2v-2.5c.1,0,.1-.1.1-.1h0Z"/>
        <path class="cls-20" d="M435.39,176.09c-.2.1-.3.2-.4.4-.5.4-.9.7-1.4,1.1,0,0-.1.1-.1,0-.6-.5-1.2-.9-1.8-1.4h0l3.7-.1h0Z"/>
      </g>
      <g>
        <path class="cls-69" d="M39,110.5h46.1c.9,0,1.7.7,1.7,1.6v19.2c0,.9-.7,1.6-1.7,1.6h-46.1c-.9,0-1.7-.7-1.7-1.6v-19.2c0-.9.8-1.6,1.7-1.6Z"/>
        <g class="cls-89">
          <g>
            <rect class="cls-21" x="35.7" y="110.5" width="52.9" height="22"/>
            <rect class="cls-59" x="61.1" y="124.6" width="19.2" height=".7"/>
            <g>
              <rect class="cls-69" x="44.1" y="114.7" width="11.1" height="13.7"/>
              <path class="cls-58" d="M52.7,121.6c-.1.5-.4.9-.8,1.2h2.2c.4-1.9-1.1-3.8-3.5-4.3.4.1,2.6,1,2.1,3.1"/>
              <path class="cls-58" d="M45.1,115.5v7.3h2c1.3-.2,2.6-1.1,2.7-1.9.2-1-.4-1.8-1.6-2h-.1c-.1,0-.6,0-1.1-.1,0,0-.2.2-.2.5,0,0-.6-.5-.2-1.2,0,0,.2-.3.8-.7h0c.2-.2.6-.5,1.2-.7.3-.1.8-.3,1.4-.3,2.6-.2,4,1.5,4,1.5v-2.4h-8.9Z"/>
              <path class="cls-58" d="M51.6,117.2c-1.3-.1-2.3.1-3.2.6,0,0,.2-.1.6-.2.1.2.3.4.5.4.4.1.7-.1.8-.4v-.2c2.4-.1,3.7,1.4,3.7,1.4v-.7c-.2-.2-1.2-.8-2.4-.9"/>
              <path class="cls-58" d="M45.8,126h.4l.7,1.5h-.4l-.2-.3h-.6l-.2.3h-.4c0-.1.7-1.5.7-1.5ZM46.2,126.8l-.2-.5-.2.5h.4Z"/>
              <path class="cls-58" d="M47,126h.7c.3,0,.5.1.6.2.2.1.2.3.2.6,0,.1,0,.2-.1.3s-.1.2-.2.2c-.1.1-.2.1-.3.1s-.2.1-.4.1h-.6l.1-1.5h0ZM47.7,127.2h.2c.1,0,.1-.1.2-.1q.1-.1.1-.2v-.4c0-.1-.1-.1-.1-.2,0,0-.1-.1-.2-.1h-.5v.9l.3.1h0Z"/>
              <polygon class="cls-58" points="48.9 126 49.2 126 49.9 126.9 49.9 126 50.3 126 50.3 127.4 50 127.4 49.2 126.5 49.2 127.4 48.9 127.4 48.9 126"/>
              <path class="cls-58" d="M51.5,127.5c-.1,0-.3,0-.4-.1-.1,0-.2-.1-.3-.2q-.1-.1-.2-.2c0-.1-.1-.2-.1-.3s0-.2.1-.3c0-.1.1-.2.2-.2.1-.1.2-.1.3-.2.1,0,.2-.1.4-.1s.2,0,.3.1c.1,0,.2.1.3.2q.1.1.2.2c0,.1.1.2.1.3s0,.2-.1.3c0,.1-.1.2-.2.2-.1.1-.2.1-.3.2-.1,0-.2.1-.3.1M51.5,127.2c.2,0,.3-.1.3-.1.1-.1.1-.2.1-.4s0-.3-.1-.4c-.1-.1-.2-.1-.3-.1-.2,0-.3.1-.4.1-.1.1-.1.2-.1.4s0,.3.1.4c.1.1.2.1.4.1"/>
              <path class="cls-58" d="M54.1,126.9q0,.1-.1.2c0,.1-.1.1-.2.2q-.1.1-.2.1h-.3c-.1,0-.2,0-.4-.1-.1-.1-.2-.1-.2-.2-.1-.1-.1-.2-.2-.2s-.1-.2-.1-.3,0-.2.1-.3c0-.1.1-.2.2-.2.1-.1.2-.1.2-.2.1,0,.2-.1.3-.1s.2,0,.3.1c.1,0,.2.1.2.1q.1.1.1.2c0,.1.1.1.1.2l-.4.1c0-.1-.1-.2-.1-.2,0,0-.1-.1-.2-.1s-.2.1-.3.1c-.1.1-.1.2-.1.4s.1.3.1.4c.1.1.2.1.3.1s.2,0,.2-.1q.1-.1.1-.2h.6Z"/>
              <path class="cls-58" d="M47,125v-1.3h.4v1.6h-1.5c-.2,0-.4-.1-.5-.1-.1-.1-.2-.2-.2-.4,0-.1,0-.2.1-.2q.1-.1.2-.2c.1-.1.2-.1.3-.1v.2c-.1,0-.2,0-.2.1-.1,0-.1.1-.1.2s0,.2.1.2c.1.1.2.1.3.1l1.1-.1h0ZM46.7,124.4v.1h-.5v-.1h.1v-.1s0-.1.1-.1c0,0,.1-.1.2-.1s.1,0,.1.1t0,.2l-.1-.1v-.1h-.1q-.1,0-.1.1v.1h.3Z"/>
              <path class="cls-58" d="M51,124.2v.8h-2v-.3c0-.2-.1-.3-.2-.4-.1-.1-.2-.1-.4-.1s-.3.1-.5.1c-.1.1-.2.2-.2.4s.1.4.2.4c.1.1.3.1.6.1h0v.1c0,.1,0,.2-.1.2l.2.2s.1,0,.1-.1c.1-.1.2-.3.2-.4h2.4v-1.1l-.3.1h0ZM48.5,125h-.1c-.2,0-.4-.1-.4-.3q0-.1.1-.2t.2-.1h.1l.1.1v.5h0Z"/>
              <rect class="cls-21" x="51" y="123.8" width=".3" height=".3"/>
              <path class="cls-58" d="M53,125v-.2c0-.1,0-.2-.1-.3s-.2-.1-.3-.1-.2,0-.3.1l-.1-.3c.1,0,.2-.1.4-.1s.4.1.5.2c.1.1.2.3.2.5v.4h-1.8v-.3l1.5.1h0Z"/>
              <path class="cls-58" d="M54.1,123.7v.1h-.5v-.1h.1v-.1s0-.1.1-.1h.3s0,0,0,.2l-.1-.1v-.1h-.1q-.1,0-.1.1v.1h.3Z"/>
              <rect class="cls-21" x="53.7" y="123.9" width=".3" height="1.4"/>
            </g>
            <g>
              <path class="cls-69" d="M61.2,121.6v-7h1.7v7h-1.7Z"/>
              <path class="cls-69" d="M70,119l1.7.4c-.3.8-.7,1.3-1.3,1.7-.6.4-1.3.6-2.3.6-1.1,0-2.1-.3-2.8-.9-.7-.6-1.1-1.5-1.1-2.6,0-1.2.4-2.1,1.1-2.7.7-.6,1.7-1,2.9-1,1,0,1.9.2,2.5.8.4.3.7.7.9,1.3l-1.7.3c-.1-.4-.3-.6-.6-.9-.3-.2-.7-.3-1.2-.3-.6,0-1.1.2-1.5.6s-.6,1-.6,1.8c0,.9.2,1.5.6,1.9s.9.6,1.5.6c.5,0,.8-.1,1.2-.4.3-.3.6-.7.7-1.2h0Z"/>
              <path class="cls-69" d="M75.3,121.6l-3.1-7h1.9l2.2,5.2,2.1-5.2h1.8l-3.1,7h-1.8Z"/>
            </g>
            <g>
              <path class="cls-69" d="M61.1,122.5h.4v1.1h-.4v-1.1Z"/>
              <path class="cls-69" d="M61.7,122.5h.4l.5.6v-.6h.4v1.1h-.4l-.5-.6v.6h-.4v-1.1Z"/>
              <path class="cls-69" d="M63.1,123.1h.5v.2h-.5v-.2Z"/>
              <path class="cls-69" d="M64.6,123.2l.3.1c0,.1-.1.2-.1.2,0,0-.1.1-.2.1h-.3c-.1,0-.2,0-.3-.1-.1,0-.2-.1-.2-.2-.1-.1-.1-.2-.1-.3,0-.2.1-.3.2-.4.1-.1.3-.1.5-.1s.3,0,.4.1.2.1.2.3l-.3.1v-.1l-.1-.1h-.1c-.1,0-.2,0-.2.1s-.1.1-.1.2,0,.2.1.3.1.1.2.1.1,0,.2-.1c-.1-.1-.1-.2-.1-.2h0Z"/>
              <path class="cls-69" d="M65.1,123.1c0-.2.1-.3.2-.4.1-.1.3-.2.5-.2s.4.1.5.2c.1.1.2.2.2.4,0,.1,0,.2-.1.3s-.1.2-.2.2c-.1.1-.2.1-.3.1s-.3,0-.3-.1c-.1,0-.2-.1-.2-.2-.3-.1-.3-.2-.3-.3h0ZM65.5,123.1c0,.1,0,.2.1.2s.1.1.2.1.2,0,.2-.1q.1-.1.1-.3c0-.1,0-.2-.1-.2s-.1-.1-.2-.1-.1,0-.2.1-.1.2-.1.3h0Z"/>
              <path class="cls-69" d="M67.4,122.5h.4v.9c0,.1-.1.1-.1.2s-.1.1-.2.1h-.5q-.1,0-.2-.1c-.1,0-.1-.1-.1-.1l-.1-.1v-.9h.4v.7q0,.1.1.2s.1.1.2.1.1,0,.2-.1c0,0,.1-.1.1-.2l-.2-.7h0Z"/>
              <path class="cls-69" d="M68.1,122.5h.4l.5.6v-.6h.4v1.1h-.4l-.5-.6v.6h-.4v-1.1Z"/>
              <path class="cls-69" d="M69.5,122.5h1.2v.3h-.4v.9h-.4v-.9h-.4v-.3h0Z"/>
              <path class="cls-69" d="M70.8,123.6v-1.1h1c.1,0,.1.1.2.1,0,.1.1.1.1.2v.2c0,.1-.1.1-.1.1h-.1.1l.1.1.1.1.2.3h-.4l-.2-.4-.1-.1h-.1v.5h-.8ZM71.2,122.9h.4v-.2h-.4v.2h0Z"/>
              <path class="cls-69" d="M72,122.5h.4l.2.4.2-.4h.4l-.5.7v.5h-.2v-.5l-.5-.7h0Z"/>
              <path class="cls-69" d="M73.9,122.5h.4l.3.8.3-.8h.4l-.5,1.1h-.4l-.5-1.1Z"/>
              <path class="cls-69" d="M76.1,123.4h-.4l-.1.2h-.4l.5-1.1h.4l.5,1.1h-.4l-.1-.2ZM76,123.2l-.1-.4-.1.4h.2Z"/>
              <path class="cls-69" d="M76.7,122.5h.4v.9h.6v.3h-1v-1.2Z"/>
              <path class="cls-69" d="M78.7,122.5h.4v.9c0,.1-.1.1-.1.2s-.1.1-.2.1h-.5q-.1,0-.2-.1c-.1,0-.1-.1-.1-.1l-.1-.1v-.9h.4v.7q0,.1.1.2s.1.1.2.1.1,0,.2-.1c0,0,.1-.1.1-.2l-.2-.7h0Z"/>
              <path class="cls-69" d="M79.3,122.5h1v.2h-.7v.2h.6v.2h-.6v.2h.7v.3h-1.1v-1.1h.1Z"/>
            </g>
            <g>
              <path class="cls-69" d="M62.8,127.5l.6.2c0,.2-.1.3-.2.4s-.2.2-.3.2-.3.1-.5.1-.5,0-.6-.1-.3-.2-.4-.3c-.1-.2-.2-.4-.2-.7s.1-.6.3-.8.5-.3.9-.3c.3,0,.5.1.7.2s.3.3.4.5l-.6.1q0-.1-.1-.1c0-.1-.1-.1-.2-.1h-.2c-.2,0-.3.1-.4.2-.1.1-.1.2-.1.4s0,.4.1.5.2.1.3.1.2,0,.3-.1.2-.3.2-.4h0Z"/>
              <path class="cls-69" d="M63.8,126.2h1.9v.4h-1.2v.3h1.1v.4h-1.1v.4h1.2v.5h-1.9v-2h0Z"/>
              <path class="cls-69" d="M66.1,128.4v-2.1h1.2c.2,0,.4,0,.5.1.1,0,.2.1.3.2.1.1.1.2.1.3s0,.2-.1.3-.1.1-.2.2c-.1,0-.1.1-.2.1.1,0,.2.1.2.1l.1.1.1.1.3.6h-.8l-.4-.6q-.1-.1-.1-.2c-.1,0-.1-.1-.2-.1h-.1v.9h-.7ZM66.8,127.1h.5q.1,0,.1-.1l.1-.1q0-.1-.1-.2c-.1,0-.1-.1-.3-.1h-.3v.5h0Z"/>
              <path class="cls-69" d="M68.4,126.2h2.2v.5h-.7v1.6h-.7v-1.6h-.7c-.1.1-.1-.5-.1-.5Z"/>
              <path class="cls-69" d="M71,126.2h.7v2.1h-.7v-2.1Z"/>
              <path class="cls-69" d="M72.2,126.2h1.8v.5h-1.1v.4h.9v.4h-.9v.9h-.7s0-2.2,0-2.2Z"/>
              <path class="cls-69" d="M74.4,126.2h.7v2.1h-.7v-2.1Z"/>
              <path class="cls-69" d="M75.6,126.2h1.9v.4h-1.2v.3h1.1v.4h-1.1v.4h1.2v.5h-1.9v-2h0Z"/>
              <path class="cls-69" d="M78,126.2h1.1c.2,0,.4,0,.5.1s.2.1.3.2.2.2.2.3.1.3.1.4c0,.2,0,.4-.1.5s-.1.2-.2.3-.2.1-.3.2c-.2,0-.3.1-.4.1h-1.1l-.1-2.1h0ZM78.7,126.7v1.2h.2c.2,0,.3,0,.3-.1.1,0,.1-.1.2-.2,0-.1.1-.2.1-.4s0-.4-.1-.5-.2-.1-.4-.1c-.2.1-.3.1-.3.1Z"/>
            </g>
          </g>
        </g>
      </g>
      <g id="Layer_1-2" data-name="Layer 1-2">
        <g>
          <g class="cls-90">
            <path class="cls-5" d="M44.3,36.3c-.2.4-.4.8-.7,1.1-.3.4-.7.8-1,1.3-.2.5-.7.8-.9,1.2,0,.1-.2.1-.3.1,1-1.2,2-2.4,2.9-3.7Z"/>
            <path class="cls-65" d="M68.1,31.1c-.3,0-.4.1-.2.4.1.1.1.3.1.4-.3-.5-.6-1-.9-1.6.1,0,.1-.1.2-.1.2.3.5.6.8.9h0Z"/>
            <path class="cls-45" d="M49.2,97.3v6.8h-3.5v-16.5h8.2c1,0,2,.1,3,.4,1.7.4,2.8,1.9,2.9,3.7.1,1.5-.2,2.9-1.4,3.9-.7.6-1.6.9-2.5,1.1-.2,0-.3.1-.5.1,2.8,1.7,4,4.7,5.9,7.3h-4.1c-.1,0-.3-.2-.4-.4-1.2-1.7-2.4-3.3-3.5-5-1-1.4-2.5-1.5-4.1-1.4h0ZM49.2,94.5c1.8,0,3.5.1,5.2,0,1.2-.1,1.8-.8,1.8-2.1,0-1.1-.7-1.9-1.8-2-1.7-.1-3.4,0-5.2,0l-.1.1.1,4h0Z"/>
            <path class="cls-51" d="M65.2,68.9c0-.2,0-.5.1-.8.8.8,1.5,1.4,2.2,2.1,2.1,2,4.6,3.6,7.4,4.4.8.2,1.6.4,2.3.5.2,0,.4,0,.5-.1,2.6-1.9,5.3-3.8,7.9-5.9.8-.7,1.7-.9,2.7-.9h1.3c-.6.6-1,1.2-1.6,1.7-2.5,2.6-5.2,4.7-8.2,6.6-2.9,1.9-6,3.5-9.1,5-3.8,1.8-7.6,3.3-11.5,4.6-1.1.4-2.2.6-3.3.5-2-.1-4-.1-6.1-.2,1.3-.4,2.6-.9,3.9-1.3,1.5-.5,3.1-1,4.6-1.5.7-.2.7-.5.2-1.1-1.2-1.4-2.3-2.8-3.5-4.2-.1-.2-.2-.4-.3-.6-.2-.6-.5-1.3-.7-1.9l-.6-2.4v-.2c.1-.3.1-.5.2-.8.1-.6.3-1.1.5-1.7,0-.2.3-.3.4-.4.1-.2.2-.5.3-.7.1.2.2.3.2.5-.1.4.2.6.5.6.8.1,1.5.2,2.3.2h1.5c.2.1.5.2.7.2.4.1.8.1,1.2.1-.3.1-.7,0-1,.1-1.2.3-2.4.2-3.7,0-.4-.1-.9,0-1.3.1-.3.1-.6.2-.6.6,0,.6.4,1,1.2,1-.5.5-1.2.7-.9,1.5.1.3.4.6.8.6v.7c.1.3.1.7.2,1,.1.1.2.2.4.2.2.1.4,0,.7.1-.1.2-.2.3-.2.3-.4.4-.3,1.1.2,1.3.4.1.9.2,1.3.3,0,.1.1.3,0,.3-.4.2-.2.5,0,.8,0,.3,0,.4.4.4.7.1,1.3.4,2,.6-.1.4,0,.8.4,1,.5.2,1,.6,1.7.2.2-.1.5-.2.8-.2.5-.1,1-.3,1.4-.7.1-.1.2-.1.3-.2,1.8-.7,3.6-1.4,5.4-2.2.9-.4,1.8-.9,2.8-1.3.2-.1.3-.3.3-.5,0-.1-.2-.4-.3-.4-.2,0-.4.1-.7.2h-.8c.2-.3.4-.4.6-.7-.3-.2-.6-.4-.8-.6-.2-.2-.4-.2-.6-.1-.3.1-.5.5-.8.2.1-.3.2-.5.3-.8v-.2c-.4-.2-.8-.3-1.2-.4-.2-.1-.4-.2-.5-.4-.3-.5-.6-.9-1.2-.9-.1,0-.2-.1-.3-.2.2-.9-.6-.8-1.2-.9.4-.6.4-.8-.1-1.2-.2-.1-.3-.2-.5-.4.7-.6.1-.8-.2-.9-.3-.2-.3-.4-.3-.6h0Z"/>
            <path class="cls-75" d="M77.6,92.7c-1,.2-2,.4-3,.6-.3.1-.4-.1-.5-.3-.6-1.5-1.8-2.2-3.4-2.3-1.2-.1-2.3.1-3.3.8-1.2.8-1.8,2-2,3.4s-.1,2.7.3,4c.6,1.9,2.3,3.1,4.2,3.2,1.5.1,2.8-.4,4.1-1.1.3-.2.4-.3.4-.7v-1.2c0-.4-.1-.5-.5-.5h-3.4v-2.7h7.5v6.1c0,.4-.1.6-.4.8-1.9,1.3-4.1,2.1-6.4,2.2-2.1.1-4.1-.2-5.9-1.4-1.8-1.1-2.8-2.8-3.2-4.9-.6-2.9-.3-5.7,1.7-8.1,1.3-1.5,2.9-2.4,4.9-2.6,2-.3,3.9-.2,5.8.6,1.7.7,2.8,2,3.3,3.7v.2c-.2,0-.2.1-.2.2h0Z"/>
            <path class="cls-26" d="M93.6,92.6c-1.1.2-2,.5-3,.7-.1,0-.4-.1-.5-.2-.7-1.6-1.8-2.4-3.5-2.4-2.1-.1-3.5,1.1-3.9,2.4-.8,2.1-.8,4.3,0,6.5.6,1.8,2.1,2.6,4.1,2.5,1.5,0,2.8-1.1,3.4-2.7.1-.2.2-.5.3-.8,1.1.3,2.1.6,3.2.9,0,1.1-.6,2-1.2,2.8-1.4,1.9-3.3,2.5-5.6,2.6-3.8.1-6.8-1.8-7.8-5.3-.8-2.9-.7-5.8,1-8.5,1.3-2,3.3-3,5.6-3.3,1.6-.2,3.1,0,4.6.7,1.6.7,2.7,1.9,3.2,3.5.1.2.1.4.1.6h0Z"/>
            <path class="cls-11" d="M79,84.7c2.2-1.6,4.5-3,6.6-4.7,3.5-2.8,6.1-6.3,8-10.3.1-.2.3-.5.6-.5.8-.2,1.1.1,1,1-.2,1.3-.8,2.4-1.5,3.5-1.1,1.7-2.4,3.3-3.9,4.7q-.1.1-.2.3c6.5,1.7,12.9,3.5,19.3,5.2-.2.6-.6.6-.9.6-1.1,0-2.2,0-3.2-.1-1.5-.1-2.9-.1-4.4-.3-2.2-.3-4.3-.6-6.4-1-2.3-.4-4.6-1-6.9-1.6-.3-.1-.6,0-.8.2-.5.5-1,.9-1.6,1.4,3.2.6,6.4,1.1,9.5,1.6.1.1.2.2.4.4h-15c-.4,0-.7,0-.6-.4h0Z"/>
            <path class="cls-50" d="M68.1,31.1c1.3,1.1,2.8,1.8,4.5,2.3.8.2,1.5.6,2.2.9.3.1.6.4.9.6.5.5.5.9.1,1.5-1.3,1.6-2.8,2.1-4.7,1.5-.3-.1-.5-.1-.8.2-.7.7-1.4,1.4-2.6,1.6.2.2.3.3.4.4.8.7,1.4,1.5,1.5,2.6,0,.1,0,.3.1.4.2.8.5.9,1.1.4.9-.6,1.8-.9,2.9-.6.8.2,1.2.7,1.3,1.5.2,1.8-.4,3.3-1.6,4.6-.9,1-2,1.9-2.8,3-2.2,2.6-.8,7.7,2.6,8.5,2.2.6,4.1-.1,5.7-1.6,1.9-1.8,2.5-4.2,2.4-6.8,0-.5-.1-1-.2-1.4h-1.7c-.8-.1-1.1-.6-.6-1.3.2-.3.5-.6.8-.8.6-.4.8-.9,1-1.6,0-.2.1-.4.3-.7.2.3.3.4.3.5.8,2.2,1.6,4.4,1.6,6.7.1,3.4-1.9,7.4-5.7,8.5-3.1.9-6.4-.2-8-2.8-1.5-2.5-1.1-6.5,1-8.6.9-.9,1.8-1.8,2.7-2.7.6-.6.9-1.3,1-2.1.1-.6.1-1.2-.5-1.6-.5-.4-1.1-.3-1.7,0-.5.2-.9.6-1.4.8-.6.3-1.1.2-1.4-.2-.1-.3-.3-.6-.2-.9.1-2-.8-3.4-2.4-4.6,1.3-.6,2.7-1.1,3.6-2.2-.5-.5-1.2-1-1.1-1.8,0-.8.6-1.3,1.1-1.7-.5-.5-1-1.1-1.5-1.6,0-.1-.1-.3-.1-.4-.5-.4-.4-.5-.1-.5h0ZM72.1,37.2c.9-.1,1.8-.2,2.4-.9.3-.3.4-.8,0-1-.8-.4-1.7-.9-2.6-1.1-.6-.2-.8,0-.7.7,0,.5.1,1.1-.1,1.6-.1.5-.2.6.4.7h.6ZM69.5,35.1c.1.3.1.6.2.8s.3.2.5.3c.1-.2.2-.3.2-.5s0-.5-.1-.7-.3-.3-.4-.5c-.1.3-.2.5-.4.6h0Z"/>
            <path class="cls-66" d="M67.2,59.3c.8,1.5,1.8,2.8,3.3,3.8,2.8,1.7,6.7,1.4,9.3-.6,2.2-1.7,3.5-3.9,4-6.6.3-1.6.2-3.3-.2-4.9-.6-2.4-1.2-4.7-1.9-7.1-.1-.2-.1-.4-.1-.6-.1-.8-.3-1.7-.4-2.6h.2c.2.6.3,1.2.5,1.8.5,1.3,1,2.5,1.5,3.8.1.2.3.4.4.6.9,2.1,1.6,4.2,1.8,6.4.5,4-.9,7.4-3.6,10.3-1.8,1.9-4.1,2.9-6.8,2.9-4,0-7.7-2.4-8.9-6.3v-1.2c-.1-.9-.2-1.9-.3-2.8h.2c0,.2,0,.5.1.7,0,.2.1.3.2.4h0c-.1.8.1,1.4.7,2h0Z"/>
            <path class="cls-54" d="M55.1,71.4c.5,0,.9-.1,1.3-.1,1.2.2,2.4.3,3.7,0,.3-.1.7,0,1-.1-.4,0-.8-.1-1.2-.1-.2,0-.5-.1-.7-.2h2.8c.2,0,.3-.1.5-.2.7-.1,1.5-.1,2.2-.3.2,0,.5-.3.7-.4-.3-.1-.5-.2-.8-.1-1.8,0-3.6.1-5.5.1-1.1,0-2.3-.2-3.4-.4-.3,0-.6,0-.6.4,0,.2.3.4.4.4.7.1,1.3.2,2,.3,0,.1.1.1.1.2-.8-.1-1.5-.1-2.3-.2-.3,0-.6-.2-.5-.6,0-.1,0-.3-.2-.5-.1.2-.2.5-.3.7s-.3.3-.4.4c-.2.5-.3,1.1-.5,1.6-.1.3-.1.5-.2.8v.2l.6,2.4c.2.6.5,1.3.7,1.9-2-3.1-2-6.6.7-9.1.2.2.4.4.6.4,2,.3,4.1.5,6.1.4.8-.1,1.5-.1,2.2-.1.3,0,.6-.1.8-.2,0,.2-.1.4-.1.6.3.2.9.4.2.9.2.1.4.3.5.4v.2c-.2-.1-.4-.2-.6-.2-.9.1-1.7.4-2.6.4-1.8.1-3.5.2-5.3.3-.8,0-1.5-.1-2.3-.1q.3,0,.4-.1h0Z"/>
            <path class="cls-71" d="M83.7,46.8c-.2-.2-.3-.4-.4-.6-.5-1.2-1-2.5-1.5-3.8-.2-.6-.3-1.2-.5-1.8h-.2c.1.8.3,1.7.4,2.6-.3-1.1-.6-2.2-.8-3.2-.4-2.1-.6-4.2-.4-6.3.1-.9.3-1.9.4-2.8h.2v1.4c0,1.7,0,3.5.1,5.2.1,1.9.7,3.8,1.4,5.6.4,1.2.9,2.4,1.3,3.7h0Z"/>
            <path class="cls-24" d="M34.6,59.5v7.6c0,.9.3,1.7.4,2.6.1.5,0,1.1,0,1.6-.1-.9-.4-1.8-.4-2.6-.1-2.4-.2-4.8-.2-7.1,0-.7.2-1.4.2-2.1h0Z"/>
            <path class="cls-1" d="M79,84.7c-.1.5.2.4.5.4h15c-.2-.2-.3-.2-.4-.4.2.1.5.2.8.3-.3.1-.5.2-.8.2h-15c-.1,0-.3-.1-.2-.2-.1-.2,0-.2.1-.3h0Z"/>
            <path class="cls-35" d="M66.5,57.3c-.1-.2-.2-.3-.2-.4-.1-.2,0-.5-.1-.7h-.2c.1.9.2,1.9.3,2.8v1c-.1-.9-.3-1.9-.4-2.8-.1-.5,0-1,.1-1.5.1-.8.3-1.5.5-2.3v3.9h0Z"/>
            <g>
              <path class="cls-19" d="M86.3,66.2c-.3.3-.6.6-.8.9,0,0-.1,0-.1-.1.2-.9.4-1.9.7-2.8.7-2.8,1.2-5.7,1.3-8.6.2-3.5-.6-6.8-1.8-10.1-.1-.3-.2-.6-.3-.9-.3-.8-.6-1.6-.9-2.4h0c-.3-.9-.6-1.7-.9-2.6-1.3-4.2-1.8-8.4-.1-12.6.2-.5.5-1,.7-1.4.1.1.2.3.3.4-.9,3-1.5,6-.8,9.1.6,2.7,1.9,5.2,3.1,7.6,1.4,2.9,2.7,5.8,3.4,8.9,1.1,5.5,0,10.4-3.8,14.6h0Z"/>
              <path class="cls-19" d="M80.3,81.3c-2.3,1.2-4.6,2.4-6.9,3.6-.3.2-.7.2-1.1.2h-4.9c-.2,0-.3-.2-.5-.2.2-.1.3-.4.4-.4,1.2-.3,2.4-.5,3.6-.9,2.5-.8,4.8-1.9,7-3.2.3-.2.5-.2.8,0,.6.3,1.1.6,1.6.9h0Z"/>
              <path class="cls-19" d="M79.6,79.4c.8-.6,1.6-1.1,2.3-1.6,1.3-1,2.5-2.1,3.7-3.2.4-.3.8-.4,1.2-.2.4.2.9.4,1.4.6-.2.3-.4.6-.5.8-1.6,1.8-3.4,3.2-5.4,4.4-.2.1-.6.1-.8,0-.7-.2-1.2-.5-1.9-.8h0Z"/>
              <path class="cls-19" d="M92.1,69.7c-.2,1.1-.7,1.9-1.2,2.7q-1.2,1.7-3.2,1.2c-.2-.1-.4-.1-.7-.2.2-.2.3-.4.5-.5.9-.9,1.9-1.7,2.5-2.9.1-.1.2-.2.4-.2.5-.1,1-.1,1.7-.1h0Z"/>
              <path class="cls-19" d="M85,64.9h0c-.1.6-.3,1.2-.4,1.8-.1,1.1-.5,2-1.7,2.4-.7.2-1.3.5-1.9.8-1.1.3-2.2.6-3.4.9h0c-.9.1-1.8.1-2.6.2-4-.2-7.3-1.7-9.7-4.9-.5-.6-.8-1.4-1.2-2.1-.7-1.3-1-2.8-1.2-4.2-.2-1.6-.1-3.3.4-4.9.1-.4.3-.7.5-1.1,0,.5,0,1.1-.1,1.6-.4,3,.3,5.7,2.1,8.2l.1.1c1,1.2,2.1,2.4,3.6,3.1,4.6,2.2,10.7,1.7,14.4-2.6,0,0,.1,0,.1-.1.6-.8,1.2-1.6,1.9-2.5,0,0,.1,0,.2.1-.5,1-.8,2.1-1.1,3.2h0Z"/>
              <path class="cls-19" d="M118.1,73.1c-.1.6-.1,1.1-.3,1.7-.2.7-.4,1.4-.6,2-.2.5-.4.9-.6,1.3.5-1.6,1-3.3,1.5-5h0Z"/>
            </g>
            <path class="cls-43" d="M67.2,59.3c-.6-.5-.8-1.2-.7-1.9.2.6.4,1.2.7,1.9Z"/>
            <path class="cls-23" d="M65.8,71.1v-.2c.5.4.5.6.1,1.2.6.1,1.3,0,1.2.9h-.2c.2-.4,0-.6-.4-.6-.2,0-.4.1-.6.1-3.3,1.1-6.7,1.5-10.2,1.2-.3,0-.7-.1-.8.4,0,.4.1.8.6.8,1.2,0,2.4.1,3.6,0,1.2-.1,2.4-.3,3.7-.5-.1.1-.2.2-.4.2-.2.1-.3,0-.5.1-.7.1-1.3.3-1.9.4-.9.1-1.9-.2-2.8.2-.1.1-.3,0-.5,0-.4-.1-.8-.1-1.2-.2-.4,0-.7-.2-.8-.6-.3-.8.4-1,.9-1.5-.8,0-1.1-.4-1.2-1,0-.4.3-.5.6-.6v.1c-.6.7-.5,1.1.4,1.3.2.1.5.1.7.1,2.7.1,5.3-.2,7.9-.7.7-.1,1.4-.2,1.9-.8,0,0,0-.2-.1-.3h0Z"/>
            <path class="cls-38" d="M72.6,77.1c-1.3.6-2.5,1.4-3.9,1.9-2.4,1-4.9,1.7-7.5,2.1-.1,0-.3,0-.4.1-.1.1-.2.2-.2.2,0,.1.1.2.2.2.6.3,1.2.7,2,.3.6-.3,1.3-.4,2-.7-.4.4-.9.6-1.4.7-.3.1-.5.1-.8.2-.6.4-1.2,0-1.7-.2s-.5-.6-.4-1c-.7-.2-1.4-.4-2-.6-.3-.1-.4-.2-.4-.4h.3c.4.2.8.4,1.2.5.7,0,1.4,0,2.1-.2,2.5-.4,4.9-1.3,7.3-2.3.9-.4,1.8-.9,2.8-1.4.4-.2.4-.4,0-.6-.1,0-.1-.1-.2-.1l.1-.1c.3.2.5.4.8.6-.2.3-.4.4-.6.7l.7.1h0Z"/>
            <path class="cls-3" d="M66.9,73h.2c.1.1.2.2.3.2.6,0,.9.4,1.2.9.1.2.3.3.5.4.4.2.8.3,1.2.4v.2h-.2c-.4-.2-.8-.5-1.2-.4-.2,0-.3.1-.5.1-.4.2-.8.4-1.2.6,0-.1-.1-.1-.1-.2.2-.1.3-.2.5-.3.3-.2.5-.4.8-.7-.1-.7-.6-.9-1.2-.6-3.1,1.5-6.4,2.2-9.8,2.2-.4,0-.8-.1-1.2-.1-.2,0-.5.1-.7.1v-.7c.4.1.8.1,1.2.2.2,0,.3.1.5,0,.9-.4,1.9-.1,2.8-.2.7-.1,1.3-.2,1.9-.4.2,0,.3,0,.5-.1.1,0,.3-.2.4-.2,1.4-.4,2.7-.9,4.1-1.4h0Z"/>
            <path class="cls-67" d="M70.1,75.2h.2c-.1.2-.2.5-.3.8.3.3.6-.1.8-.2.3-.1.4-.1.6.1l-.1.1c-.3.1-.8.2-1.1.3-3.6,2.1-7.5,3-11.6,3.2-.2,0-.4.1-.6.2.1.2.2.3.3.5h-.3c-.2-.2-.4-.5,0-.8v-.3c.1-.1.2-.1.2-.2,2.4,0,4.7-.3,7-1.1,1.4-.5,2.8-1.2,4.2-1.8.4-.2.8-.3.7-.8h0Z"/>
            <path class="cls-4" d="M58.3,78.8c-.1.1-.2.1-.2.2-.4-.1-.9-.1-1.3-.3-.5-.2-.5-.9-.2-1.3.1-.1.1-.2.2-.3-.3,0-.5,0-.7-.1-.1,0-.2-.2-.4-.2,4.2.5,8.2-.3,12-2.2.2-.1.5-.3.7-.4-.3.2-.5.5-.8.7-.2.1-.3.2-.5.3,0,.1.1.1.1.2.4-.2.8-.4,1.2-.6.2-.1.3-.1.5-.1-1,.5-2,1.1-3,1.5-2.8,1.1-5.7,1.4-8.7,1.4-.2,0-.5.1-.7.2.1.2.2.5.3.6s.3.2.5.2c.3.2.7.2,1,.2h0Z"/>
            <path class="cls-40" d="M57.7,70.9c0-.1-.1-.1-.1-.2h4.8c-.2.1-.3.1-.5.1h-2.8c-.4.1-.9.1-1.4.1h0Z"/>
            <path class="cls-19" d="M42.6,85.2c-3.7-6.2-5.9-13.4-5.9-21.1,0-22.6,18.4-40.9,40.9-40.9s40.9,18.3,40.9,40.9c0,8-2.3,15.4-6.2,21.7l2.3,1.4c4.2-6.7,6.7-14.6,6.7-23.1,0-24-19.6-43.6-43.6-43.6s-43.6,19.6-43.6,43.6c0,8.2,2.3,15.9,6.3,22.5l2.2-1.4h0Z"/>
          </g>
          <path class="cls-9" d="M106.7,91h-4.5v12.9h-3.8v-12.9h-4.5v-2.9h12.9l-.1,2.9h0Z"/>
        </g>
      </g>
      <path class="cls-19" d="M175.65,176.72h3.3v.8h-3.3v-.8ZM177.75,175.52v3.3h-.8v-3.3h.8Z"/>
      <g>
        <path class="cls-78" d="M107,125c-.9.2-1.7.2-2.5.1-1.1-.1-2.2-.5-3.1-1.1-1.5-.9-2.4-2.2-2.7-3.8-.4-1.9.1-3.5,1.4-5,1-1.1,2.4-1.8,4-2.1,2.3-.4,4.2.1,6,1.5.1.1.2.2.1.3-.6.6-1.1,1.2-1.6,1.8h0c-.7-.7-1.6-1.1-2.7-1.2-1-.1-1.9.2-2.7.7-1.7,1.1-1.9,2.8-1.3,4.2.3.7.8,1.2,1.5,1.6.7.4,1.4.5,2.3.6.2.8.8,1.6,1.3,2.4h0Z"/>
        <path class="cls-46" d="M94.2,113h2.5v12.1h-2.5v-12.1Z"/>
        <path class="cls-56" d="M106.3,118.5s.1,0,0,0q.1.1.1.2h0c.1.1.2.2.2.3h0l.1.1h0q.1.1.2.2h0c.1.1.1.2.2.2h0l.1.1h0l.1.1h0v.1c.1.2.3.4.4.6,0,0,.1,0,.1.1h0v.2c-.1,0-.2-.1-.3-.1-.1-.1-.2-.2-.3-.2-.2-.1-.2-.2-.3-.4,0-.1-.1-.2-.2-.3s-.2-.2-.3-.4v-.2c-.2,0-.2-.2-.3-.3,0-.1-.2-.1-.3-.2-.1-.1-.1-.2-.2-.2-.1-.1-.1-.2-.2-.3-.4-.1-.8-.2-1.2-.1l-.1.1c-.1.1,0,.4.2.6q.1.1.2.2c.1.2.3.4.4.6.1.1.2.3.2.4s.1.1.1.1c.1.1.2.2.3.4.2.2.1.5.4.6v.1c0,.2.2.3.4.5.1.1.2.2.2.3l.3.6c.1.1.3.2.3.4s.2.4.3.6.4.1.6.2c.1,0,.2-.1.2-.2.1-.1.1-.2.2-.3q-.1-.1.1-.2c.2-.1.2-.2.3-.3.1-.1.1-.2.2-.3s.3-.2.3-.3c.2-.2.3-.4.4-.6,0-.1.1-.2.1-.2.2-.1.4-.2.4-.5v-.1c.1-.2.3-.3.4-.5,0-.1.1-.1.1-.1.2-.1.3-.2.3-.4q0-.1.1-.1c.3-.1.5-.3.6-.6.1-.2.5-.3.3-.6h.2q.1,0,.2-.1c0-.1,0-.2.2-.3,0-.2.5-.2.4-.6l.1-.1c.1,0,.1-.1.1-.1.2-.2.3-.4.5-.6v-.3h.1c.1-.1.2-.2.3-.3h.1c.2-.1.2-.2.2-.3h.1c.1,0,.1-.1.2-.1.2-.2.4-.4.6-.7v-.1c.1-.1.2-.1.2-.2l.1-.1c.1-.1.2-.2.3-.4.1-.1.1-.2.2-.3.1,0,.1-.1.2-.1l.1-.1c.1-.2.2-.4.3-.5.1,0,.1.1.2.1,0-.1.1-.2.1-.2,0-.2.1-.3.2-.3.3-.1.4-.3.6-.6,0,0,0-.1.1-.1.3-.1.4-.3.6-.5.1-.1.2-.3.3-.4.1-.1.1-.2.2-.3.1-.2,0-.3-.2-.3h-.5c.1-.1.2-.1.3-.1h1.2c-4,4.7-8,9.5-12.1,14.2,0,0-.1,0-.1-.1-.8-1.2-1.6-2.3-2.4-3.5-.7-1-1.4-2-2.1-3v-.3h1.7c.2,0,.4,0,.6.1h0c0,.1.1.1.1.1h0c0,.1.1.1.1.1h0l.1.1h0l.1.1h0l.5.3h0Z"/>
        <path class="cls-44" d="M116.9,115.5c-.2.3-.4.6-.7,1-.7,1-1.4,1.9-2.1,2.9h0c0,.1-.1.1-.1.2h0l-.1.1h0s-.1,0-.1.1c-.2.2-.3.4-.4.6v.1h0c-.2.2-.4.4-.5.7h0l-.1.1h0c0,.1-.1.1-.1.2h0c-.2.2-.4.4-.4.6h0l-.1.1h0c-.2.1-.2.2-.3.4h0c-.2.1-.3.2-.3.4h0c-.1,0-.2.1-.2.1-.1.2-.3.4-.4.6-.2.2-.3.5-.5.8-.2.2-.3.4-.7.4h-.9s-.1,0-.1-.1l.1-.1c0-.1.1-.2.1-.2h0v-.1c.2-.2.3-.4.5-.6.4-.1.5-.4.6-.7h0s0-.1.1-.1h0c.1,0,.2,0,.2-.1.2-.2.4-.5.6-.8q0-.1.1-.2h0c.2,0,.2-.2.3-.3.1-.2.3-.3.4-.5.1,0,.1-.1.2-.1.4-.4.7-.9,1.1-1.3q.1-.1.1-.2h0c.2-.1.4-.3.5-.6,0-.1.1-.1.1-.2s.1-.1.1-.1h0c.2,0,.2-.1.2-.2h0c0-.1.1-.1.1-.1h0l.1-.1h0c.2-.1.3-.2.3-.4h0l.1-.1h0v-.1c.2-.2.3-.4.5-.6h.1c.2-.3.5-.5.7-.8.1-.1.1-.2.1-.3.1-.1.2-.3.3-.4,0-.1.1-.1.1-.1h.1c0,.2-.2.3-.2.6q.1-.1.2-.2c.1-.1.2-.2.3-.3,0-.1,0,0,0,0h0Z"/>
        <path class="cls-49" d="M106.5,119.3c.1.1.2.2.3.4.1.1.2.2.2.3,0,.2.1.3.3.4.1.1.2.2.3.2.1.1.2.1.3.1l.1.1h0s0,.1.1.1c0,0,0-.1.1-.1h0c.1-.1.2-.1.2-.2.1-.1.2-.3.4-.3,0-.1,0-.2.1-.2l.5-.5c.1-.1.2-.3.4-.4h0c.2,0,.2-.2.3-.3h.1c.4-.4.8-.8,1.2-1.2v-.1h.1c.3-.3.7-.6,1-1,.1-.1.1-.2.1-.2h0l.1-.1c.1-.1.2-.2.3-.3v-.1h0l.1-.1h0q.1,0,.2-.1c.5-.5,1.1-1,1.6-1.6q.1-.1.2-.2h0s.1,0,.1-.1l.7-.7v-.1h0l.5-.5h0q.1-.1.2-.2h0q.1-.1.2-.2h0c.1-.1.2-.1.2-.2h0c.2-.2.4-.3.6-.5v-.1h0l.1-.1h.1c.1-.1.2-.2.3-.4h0c.1.3,0,.3-.3.5-.1,0-.1.1-.1.2.1.2-.1.2-.2.1-.1.2-.2.3-.3.5-.3.1-.4.3-.5.6-.1,0-.3-.1-.3.2,0,.2,0,.3-.2.2-.2.2-.4.4-.6.7l-.5.5c-.1.1-.1.2-.2.3s-.1.1-.2.1-.1.1-.2.1q-.1.1-.2.2l-.1.1c-.1.1-.2.2-.3.3-.1.1-.2.2-.2.3h-.1c-.1,0-.1-.1-.2-.1-.1.1-.2.1-.2.2q.2.1-.1.2c-.1,0-.1.1-.1.1,0,.1-.1.1-.1.2q-.1.1-.2.2c-.2.2-.3.4-.6.5l-.1.1c0,.2-.1.2-.3.3q-.1.1-.2.2l-.1.1c-.2.2-.4.3-.5.6,0,0,0,.1-.1.1-.3.1-.3.3-.4.4-.1.1-.2.2-.3.2-.2.1-.3.2-.3.3-.1.2-.2.5-.6.6-.1,0-.1.1-.2.1-.1.1-.1.2-.2.3-.3.2-.4.4-.5.7-.2,0-.3-.1-.4,0-.2.1-.5.2-.7.3-.3.1-.4.2-.5-.1,0-.1.1-.2.1-.2,0-.1-.2-.1-.3-.1.1,0,.2-.1.3-.1l.1-.1-.1-.1c-.3-.1-.4-.2-.5-.5,0-.1-.1-.1-.2-.2q-.1.1-.2.1h-.1v-.4c0-.1,0-.2-.2-.2l-.1-.1h.2c.1,0,.1.1.2.2q.6-.1.6-.2h0Z"/>
        <path class="cls-7" d="M101.1,128q.3,0,.3-.2v-.3c.2-.1.2,0,.2.1v.4h.4v-.9h.2v.9h.7c.1,0,.2-.1.1-.1,0-.1-.1-.2-.1-.3h-.2c-.1,0-.1.1-.2.1-.1-.2,0-.3.2-.3.3,0,.5.1.5.5h.1c.2,0,.3-.1.3-.2,0-.2.1-.3.4-.3.2,0,.3.1.3.3v.2h.3v-.9h.2v1h-3.5c0,.1.1.2.1.2.1,0,.2-.1.2-.1h0c-.1,0-.1.1-.1.1-.1,0-.3.1-.3-.1,0-.3-.2-.2-.3-.2-.2,0-.4,0-.5-.2s0-.4.2-.4c.2-.1.4,0,.5.2-.1.2-.1.3,0,.5h0ZM103.6,127.9q.1.1.2.1c.2,0,.2-.1.2-.2s0-.2-.2-.2-.2.1-.2.3ZM100.8,127.9c0-.1,0-.3-.2-.3-.1,0-.2.1-.2.2s.1.2.2.2q.2,0,.2-.1h0Z"/>
        <path class="cls-8" d="M107.5,128h.4c0-.2,0-.3.1-.5h.1v.5h.3c.1-.2-.2-.5.3-.5.1,0,.3,0,.4.1s0,.2,0,.4h.4v-.8c0-.1.1-.1.1-.2,0,.1.1.1.1.2v.9h-3.6c-.2,0-.4-.2-.3-.4s.3-.3.6-.2c.1,0,.1.2.2.2,0,.1,0,.2.1.3h.3c0-.1,0-.2.1-.3,0-.2.2-.2.3-.2.2,0,.3.1.4.3-.3,0-.3.1-.3.2h0ZM106.4,127.9c-.1-.2,0-.3-.2-.3s-.2.1-.2.2.1.2.3.2c-.1,0,0-.1.1-.1h0ZM107,127.8c0,.1,0,.2.2.2.1,0,.2,0,.2-.2,0-.1,0-.3-.2-.3-.2.1-.2.2-.2.3h0ZM108.6,127.6c.1.1-.1.3.2.4q.2,0,.2-.2t-.4-.2h0Z"/>
        <path class="cls-76" d="M97.3,127.4c.3,0,.3.2.3.4s.2.2.3.2c0-.5.1-.6.5-.5.3,0,.3.2.2.6h.4v-.8q0-.1.2-.1v1h-3.2v-1s.1-.1.2-.1v.9h.4v-.5c.2,0,.3.1.4,0,.1,0,.1-.2.1-.3q.2-.1.2.2s-.1,0,0,0c0,.2-.1.2-.3.2h-.2c0,.1,0,.2-.1.4h.8c0-.1,0-.2-.1-.2,0-.2-.1-.3-.1-.4h0ZM98.1,128c.2-.1.3-.1.4-.1.1-.1,0-.2,0-.3,0,0-.2-.1-.2,0-.2.1-.1.2-.2.4h0Z"/>
        <path class="cls-8" d="M101.1,130.3c-.1-.1-.2-.1-.2-.1-.2-.2-.3-.4-.5-.7l-.1-.1v.8h-.2v-.9q0-.1.1-.2c.1,0,.2.1.2.1.1.2.2.3.4.5,0,.1.1.1.2.1v-.6c0-.1.1-.1.2-.1l-.1,1.2h0Z"/>
        <path class="cls-16" d="M118.6,112.8c.2-.2.3-.4.5-.6.1,0,.1-.1.1-.1q.1,0,.2-.1c-.5.7-.9,1.3-1.4,1.9,0,.1-.1.1-.1.2h0q-.1.1-.2.2v.1h-.1c.1-.2.2-.3.2-.5.1-.1.2-.1.2-.2v-.2h0c.1,0,.3-.2.3-.4h0c.2,0,.2-.1.2-.2q.1,0,.1-.1h0Z"/>
        <path class="cls-76" d="M103.1,129.8c.1.2.2.3.3.4-.2.1-.2,0-.3-.1-.1-.3-.2-.3-.5-.3v.4h-.2v-1.1h.6c.2,0,.3.1.3.2.1.3,0,.4-.2.5h0ZM102.6,129.6s0,.1,0,0c.2,0,.4,0,.5-.1,0,0,0-.2-.1-.2s-.3-.1-.4,0v.3h0Z"/>
        <path class="cls-7" d="M98.2,129.2c.3,0,.6.2.6.6,0,.3-.2.6-.6.6s-.6-.2-.6-.6c.1-.4.3-.6.6-.6ZM98.6,129.7c0-.3-.1-.4-.4-.4-.2,0-.3.1-.3.3-.1.2.1.5.3.5s.4-.1.4-.4h0Z"/>
        <path class="cls-64" d="M94.7,129.5v.8h-.2v-1.1c.1.1.2.1.2.2.2.2.3.4.5.7v-.8h.2v1.1h-.1q-.1-.1-.2-.1c0-.4-.2-.6-.4-.8h0Z"/>
        <path class="cls-8" d="M99,129.2q.2,0,.2.1v.6c0,.1,0,.2.2.2s.3-.1.3-.2v-.7h.2c0,.3,0,.5-.1.8s-.5.4-.8.3c-.1,0-.1-.1-.1-.2.1-.4.1-.6.1-.9h0Z"/>
        <path class="cls-33" d="M117.7,114c-.1.2-.2.3-.2.5h.1v.1h0c-.1,0-.1.1-.2.1-.2.2-.3.5-.5.7-.1.1-.2.2-.3.3,0,0-.1.1-.2.2-.1-.2.2-.4.2-.6.1-.2.2-.4.4-.6h0s0-.1.1-.1h0c.2,0,.2-.1.2-.2h0s0-.1.1-.1h0c0-.1.1-.1.1-.2h0l.1-.1h.1q-.1,0,0,0h0Z"/>
        <path class="cls-7" d="M97.4,129.6c-.1,0-.2-.1-.2-.1-.1-.2-.2-.2-.4-.1-.1,0-.2.1-.2.2v.3c0,.1.2.2.3.2s.2-.1.3-.2l.1-.1v.2c-.1.3-.5.3-.8.1s-.3-.6-.1-.9c.1-.2.3-.1.5-.1.4.1.6.2.5.5h0Z"/>
        <path class="cls-7" d="M109.3,129.2c.5,0,.7,0,.8.1h-.6v.3h.5c0,.1-.2.1-.5.2v.3h.6v.2h-.8v-1.1h0Z"/>
        <path class="cls-7" d="M106.9,130.3c-.1-.1-.2-.1-.2-.1-.1-.2-.2-.2-.4-.2s-.2.1-.2.2l-.1.1s-.1,0-.1-.1c.2-.3.3-.7.5-1,0-.1.2-.1.2,0,.1.4.2.7.3,1.1.1,0,0,0,0,0h0ZM106.4,129.4c-.1.2-.1.3-.2.5h.4c0-.2-.1-.3-.2-.5Z"/>
        <path class="cls-64" d="M109,129.2v.8c0,.2-.2.4-.5.3-.3,0-.4-.1-.4-.4v-.6l.1-.1h.1v.6c0,.2.1.4.2.4.2,0,.3-.1.3-.4v-.5q.1-.1.2-.1h0Z"/>
        <path class="cls-7" d="M104.9,129.2c.2,0,.3,0,.3.2.1.2.2.4.3.7.1-.2.2-.5.3-.7,0-.2.1-.2.3-.1-.1.3-.3.7-.4,1l-.1.1-.1-.1c-.1-.2-.2-.4-.3-.7-.2-.2-.3-.3-.3-.4h0Z"/>
        <path class="cls-76" d="M103.9,129.6c.1-.1.2-.3.3-.4h.2c-.2.4-.5.6-.4,1.1h-.1c-.1,0-.1-.1-.1-.1,0-.4-.2-.6-.4-.9v-.1c.4,0,.3.3.5.4h0Z"/>
        <path class="cls-15" d="M108.7,124.8l.1.1h.9c.3,0,.5-.2.7-.4s.3-.5.5-.8c.1-.2.3-.4.4-.6,0-.1.1-.1.2-.1-.4.6-.9,1.2-1.3,1.8,0,.1-.1.1-.2.1-.5,0-.9,0-1.3-.1-.1.1-.2.1,0,0q-.1,0,0,0Z"/>
        <path class="cls-76" d="M95.1,128l-.1.1q-.1,0-.2-.1c-.1.1-.3.1-.5,0s-.2-.2-.2-.4.2-.2.4-.2.3.1.3.3c0,.2.1.3.3.3h0ZM94.8,127.8c-.1-.1-.2-.2-.3-.2-.2,0-.2.1-.2.2s.1.2.2.2.1-.1.3-.2h0Z"/>
        <path class="cls-76" d="M101.9,130.3h-.2v-.6q0-.3-.4-.3c0-.1,0-.2.1-.2h.8c0,.1-.1.1-.3.2v.9h0Z"/>
        <path class="cls-76" d="M95.1,128v-.3c0-.2.1-.3.3-.3.3,0,.4.1.4.2v.4c-.2.1-.5.2-.7,0h0ZM95.7,127.8c0-.2-.1-.3-.2-.3s-.2.1-.2.2,0,.2.2.2c.1.1.1,0,.2-.1Z"/>
        <path class="cls-64" d="M107.4,129.2v.9h.6c0,.1,0,.2-.2.2h-.6v-1.1h.2Z"/>
        <path class="cls-81" d="M105.8,117.9c-.2,0-.4-.1-.6-.1h-1.7v.2q-.1-.1-.2-.2h2.2c.1-.1.3-.1.3.1Z"/>
        <path class="cls-47" d="M94.3,129.2v1.1h-.2v-1c0-.2.1-.1.2-.1Z"/>
        <path class="cls-81" d="M109.8,119.1c-.1.2-.2.3-.4.4l-.5.5q-.1.1-.1.2c-.2,0-.3.2-.4.3s-.2.1-.2.2c.2-.2.3-.4.5-.6.4-.3.7-.6,1.1-1h0Z"/>
        <path class="cls-61" d="M115.3,113.8c-.1.1-.1.2-.2.2-.5.5-1.1,1-1.6,1.6,0,0-.1.1-.2.1.4-.4.8-.8,1.2-1.2.3-.3.6-.5.8-.7h0Z"/>
        <path class="cls-47" d="M110.1,127.1v1l-.1.1h-.1v-1c0-.1.1-.1.2-.1-.1-.1-.1,0,0,0h0Z"/>
        <path class="cls-78" d="M99.6,127.1v.9l-.1.1h-.1v-1h.2Z"/>
        <path class="cls-76" d="M105.1,127.1v1c-.1,0-.2,0-.2-.1v-.8s.1-.1.2-.1h0Z"/>
        <path class="cls-73" d="M113,119.5c0,.1-.1.2-.1.2-.4.4-.7.9-1.1,1.3,0,.1-.1.1-.2.1.2-.2.4-.5.6-.8.3-.2.5-.5.8-.8h0Z"/>
        <path class="cls-81" d="M111.4,117.5v.1c-.4.4-.8.8-1.2,1.1h-.1c.4-.3.9-.7,1.3-1.2Z"/>
        <path class="cls-81" d="M112.7,116.3c0,.1-.1.2-.1.2l-1,1h-.1c.4-.4.8-.8,1.2-1.2Z"/>
        <path class="cls-73" d="M116,115.9c-.1.1-.1.2-.1.3-.2.3-.4.5-.7.8h-.1c.3-.3.6-.7.9-1.1,0,.1,0,0,0,0h0Z"/>
        <path class="cls-73" d="M110.9,122q0,.1-.1.2c-.2.3-.4.5-.6.8,0,0-.1.1-.2.1.3-.4.6-.8.9-1.1Z"/>
        <path class="cls-15" d="M116.9,115.5c.2-.2.3-.5.5-.7,0-.1.1-.1.2-.1-.3.2-.5.5-.7.8h0Z"/>
        <path class="cls-73" d="M110,123.1c-.1.3-.2.6-.6.7.2-.3.4-.5.6-.7Z"/>
        <path class="cls-64" d="M95.7,129.9v-.1h.5q0,.2-.5.1h0Z"/>
        <path class="cls-61" d="M116.2,112.9v.1l-.7.7s-.1,0-.1.1c.2-.3.5-.6.8-.9h0Z"/>
        <path class="cls-62" d="M119.4,112q-.1,0-.2.1c-.1,0-.1.1-.1.1.2-.2.3-.4.5-.5h.1c-.1.1-.2.2-.3.3h0Z"/>
        <path class="cls-81" d="M107.9,120.5s-.1,0-.1-.1c-.2-.2-.3-.4-.4-.6v-.1c.1.3.3.5.5.8h0Z"/>
        <path class="cls-14" d="M108.9,127.4c-.2-.1-.3-.1-.4-.2.3-.1.4-.1.4.2Z"/>
        <path class="cls-15" d="M113.3,120.5v-.1c.1-.2.3-.4.4-.6,0,0,.1,0,.1-.1-.1.3-.3.5-.5.8h0Z"/>
        <path class="cls-73" d="M116.9,114.8c-.1.2-.2.4-.4.6h-.1c.2-.2.4-.4.5-.6Z"/>
        <path class="cls-15" d="M112.8,121.2c.1-.3.3-.5.5-.7-.2.2-.3.4-.5.7Z"/>
        <path class="cls-76" d="M100.8,127.3h-.5v-.1h.4q.1,0,.1.1Z"/>
        <path class="cls-61" d="M117.8,111.3v.1c-.2.2-.4.3-.6.5.3-.2.4-.4.6-.6h0Z"/>
        <path class="cls-15" d="M112.2,122.1c.1-.2.2-.5.4-.6-.1.2-.3.4-.4.6Z"/>
        <path class="cls-73" d="M113.5,118.9c-.1.2-.3.4-.5.6.2-.2.3-.4.5-.6Z"/>
        <path class="cls-17" d="M119.7,111.6h-.1c.1-.1.2-.3.4-.4h.1c-.2.1-.3.3-.4.4h0Z"/>
        <path class="cls-47" d="M94.2,127.2h.4v.1c-.1.1-.2,0-.4-.1q0,.1,0,0Z"/>
        <path class="cls-49" d="M118.3,110.9c.1-.1.2-.2.4-.3h0c0,.2-.2.2-.4.3h0Z"/>
        <path class="cls-15" d="M111.5,123c0-.2.1-.3.3-.4-.1.1-.2.3-.3.4Z"/>
        <path class="cls-44" d="M118.3,113.2c0,.2-.2.4-.3.4.1-.2.2-.3.3-.4Z"/>
        <path class="cls-61" d="M116.7,112.5l-.5.5c.2-.2.3-.4.5-.5Z"/>
        <path class="cls-73" d="M114.5,117.7c0,.2-.1.3-.3.4.1-.1.2-.3.3-.4Z"/>
        <path class="cls-73" d="M111.2,121.7c-.1.1-.1.3-.3.3.1-.1.2-.2.3-.3Z"/>
        <path class="cls-15" d="M111.8,122.6c.1-.2.1-.3.3-.4-.1.1-.2.2-.3.4Z"/>
        <path class="cls-73" d="M108.7,124.8s-.1,0,0,0c0-.1.1-.2.2-.3,0,.1-.1.1-.1.2q-.1,0-.1.1Z"/>
        <path class="cls-33" d="M117.9,113.7c0,.1-.1.2-.2.2h0v-.1l.1-.1c0,.1.1,0,.1,0h0Z"/>
        <path class="cls-81" d="M110.1,118.8c-.1.1-.1.3-.3.3.1-.1.2-.2.3-.3Z"/>
        <path class="cls-81" d="M106.7,119c-.1-.1-.2-.2-.2-.3,0,.1.1.2.2.3Z"/>
        <path class="cls-73" d="M113.9,118.4c0,.1,0,.2-.2.2.1,0,.1-.1.2-.2Z"/>
        <path class="cls-44" d="M118.5,112.9c0,.1-.1.2-.2.2.1,0,.2-.1.2-.2Z"/>
        <path class="cls-25" d="M120.3,110.7c-.1.1-.1.2-.2.3h0c.1-.1.2-.2.2-.3h0Z"/>
        <path class="cls-33" d="M117.6,114.4q.1-.1.2-.2c0,.1-.1.1-.2.2q.1,0,0,0Z"/>
        <path class="cls-81" d="M107.2,119.6c-.1-.1-.1-.2-.2-.2,0,0,.1.1.2.2Z"/>
        <path class="cls-73" d="M117.2,114.5c0,.1,0,.2-.2.2q.1-.1.2-.2Z"/>
        <path class="cls-81" d="M108,120.7l-.1-.1v-.2c0,.2.1.2.1.3h0Z"/>
        <path class="cls-61" d="M117.3,111.9c-.1.1-.2.2-.2.2,0,0,.1-.1.2-.2Z"/>
        <path class="cls-25" d="M120,111.2h0q0-.1.1-.2h0c0,.1,0,.2-.1.2h0Z"/>
        <path class="cls-81" d="M107,119.3q-.1-.1-.2-.2c0,.1.1.1.2.2Z"/>
        <path class="cls-15" d="M112.6,121.5c0-.1.1-.1.1-.2q0,.1-.1.2Z"/>
        <path class="cls-73" d="M113.7,118.7c0,.1-.1.1-.1.2.1-.1.1-.2.1-.2Z"/>
        <path class="cls-44" d="M117.9,113.7h-.1q.1-.1.2-.2c-.1.1-.1.2-.1.2h0Z"/>
        <path class="cls-61" d="M116.9,112.3q-.1.1-.2.2.1-.1.2-.2Z"/>
        <path class="cls-33" d="M117.9,114.1c0-.1.1-.1.1-.1l-.1.1Z"/>
        <path class="cls-15" d="M114,119.6c0-.1.1-.1.1-.2q-.1.1-.1.2Z"/>
        <path class="cls-73" d="M116.4,115.4s-.1.1-.1.2c.1-.1.1-.2.1-.2Z"/>
        <path class="cls-73" d="M117.4,114.3l-.1.1s0-.1.1-.1Z"/>
        <path class="cls-73" d="M114,118.3l-.1.1.1-.1Z"/>
        <path class="cls-61" d="M117,112.1q-.1.1-.2.1c.1,0,.2,0,.2-.1Z"/>
        <path class="cls-81" d="M106.1,118.2l-.1-.1s.1,0,.1.1Z"/>
        <path class="cls-81" d="M106,118l-.1-.1q0,.1.1.1Z"/>
        <path class="cls-25" d="M120.4,110.6s-.1.1-.1.2h0c0-.1.1-.2.1-.2h0Z"/>
        <path class="cls-81" d="M108.2,120.7s-.1.1,0,0c-.1.1-.1,0-.1,0h.1Z"/>
        <path class="cls-81" d="M112.9,116.2l-.1.1q0-.1.1-.1Z"/>
        <path class="cls-61" d="M113.4,115.7l-.1.1c0-.1.1-.1.1-.1Z"/>
        <path class="cls-73" d="M114.1,118.2l-.1.1.1-.1Z"/>
        <path class="cls-81" d="M107.3,119.8l-.1-.1q.1,0,.1.1Z"/>
        <path class="cls-81" d="M107.2,119.7l-.1-.1q.1,0,.1.1Z"/>
        <path class="cls-15" d="M112.1,122.2l.1-.1s-.1.1-.1.1Z"/>
        <path class="cls-81" d="M106.3,118.4s-.1-.1,0,0c-.1-.1-.1,0,0,0Z"/>
        <path class="cls-73" d="M114.6,117.6l-.1.1s.1,0,.1-.1Z"/>
        <path class="cls-73" d="M117.5,114.2l-.1.1q0-.1.1-.1Z"/>
        <path class="cls-15" d="M112.7,121.3l.1-.1s0,0-.1.1Z"/>
        <path class="cls-81" d="M106.5,118.7l-.1-.1s0,0,.1.1Z"/>
        <path class="cls-73" d="M117,114.7s-.1.1,0,0c-.1.1,0,0,0,0Z"/>
        <path class="cls-81" d="M106.2,118.3l-.1-.1.1.1Z"/>
        <path class="cls-73" d="M117.6,114l-.1.1.1-.1Z"/>
        <path class="cls-81" d="M106.3,118.5l-.1-.1c.1,0,.1.1.1.1Z"/>
        <path class="cls-15" d="M113.9,119.7l.1-.1c-.1,0-.1.1-.1.1Z"/>
        <path class="cls-81" d="M106.8,119.1l-.1-.1s.1,0,.1.1Z"/>
        <path class="cls-15" d="M117.6,114.4s.1,0,0,0c.1,0,.1.1,0,0,0,.1,0,0,0,0Z"/>
        <path class="cls-61" d="M118,111.2s-.1.1,0,0c-.1.1,0,0,0,0Z"/>
        <path class="cls-73" d="M110.1,123s-.1.1,0,0c-.1.1-.1,0,0,0Z"/>
        <path class="cls-32" d="M106.5,119.3c-.1,0-.1.1-.2.1q-.1-.1-.2-.2h-.2s0,.1.1.1.2.1.2.2v.4h.1q.1-.1.2-.1t.2.2c.1.2.3.4.5.5l.1.1-.1.1c-.1,0-.2.1-.3.1.1.1.2.1.3.1q0,.1-.1.2c.2.2.3.2.5.1.2-.1.5-.2.7-.3.1-.1.3,0,.4,0,.1-.3.2-.5.5-.7.1-.1.2-.2.2-.3,0,0,.1-.1.2-.1.3-.1.5-.3.6-.6.1-.1.1-.3.3-.3.1,0,.2-.1.3-.2.1-.2.2-.4.4-.4l.1-.1c.1-.2.3-.4.5-.6l.1-.1q.1-.1.2-.2c.1-.1.3-.2.3-.3l.1-.1c.3,0,.4-.3.6-.5.1-.1.2-.1.2-.2q.1-.1.1-.2c0-.1.1-.1.1-.1q.2-.1.1-.2c.1-.1.2-.1.2-.2,0,0,.1.1.2.1v.2h0c-.1,0-.1.1-.1.1l.1.1c.1,0,.2,0,.2-.1.1-.1.2-.2.2-.3q.3.2.4-.1s.1-.1.2-.1c0,.1-.1.3-.2.3h-.1c-.1.1-.2.2-.3.3h-.1v.3c-.2.2-.4.4-.5.6,0,.1-.1.1-.1.1l-.1.1c0,.3-.4.3-.4.6-.2,0-.2.2-.2.3,0,0-.1.1-.2.1h-.2c.1.3-.2.4-.3.6s-.4.4-.6.6l-.1.1c0,.2-.1.4-.3.4-.1,0-.1.1-.1.1-.1.1-.3.3-.4.5v.1c0,.2-.2.4-.4.5-.1,0-.1.1-.1.2-.1.2-.2.4-.4.6-.1.1-.2.2-.3.3-.1.1-.2.2-.2.3-.1.1-.2.3-.3.3s-.1.1-.1.2c-.1.1-.1.2-.2.3s-.2.2-.2.2c-.2-.1-.4,0-.6-.2-.1-.2-.3-.3-.3-.6,0-.1-.2-.2-.3-.4l-.3-.6c-.1-.1-.1-.2-.2-.3-.2-.1-.4-.2-.4-.5v-.1c-.3-.1-.2-.4-.4-.6-.1-.1-.2-.2-.3-.3l-.1-.1c-.1-.1-.2-.3-.2-.4-.1-.2-.3-.4-.4-.6q-.1-.1-.2-.2c-.2-.1-.3-.4-.2-.6l.1-.1c.4-.1.8,0,1.2.1.1,0,.2.2.2.3.1.1.1.2.2.2.1.3.3.5.6.6l-.5.3h0Z"/>
        <path class="cls-48" d="M114.9,115.7c-.1,0-.1.1-.2.1-.2.2-.1.2-.4.1-.1.1-.2.2-.2.3-.1,0-.1.1-.2.1l-.1-.1c0-.1.1-.1.1-.1h0v-.2h.1c.1,0,.2,0,.2-.1s.1-.2.2-.3c0-.1.1-.1.1-.2l.1-.1q.1-.1.2-.2c.1,0,.1-.1.2-.1s.2,0,.2-.1c.1-.1.1-.2.2-.3l.5-.5c.2-.2.4-.4.6-.6.2.1.2,0,.2-.2s.2-.1.3-.2c.1-.3.2-.5.5-.6.1-.2.2-.3.3-.5.2.1.3.1.2-.1,0-.1,0-.2.1-.2q.3-.2.3-.5c.2-.1.4-.1.4-.3h.5c.2,0,.3.1.2.3,0,.1-.1.2-.2.3s-.2.3-.3.4c-.2.2-.3.4-.6.5,0,0-.1,0-.1.1-.1.2-.3.4-.6.6-.1.1-.3.2-.2.3,0,.1-.1.1-.1.2q-.1-.1-.2-.1c-.1.2-.2.4-.3.5l-.1.1c-.1,0-.1.1-.2.1,0,0-.1,0-.1.1-.1.1-.2.2-.3.3l-.1.1c-.1.1-.1.2-.2.2-.1.1-.2.2-.1.3v.1c-.1.1-.3.1-.4.2-.1.1-.3.1-.2.3l-.1.1c0-.3,0-.2-.2-.1h0Z"/>
        <path class="cls-32" d="M115.8,114.8c-.1-.1,0-.2.1-.3.1,0,.1-.1.2-.2l.1-.1c.1-.1.2-.2.3-.3,0,0,.1,0,.1-.1-.1.1-.1.2-.2.3s-.2.2-.3.4l-.1.1c0,.1-.1.1-.2.2h0Z"/>
        <path class="cls-32" d="M115,115.6l.1-.1.1-.1c-.1-.2.1-.2.2-.3s.3-.2.4-.2c-.2.2-.4.4-.6.7,0,0-.1,0-.2,0h0Z"/>
        <path class="cls-49" d="M106.5,119.2c-.3-.1-.5-.3-.6-.6.1.1.2.1.3.2.1.2.1.3.3.4,0-.1,0,0,0,0h0Z"/>
        <path class="cls-32" d="M114.6,115.1c0,.1-.1.1-.1.2-.1.1-.2.2-.2.3s-.1.1-.2.1c0-.1,0-.2.2-.3.1-.1.2-.3.3-.3h0Z"/>
        <path class="cls-32" d="M114.9,114.7q-.1.1-.2.2l.2-.2Z"/>
        <path class="cls-32" d="M115.2,114.5c0,.1-.1.2-.2.1q.1,0,.2-.1Z"/>
        <path class="cls-41" d="M103.6,127.9c0-.2,0-.3.2-.3.1,0,.2.1.2.2,0,.2-.1.2-.2.2-.1,0-.1-.1-.2-.1Z"/>
        <path class="cls-36" d="M100.8,127.9q0,.1-.2.1c-.2,0-.3-.1-.2-.2,0-.1.1-.2.2-.2.2,0,.2.1.2.3h0Z"/>
        <path class="cls-36" d="M106.4,127.9c-.1,0-.1.1-.2.1-.2,0-.3-.1-.3-.2s.1-.2.2-.2c.3,0,.2.1.3.3h0Z"/>
        <path class="cls-41" d="M107,127.8c0-.1,0-.2.2-.2s.2.2.2.3-.1.1-.2.2c-.2-.1-.2-.2-.2-.3h0Z"/>
        <path class="cls-41" d="M108.6,127.6c.3,0,.4,0,.4.2,0,.1-.1.2-.2.2-.3-.1-.2-.3-.2-.4h0Z"/>
        <path class="cls-41" d="M97.3,127.4c.1.1.1.2.2.3q0,.1.1.2h-.7c0-.1,0-.2.1-.4h.2c-.1.1.1.2.1-.1-.1,0,0,0,0,0h0Z"/>
        <path class="cls-36" d="M98.1,128c0-.2-.1-.4.1-.5h.2c0,.1.1.2,0,.3,0,.2-.1.2-.3.2h0Z"/>
        <path class="cls-36" d="M102.6,129.6c0-.1,0-.3.1-.3h.4l.1.2c-.2.1-.4.1-.6.1h0Z"/>
        <path class="cls-36" d="M98.6,129.7c0,.3-.1.4-.3.4s-.4-.2-.3-.5c0-.2.1-.3.3-.3.2,0,.3.1.3.4h0Z"/>
        <path class="cls-41" d="M106.4,129.4c.1.2.1.3.2.5h-.4c.1-.2.1-.3.2-.5Z"/>
        <path class="cls-41" d="M94.8,127.8c-.1.1-.2.2-.3.2-.2,0-.2-.1-.2-.2s.1-.2.2-.2.2.1.3.2h0Z"/>
        <path class="cls-41" d="M95.7,127.8q-.1.1-.2.2c-.2,0-.2-.1-.2-.2s0-.2.2-.2c.1,0,.2.1.2.2Z"/>
      </g>
      <path class="cls-6" d="M114,119.5v11.4c0,1.1-.9,2-2,2h-18.9c-1.1,0-2-.9-2-2v-18c0-1.1.9-2,2-2h18.9c1.1,0,2,.9,2,2v1.9h.1v-1.8c0-1.2-.9-2.1-2.1-2.1h-18.9c-1.2,0-2.1.9-2.1,2.1v18c0,1.2.9,2.1,2.1,2.1h18.9c1.2,0,2.1-.9,2.1-2.1v-11.3q0-.1-.1-.2h0Z"/>
      <g>
        <path class="cls-80" d="M469.49,137.43V38.81h98.75v98.61h-98.75ZM516.83,88.31c-1.14-.66-1.61-1.66-1.46-2.97-.52,1.52.06,3.01,1.36,3.56.79.42,1.6.43,2.41.08,1.61-.64,2.47-2.73,2.03-4.25-.34-1.16-.78-2.3-1.17-3.44-.09-.99-.18-1.97-.27-3.03-.26,1.17-.22,2.26.17,3.34.22.87.43,1.73.65,2.6.46,1.82-.04,3.09-1.61,4.1-.7.25-1.4.27-2.1,0ZM516.93,96.7c.24.2.47.41.71.6.09.07.21.16.3.15.28-.03.55-.11.82-.17-.19-.91-.68-1.28-1.84-1.45-.52.06-1.03.12-1.55.17-.9.32-1.52,1.25-1.53,2.33,0,1.25.54,2.15,1.53,2.51.55.06,1.09.12,1.64.18.51-.16,1.02-.31,1.51-.51.14-.05.31-.23.32-.37.03-.62.02-1.24.02-1.87h-2.3v.83h1.14q.12.66-.7,1.03c-.54.09-1.06.04-1.52-.3-.74-.98-.7-2.1.11-2.93.44-.07.88-.14,1.33-.21ZM524.16,94.37c1.39.29,2.78.42,4.18.36l.02-.2c-1.4-.37-2.8-.73-4.2-1.1-.53-.16-1.07-.31-1.65-.49.16-.17.32-.29.42-.45.43-.67.85-1.34,1.25-2.03.05-.09-.05-.28-.08-.42-.14.08-.33.12-.41.24-.56.79-1.11,1.6-1.66,2.41-.95.73-1.89,1.47-2.9,2.25h4.84s.01-.07.02-.11c-.97-.17-1.94-.34-2.93-.52.23-.47.57-.54.98-.43.71.16,1.41.31,2.12.47ZM521.09,100.13c-.73-.33-.87-.98-.88-1.67-.01-.72.13-1.38.87-1.72.49-.08.96-.09,1.33.32.45.5.62.53,1.37.12-.21-.3-.38-.63-.64-.86-.59-.53-1.32-.61-2.07-.46-1.11.17-1.84.93-1.98,2.2-.15,1.26.4,2.77,1.98,2.96.92.12,1.76,0,2.35-.83.44-.63.39-.78-.35-.98-.1-.03-.21-.05-.31-.07-.55,1.02-.73,1.13-1.67,1ZM526.29,95.91c-.39,0-.78,0-1.17,0h-1.32v.88h1.32v3.96h1.25v-3.95h1.33v-.88h-1.42ZM521.27,87.84c-.15.16-.3.31-.44.48-1.05,1.23-2.37,1.59-3.9,1.18-1.44-.39-2.22-1.4-2.46-2.83-.07-.4-.01-.82-.01-1.35-.09.24-.16.37-.19.51-.41,2.01.63,4.02,2.61,4.59,1.29.38,2.51.06,3.68-.47.13-.06.27-.21.3-.35.15-.58.27-1.18.4-1.77.01-.02.03-.04.04-.06-.01.02-.02.04-.03.07ZM515.67,78.21s-.04-.02-.06-.02c.02,0,.05,0,.07.01.17.31.34.62.52.95-.37.34-.31.7.11,1.08-.39.23-.72.43-.96.58.2.45.45.84.55,1.28.15.66.19.7.8.41.2-.1.47-.06.71-.09,0,.26.06.52.01.77-.04.17-.2.32-.33.46-.25.27-.53.51-.77.79-.58.68-.7,1.71-.28,2.48.42.77,1.09,1.1,1.96,1.02.97-.06,1.64-.57,2.04-1.43.57-1.2.17-2.32-.29-3.5-.14.26-.25.44-.36.63-.11.2-.23.39-.35.58.22.06.44.11.66.17.03,0,.05.03.08.05.29,1.59-.47,2.8-1.88,3.02-.73-.04-1.25-.37-1.51-1.07-.26-.72-.11-1.35.45-1.89.22-.21.47-.41.63-.66.21-.31.4-.66.49-1.02.05-.22-.04-.62-.21-.72-.22-.13-.57-.08-.85-.06-.14,0-.28.12-.4.19-.21-.45-.4-.85-.58-1.26.39-.34.8-.68,1.41-.46.05.02.14,0,.19-.02.27-.22.54-.46.81-.69-.22-.2-.42-.46-.67-.6-.64-.36-1.31-.66-1.97-.98ZM510.75,98.75c.4.46.84.9,1.21,1.39.58.76.79.86,1.82.61-.55-.74-1.08-1.46-1.62-2.19.06-.02.13-.03.21-.06.69-.24,1.05-.77.98-1.47-.07-.69-.45-1.12-1.2-1.22-.46-.06-.92-.05-1.39-.07h-1.78v5.06h1.08v-2.06h.69ZM514.71,94.67c1.27-.6,2.53-1.2,3.8-1.8,1.46-.8,2.79-1.75,3.91-3.07-.51-.11-.89.02-1.25.3-.7.54-1.4,1.07-2.12,1.57-.18.12-.43.13-.65.19-1.34-.32-2.41-1.07-3.24-1.99-.27.08-.45.17-.63.18-.58.03-1.15.02-1.73.03-.35.06-.75-.41-1.04,0-.22.32-.33.72-.46,1.09-.04.11-.03.27.02.38.28.59.55,1.18.87,1.74.22.37.54.69.86,1.1-.95.32-1.81.61-2.75.93,1.63.33,3.06.06,4.43-.65ZM505.47,90.46c.16.63.29,1.27.47,1.9.31,1.08.75,2.1,1.38,3.08.25-.16.46-.29.67-.42-3.72-6.5-1.07-13.32,3.21-16.54,4.55-3.42,10.88-3.36,15.36.11,4.28,3.32,6.78,10.21,2.94,16.61.21.13.43.26.67.4.1-.16.2-.29.27-.42,1.49-2.61,2.07-5.41,1.68-8.38-.81-6.21-5.75-11-12-11.66-6.47-.68-12.67,3.6-14.31,9.9-.14.52-.26,1.05-.38,1.57h-5.95v-2.94h2.98v-2.99h2.94v-3.09h-2.92v-2.88h11.92v-2.98h8.97v-2.99h3v-11.91h2.9v8.95h2.95v2.89h-2.98v2.99h-2.94v3.03h3.08v-2.97h2.96v-2.98h3v-2.99h2.95v-3.03h-3.08v2.92h-2.84v-5.87h2.99v-5.98h2.94v-3.05h-2.95v-2.9h2.94v-3.04h-3.07v2.93h-2.9v-2.93h-6.08v2.92h-2.9v-2.92h-3.09v2.98h-2.94v3.05h11.92v2.89h-14.93v2.96h-2.87v-5.86h2.94v-3.09h-2.98v-2.95h-6.08v2.93h-2.9v-2.93h-3.03v9h3.05v-2.95h5.87v2.87h-2.97v2.99h-2.99v2.99h-2.99v11.92h-2.9v-2.94h-3.09v2.94h-2.9v-2.93h-9.07v5.96h-2.94v3.08h2.93v2.89h-2.98v2.99h-2.93v3.03h3.05v-2.94h2.9v2.97h5.95v5.85h-2.88v-2.94h-3.09v2.94h-2.9v-2.93h-3.04v17.95h3.08v-8.89h2.9v8.9h6.05v-2.94h2.9v2.94h6.08v-2.93h2.9v5.96h5.94v5.88h-5.92v9.06h5.97v5.91h6.03v-6.03h-5.94v-5.88h2.98v-5.98h3v-2.99h3v-5.92h2.9v8.95h2.93v5.82h-2.89v-2.92h-3.09v2.98h-2.94v3.02h3.07v-2.94h2.87v5.86h-2.94v3.04h6.07v-8.95h3v-11.89h2.9v2.98h2.99v2.97h2.96v2.97h2.97v2.89h-2.97v2.99h-2.96v3.08h5.93v2.89h-2.94v3.04h3.08v-2.92h2.9v2.92h3.07v-5.92h5.87v5.93h9.07v-2.98h2.95v-6.07h-2.93v-5.83h2.89v2.92h3.04v-3.04h-2.97v-2.96h-3.09v2.94h-2.9v-2.97h-2.96v-2.9h2.98v-2.95h2.9v2.93h6.02v-3.08h-5.91v-2.88h5.92v-3.07h-5.93v-2.9h5.93v-6.07h-8.96v-2.99h-5.93v-2.9h5.97v-2.93h2.9v2.94h6.02v-6.05h-2.98v-2.99h-2.96v-5.85h2.88v2.93h3.04v-6h-9.06v2.92h-5.89v-2.92h-9.05v5.94h-2.97v2.99h-2.97v9.06h2.98v2.99h2.99v2.95h3.09v-2.93h5.84v2.88h-2.93v3.08h2.92v2.89h-5.97v5.91h-2.9v-2.92h-3.07v2.95h-2.97v2.97h-5.89v-2.97h-2.99v-2.96h-9.07v2.97h-2.99v2.95h-8.84v-5.83h2.88v2.93h3.04v-3.07h-2.99v-2.99h-2.99v-2.97h-2.92v-2.9h5.96v-2.18ZM475.47,65.65h20.89v-20.85h-20.89v20.85ZM562.13,65.67v-20.86h-20.87v20.86h20.87ZM475.49,110.48v20.86h20.87v-20.86h-20.87ZM523.33,125.42v6.01h6.02v-3.06h-3v-2.95h-3.02ZM532.29,95.56v3.04h6.01v-3.04h-6.01ZM520.85,76.79s-.06-.03-.09-.04c-.07.13-.17.25-.2.39-.13.56-.3,1.12-.33,1.69-.06,1.25.39,2.4.83,3.53.61,1.56.9,3.14.58,4.8-.14.73-.3,1.46-.46,2.25.11-.08.16-.11.2-.15,1.15-1.24,1.66-2.71,1.24-4.34-.31-1.21-.85-2.38-1.35-3.54-.46-1.07-.9-2.13-.69-3.34.07-.42.17-.84.26-1.25ZM519.57,93.82c-.32-.32-.58-.34-.99-.15-.85.4-1.75.69-2.63,1.02-.13.05-.27.09-.52.18,1.68.47,2.89-.3,4.14-1.05ZM519.35,93.29c.37.06.69.22.89.12.71-.36,1.32-.87,1.82-1.52-.39-.29-.69-.31-1.04.02-.49.46-1.03.85-1.67,1.38ZM523.21,90.23c-.9-.09-.97.79-1.57,1.11.91.27,1.4-.1,1.57-1.11Z"/>
        <path class="cls-46" d="M505.47,90.46v2.18h-5.96v2.9h2.92v2.97h2.99v2.99h2.99v3.07h-3.04v-2.93h-2.88v5.83h8.84v-2.95h2.99v-2.97h9.07v2.96h2.99v2.97h5.89v-2.97h2.97v-2.95h3.07v2.92h2.9v-5.91h5.97v-2.89h-2.92v-3.08h2.93v-2.88h-5.84v2.93h-3.09v-2.95h-2.99v-2.99h-2.98v-9.06h2.97v-2.99h2.97v-5.94h9.05v2.92h5.89v-2.92h9.06v6h-3.04v-2.93h-2.88v5.85h2.96v2.99h2.98v6.05h-6.02v-2.94h-2.9v2.93h-5.97v2.9h5.93v2.99h8.96v6.07h-5.93v2.9h5.93v3.07h-5.92v2.88h5.91v3.08h-6.02v-2.93h-2.9v2.95h-2.98v2.9h2.96v2.97h2.9v-2.94h3.09v2.96h2.97v3.04h-3.04v-2.92h-2.89v5.83h2.93v6.07h-2.95v2.98h-9.07v-5.93h-5.87v5.92h-3.07v-2.92h-2.9v2.92h-3.08v-3.04h2.94v-2.89h-5.93v-3.08h2.96v-2.99h2.97v-2.89h-2.97v-2.97h-2.96v-2.97h-2.99v-2.98h-2.9v11.89h-3v8.95h-6.07v-3.04h2.94v-5.86h-2.87v2.94h-3.07v-3.02h2.94v-2.98h3.09v2.92h2.89v-5.82h-2.93v-8.95h-2.9v5.92h-3v2.99h-3v5.98h-2.98v5.88h5.94v6.03h-6.03v-5.91h-5.97v-9.06h5.92v-5.88h-5.94v-5.96h-2.9v2.93h-6.08v-2.94h-2.9v2.94h-6.05v-8.9h-2.9v8.89h-3.08v-17.95h3.04v2.93h2.9v-2.94h3.09v2.94h2.88v-5.85h-5.95v-2.97h-2.9v2.94h-3.05v-3.03h2.93v-2.99h2.98v-2.89h-2.93v-3.08h2.94v-5.96h9.07v2.93h2.9v-2.94h3.09v2.94h2.9v-11.92h2.99v-2.99h2.99v-2.99h2.97v-2.87h-5.87v2.95h-3.05v-9h3.03v2.93h2.9v-2.93h6.08v2.95h2.98v3.09h-2.94v5.86h2.87v-2.96h14.93v-2.89h-11.92v-3.05h2.94v-2.98h3.09v2.92h2.9v-2.92h6.08v2.93h2.9v-2.93h3.07v3.04h-2.94v2.9h2.95v3.05h-2.94v5.98h-2.99v5.87h2.84v-2.92h3.08v3.03h-2.95v2.99h-3v2.98h-2.96v2.97h-3.08v-3.03h2.94v-2.99h2.98v-2.89h-2.95v-8.95h-2.9v11.91h-3v2.99h-8.97v2.98h-11.92v2.88h2.92v3.09h-2.94v2.99h-2.98v2.94c1.98,0,3.96,0,5.95,0,0,1.28.01,2.56.02,3.84ZM538.35,116.42h8.83v-8.82h-8.83v8.82ZM493.4,92.68h-5.86v2.88h2.98v2.99h5.98v2.94h5.84v-2.88h-2.98v-2.99h-5.96v-2.94ZM523.27,59.72v-2.88h-5.87v2.97h-2.96v8.83h2.88v-5.96h2.99v-2.97h2.96ZM550.2,77.7h-3.01v-2.94h-2.85v5.87h2.98v2.94h5.84v-2.88h-2.96v-2.99ZM553.2,104.47h2.94v-2.83h-11.8v2.89h5.98v2.93h2.88v-2.98ZM496.36,80.6v-2.85h-11.81v2.85h11.81ZM484.55,98.64v5.84h2.84v-5.84h-2.84ZM490.53,101.63v2.85h5.83v-2.85h-5.83ZM556.15,128.38v-2.86h-5.83v2.86h5.83ZM508.46,59.81v5.85h2.84v-5.85h-2.84ZM529.39,47.88v2.85h2.85v-2.85h-2.85ZM529.39,56.69h2.85v-2.84h-2.85v2.84ZM502.47,65.66h2.86v-2.83h-2.86v2.83ZM523.28,62.81h-2.86v2.83h2.86v-2.83ZM505.46,68.64h2.86v-2.83h-2.86v2.83ZM511.31,71.65v-2.85h-2.84v2.85h2.84ZM490.4,71.77h-2.86v2.83h2.86v-2.83ZM493.5,74.61h2.86v-2.83h-2.86v2.83ZM499.48,74.61h2.86v-2.83h-2.86v2.83ZM550.3,77.6h2.86v-2.84h-2.86v2.84ZM553.3,80.59h2.86v-2.83h-2.86v2.83ZM547.2,83.72h-2.86v2.83h2.86v-2.83ZM550.19,119.55h-2.86v2.83h2.86v-2.83ZM544.21,119.55h-2.87v2.84h2.87v-2.84ZM481.56,80.72v2.86h2.84v-2.86h-2.84ZM499.37,80.73h-2.85v2.84h2.85v-2.84ZM544.2,83.59v-2.85h-2.84v2.85h2.84ZM496.49,89.55h2.87v-2.84h-2.87v2.84ZM496.35,86.57v-2.85h-2.84v2.85h2.84ZM493.51,89.67v2.85h2.84v-2.85h-2.84ZM511.31,50.74v-2.86h-2.84v2.86h2.84ZM553.17,95.67h-2.85v2.84h2.85v-2.84ZM550.19,92.67h-2.87v2.84h2.87v-2.84ZM481.56,95.65v2.85h2.85v-2.85h-2.85Z"/>
        <path class="cls-6" d="M475.47,65.65v-20.85h20.89v20.85h-20.89ZM493.39,47.79h-14.91v14.88h14.91v-14.88Z"/>
        <path class="cls-6" d="M562.13,65.67h-20.87v-20.86h20.87v20.86ZM544.25,47.78v14.89h14.89v-14.89h-14.89Z"/>
        <path class="cls-6" d="M475.49,110.48h20.87v20.86h-20.87v-20.86ZM478.48,113.47v14.88h14.88v-14.88h-14.88Z"/>
        <path class="cls-29" d="M505.47,90.46c0-1.28-.01-2.56-.02-3.84.13-.52.25-1.05.38-1.57,1.64-6.3,7.84-10.58,14.31-9.9,6.25.66,11.19,5.45,12,11.66.39,2.97-.2,5.78-1.68,8.38-.08.14-.17.26-.27.42-.24-.15-.46-.28-.67-.4,3.83-6.4,1.34-13.29-2.94-16.61-4.48-3.47-10.81-3.53-15.36-.11-4.29,3.21-6.94,10.03-3.21,16.54-.21.13-.42.26-.67.42-.63-.98-1.07-2-1.38-3.08-.18-.63-.32-1.27-.47-1.9Z"/>
        <path class="cls-46" d="M523.33,125.42h3.02v2.95h3v3.06h-6.02v-6.01Z"/>
        <path class="cls-46" d="M532.29,95.56h6.01v3.04h-6.01v-3.04Z"/>
        <path class="cls-2" d="M518.51,92.87c-1.27.6-2.53,1.2-3.8,1.8-.09-.24-.18-.47-.27-.71,1.03-.44,2.11-.77,3.02-1.44-1.01.36-2.02.72-3.02,1.08l-.02-.16c.9-.3,1.81-.58,2.55-1.23-.88.28-1.76.57-2.65.85l-.02-.16c.75-.22,1.5-.45,2.14-.98-.21-.06-.4-.05-.58,0-.77.23-1.54.47-2.31.7,0-.06,0-.11,0-.17.82-.19,1.66-.34,2.39-.86-.07-.08-.11-.16-.13-.15-.75.2-1.49.4-2.24.6,0-.08-.01-.16-.02-.23.65-.18,1.29-.35,1.94-.53-.01-.05-.03-.11-.04-.16-.79.12-1.58.24-2.38.36,0-.08,0-.15,0-.23.71-.12,1.46-.06,2.11-.44,0-.05-.01-.11-.02-.16-.6.05-1.2.09-1.8.14,0-.08,0-.15,0-.23.5-.04,1-.07,1.5-.11,0-.06,0-.12,0-.17-.23,0-.46,0-.69,0-.46,0-.92-.01-1.37-.02,0-.06,0-.12,0-.18.58,0,1.15,0,1.73-.03.18,0,.36-.1.63-.18.83.92,1.9,1.68,3.24,1.99-.15.36-.22.71.12,1.01Z"/>
        <path class="cls-28" d="M520.85,76.79c-.09.42-.19.83-.26,1.25-.21,1.2.23,2.26.69,3.34.5,1.16,1.04,2.32,1.35,3.54.41,1.63-.09,3.11-1.24,4.34-.04.04-.1.07-.2.15.16-.79.32-1.52.46-2.25.31-1.66.03-3.25-.58-4.8-.45-1.13-.89-2.29-.83-3.53.03-.57.21-1.13.33-1.69.03-.14.13-.26.2-.39.03.01.06.03.09.04Z"/>
        <path class="cls-72" d="M510.76,95.75c.46.02.93,0,1.39.07.74.1,1.13.53,1.2,1.22.07.69-.29,1.22-.98,1.47-.07.03-.15.04-.21.06.54.73,1.07,1.45,1.62,2.19-1.02.25-1.24.15-1.82-.61-.37-.49-.8-.93-1.21-1.39,0-.29,0-.58.01-.86.27,0,.54-.02.81-.03.41,0,.63-.2.63-.61,0-.41-.24-.61-.63-.63-.27-.02-.54-.02-.81-.02,0-.28,0-.56,0-.84Z"/>
        <path class="cls-68" d="M512.78,90.07c0,.06,0,.12,0,.18-.29,0-.59,0-.88,0,0,.06,0,.13,0,.19.49.04.98.07,1.46.11,0,.08,0,.15,0,.23-.4.01-.79.01-1.19.05-.13.01-.25.1-.37.16.12.08.24.2.37.22.3.04.6.03.9.04,0,.08,0,.15,0,.23-.41,0-.82,0-1.23,0-.02.06-.04.12-.06.18.13.07.26.19.4.19.46.01.92-.02,1.38-.03,0,.08.01.16.02.23-.51.03-1.02.05-1.54.08-.02.05-.03.1-.05.14.13.06.25.17.38.18.4.02.79,0,1.19,0,0,.06,0,.11,0,.17-.39.03-.79.06-1.18.1,0,.06-.01.12-.02.18.18.04.36.13.54.12.47-.02.95-.08,1.42-.13,0,.05.01.11.02.16-.48.08-.96.16-1.43.24-.01.04-.02.09-.03.13.22.05.44.15.66.15.3,0,.6-.09.9-.14,0,.05.02.11.02.16-.27.07-.55.13-.85.21.27.38.56.22.85.15.09.24.18.47.27.71-1.37.7-2.8.98-4.43.65.94-.32,1.8-.61,2.75-.93-.32-.41-.64-.73-.86-1.1-.33-.56-.6-1.15-.87-1.74-.05-.11-.06-.27-.02-.38.13-.37.24-.77.46-1.09.3-.42.69.05,1.04,0Z"/>
        <path class="cls-18" d="M517.99,87.93c-.87.07-1.54-.26-1.96-1.02-.42-.77-.3-1.8.28-2.48.24-.28.52-.52.77-.79.13-.14.3-.29.33-.46.05-.24,0-.51-.01-.77-.24.03-.51-.01-.71.09-.6.29-.65.25-.8-.41-.09-.43-.35-.83-.55-1.28.24-.14.57-.34.96-.58-.42-.38-.48-.74-.11-1.08-.18-.33-.35-.64-.52-.95h0c.66.33,1.33.64,1.97.99.26.14.45.4.67.6-.27.23-.53.47-.81.69-.04.03-.13.04-.19.02-.61-.22-1.02.13-1.41.46.19.4.38.81.58,1.26.13-.06.26-.18.4-.19.29-.02.64-.08.85.06.16.1.26.5.21.72-.08.36-.28.71-.49,1.02-.16.25-.41.45-.63.66-.55.54-.71,1.17-.45,1.89.25.7.78,1.03,1.51,1.07.03.16.06.31.1.47ZM516.87,80.18c.13.01.25.06.34.02.24-.1.46-.24.68-.37-.18-.15-.34-.32-.53-.44-.12-.08-.29-.1-.49-.16v.95Z"/>
        <path class="cls-57" d="M521.26,87.83c-.13.59-.25,1.18-.4,1.77-.04.14-.17.29-.3.35-1.18.53-2.4.84-3.68.47-1.98-.58-3.02-2.59-2.61-4.59.03-.14.1-.26.19-.51,0,.53-.06.96.01,1.35.24,1.43,1.02,2.45,2.46,2.83,1.53.41,2.85.05,3.9-1.18.14-.17.29-.32.44-.48h0Z"/>
        <path class="cls-74" d="M510.76,97.88c0,.29,0,.58-.01.86-.21,0-.41,0-.69,0v2.06h-1.08v-5.06h1.78c0,.28,0,.56,0,.84-.22.01-.44.03-.66.04v1.2c.24.02.45.03.66.04Z"/>
        <path class="cls-52" d="M526.38,96.8v3.95h-1.25v-3.96c0-.29,0-.59,0-.88.39,0,.78,0,1.17,0,.03.29.06.59.09.88Z"/>
        <path class="cls-53" d="M521.09,96.73c-.74.35-.89,1.01-.87,1.72.01.69.14,1.35.88,1.67,0,.3,0,.59-.01.89-1.58-.19-2.13-1.71-1.98-2.96.15-1.27.87-2.03,1.98-2.2,0,.29,0,.59,0,.88Z"/>
        <path class="cls-22" d="M515.39,100.84c-.99-.36-1.54-1.26-1.53-2.51,0-1.07.62-2.01,1.53-2.33.08.3-.17.68.22.9-.81.83-.85,1.95-.11,2.93-.04.33-.07.67-.11,1Z"/>
        <path class="cls-79" d="M520,81.29c.39,1.15.83,2.28,1.17,3.44.45,1.52-.42,3.61-2.03,4.25-.07-.23-.14-.45-.21-.68,1.58-1.01,2.07-2.28,1.61-4.1-.22-.87-.43-1.73-.65-2.6.03-.11.07-.21.1-.32Z"/>
        <path class="cls-63" d="M517.01,100.13q.82-.37.7-1.03h-1.14v-.83h2.3c0,.64.02,1.26-.02,1.87,0,.13-.18.31-.32.37-.5.19-1.01.34-1.51.51,0-.3,0-.59-.01-.89Z"/>
        <path class="cls-77" d="M522.03,92.71c.55-.8,1.09-1.61,1.66-2.41.08-.12.27-.16.41-.24.03.14.13.32.08.42-.4.69-.82,1.36-1.25,2.03-.1.15-.25.27-.42.45.59.17,1.12.33,1.65.49v.94l-2.12-.47c0-.4,0-.8-.01-1.19Z"/>
        <path class="cls-63" d="M518.51,92.87c-.34-.3-.27-.65-.12-1.01.22-.06.48-.06.65-.19.72-.5,1.42-1.03,2.12-1.57.36-.28.74-.4,1.25-.3-1.12,1.31-2.45,2.27-3.91,3.07Z"/>
        <path class="cls-70" d="M522.03,92.71c0,.4,0,.8.01,1.19-.41-.11-.75-.04-.98.43.98.17,1.96.35,2.93.52,0,.04-.01.07-.02.11h-4.84c1.01-.78,1.96-1.52,2.9-2.25Z"/>
        <path class="cls-79" d="M517.99,87.93c-.03-.16-.06-.31-.1-.47,1.42-.22,2.17-1.44,1.88-3.02-.02-.02-.05-.04-.08-.05-.22-.06-.44-.11-.66-.17.12-.19.24-.39.35-.58.11-.19.21-.38.36-.63.45,1.18.86,2.3.29,3.5-.41.86-1.07,1.37-2.04,1.43Z"/>
        <path class="cls-34" d="M524.16,94.37v-.94c1.4.37,2.8.73,4.2,1.1l-.02.2c-1.4.06-2.8-.07-4.18-.36Z"/>
        <path class="cls-10" d="M521.08,101.01c0-.3,0-.59.01-.89.95.12,1.13.02,1.67-1,.1.02.2.05.31.07.74.2.8.36.35.98-.59.83-1.42.95-2.35.83Z"/>
        <path class="cls-10" d="M521.09,96.73c0-.29,0-.59,0-.88.76-.15,1.48-.07,2.07.46.26.23.42.57.64.86-.75.41-.92.38-1.37-.12-.37-.41-.85-.4-1.33-.32Z"/>
        <path class="cls-13" d="M519.57,93.82c-1.25.74-2.45,1.52-4.14,1.05.25-.08.39-.12.52-.18.88-.33,1.78-.63,2.63-1.02.41-.19.67-.16.99.15Z"/>
        <path class="cls-13" d="M519.35,93.29c.64-.52,1.18-.92,1.67-1.38.35-.33.65-.31,1.04-.02-.5.65-1.11,1.16-1.82,1.52-.19.1-.52-.06-.89-.12Z"/>
        <path class="cls-63" d="M516.93,95.83c1.16.17,1.65.55,1.84,1.45-.27.06-.55.14-.82.17-.1.01-.22-.08-.3-.15-.24-.19-.48-.4-.71-.6,0-.29,0-.58,0-.87Z"/>
        <path class="cls-30" d="M518.93,88.31c.07.23.14.45.21.68-.82.35-1.62.34-2.41-.08.03-.2.07-.4.1-.59.7.26,1.4.24,2.1,0Z"/>
        <path class="cls-68" d="M516.83,88.31c-.03.2-.07.4-.1.59-1.29-.55-1.88-2.05-1.36-3.56-.15,1.31.32,2.31,1.46,2.97Z"/>
        <path class="cls-30" d="M516.93,95.83c0,.29,0,.58,0,.87-.44.07-.88.14-1.33.21-.39-.22-.15-.6-.22-.9.52-.06,1.03-.12,1.55-.17Z"/>
        <path class="cls-30" d="M517.01,100.13c0,.3,0,.59.01.89-.55-.06-1.09-.12-1.64-.18.04-.33.07-.67.11-1,.46.34.97.39,1.52.3Z"/>
        <path class="cls-31" d="M526.38,96.8c-.03-.29-.06-.59-.09-.88h1.42v.88h-1.33Z"/>
        <path class="cls-60" d="M525.12,95.91c0,.29,0,.59,0,.88h-1.32v-.88h1.32Z"/>
        <path class="cls-13" d="M523.21,90.23c-.17,1.02-.66,1.38-1.57,1.11.6-.33.67-1.2,1.57-1.11Z"/>
        <path class="cls-42" d="M520,81.29c-.03.11-.07.21-.1.32-.39-1.08-.44-2.17-.17-3.34.1,1.05.19,2.04.27,3.03Z"/>
        <path class="cls-57" d="M521.27,87.84s.02-.04.03-.07c-.01.02-.03.04-.04.06,0,0,0,0,0,0Z"/>
        <path class="cls-18" d="M515.68,78.2s-.05,0-.07-.01c.02,0,.04.02.06.02,0,0,0,0,0,0Z"/>
        <path class="cls-80" d="M538.35,116.42v-8.82h8.83v8.82h-8.83ZM544.3,110.5h-3.04v3.02h3.04v-3.02Z"/>
        <path class="cls-80" d="M493.4,92.68v2.94h5.96v2.99h2.98v2.88h-5.84v-2.94h-5.98v-2.99h-2.98v-2.88h5.86Z"/>
        <path class="cls-80" d="M523.27,59.72h-2.96v2.97h-2.99v5.96h-2.88v-8.83h2.96v-2.97h5.87v2.88Z"/>
        <path class="cls-80" d="M550.2,77.7v2.99h2.96v2.88h-5.84v-2.94h-2.98v-5.87h2.85v2.94h3.01Z"/>
        <path class="cls-80" d="M553.2,104.47v2.98h-2.88v-2.93h-5.98v-2.89h11.8v2.83h-2.94Z"/>
        <path class="cls-80" d="M496.36,80.6h-11.81v-2.85h11.81v2.85Z"/>
        <path class="cls-80" d="M484.55,98.64h2.84v5.84h-2.84v-5.84Z"/>
        <path class="cls-80" d="M490.53,101.63h5.83v2.85h-5.83v-2.85Z"/>
        <path class="cls-80" d="M556.15,128.38h-5.83v-2.86h5.83v2.86Z"/>
        <path class="cls-80" d="M508.46,59.81h2.84v5.85h-2.84v-5.85Z"/>
        <path class="cls-80" d="M529.39,47.88h2.85v2.85h-2.85v-2.85Z"/>
        <path class="cls-80" d="M529.39,56.69v-2.84h2.85v2.84h-2.85Z"/>
        <path class="cls-80" d="M502.47,65.66v-2.83h2.86v2.83h-2.86Z"/>
        <path class="cls-80" d="M523.28,62.81v2.83h-2.86v-2.83h2.86Z"/>
        <path class="cls-80" d="M505.46,68.64v-2.83h2.86v2.83h-2.86Z"/>
        <path class="cls-80" d="M511.31,71.65h-2.84v-2.85h2.84v2.85Z"/>
        <path class="cls-80" d="M490.4,71.77v2.83h-2.86v-2.83h2.86Z"/>
        <path class="cls-80" d="M493.5,74.61v-2.83h2.86v2.83h-2.86Z"/>
        <path class="cls-80" d="M499.48,74.61v-2.83h2.86v2.83h-2.86Z"/>
        <path class="cls-80" d="M550.3,77.6v-2.84h2.86v2.84h-2.86Z"/>
        <path class="cls-80" d="M553.3,80.59v-2.83h2.86v2.83h-2.86Z"/>
        <path class="cls-80" d="M547.2,83.72v2.83h-2.86v-2.83h2.86Z"/>
        <path class="cls-80" d="M550.19,119.55v2.83h-2.86v-2.83h2.86Z"/>
        <path class="cls-80" d="M544.21,119.55v2.84h-2.87v-2.84h2.87Z"/>
        <path class="cls-80" d="M481.56,80.72h2.84v2.86h-2.84v-2.86Z"/>
        <path class="cls-80" d="M499.37,80.73v2.84h-2.85v-2.84h2.85Z"/>
        <path class="cls-80" d="M544.2,83.59h-2.84v-2.85h2.84v2.85Z"/>
        <path class="cls-80" d="M496.49,89.55v-2.84h2.87v2.84h-2.87Z"/>
        <path class="cls-80" d="M496.35,86.57h-2.84v-2.85h2.84v2.85Z"/>
        <path class="cls-80" d="M493.51,89.67h2.84v2.85h-2.84v-2.85Z"/>
        <path class="cls-80" d="M511.31,50.74h-2.84v-2.86h2.84v2.86Z"/>
        <path class="cls-80" d="M553.17,95.67v2.84h-2.85v-2.84h2.85Z"/>
        <path class="cls-80" d="M550.19,92.67v2.84h-2.87v-2.84h2.87Z"/>
        <path class="cls-80" d="M481.56,95.65h2.85v2.85h-2.85v-2.85Z"/>
        <path class="cls-80" d="M493.39,47.79v14.88h-14.91v-14.88h14.91ZM481.45,59.68h8.93v-8.9h-8.93v8.9Z"/>
        <path class="cls-80" d="M544.25,47.78h14.89v14.89h-14.89v-14.89ZM556.17,50.78h-8.93v8.9h8.93v-8.9Z"/>
        <path class="cls-80" d="M478.48,113.47h14.88v14.88h-14.88v-14.88ZM481.47,116.46v8.92h8.91v-8.92h-8.91Z"/>
        <path class="cls-37" d="M514.31,92.9c-.47.05-.95.11-1.42.13-.18,0-.36-.08-.54-.12,0-.06.01-.12.02-.18.39-.03.79-.06,1.18-.1.77-.24,1.54-.48,2.31-.7.18-.05.37-.06.58,0-.63.53-1.38.76-2.14.98Z"/>
        <path class="cls-37" d="M513.55,92.46c-.4,0-.79.02-1.19,0-.13,0-.25-.12-.38-.18.02-.05.03-.1.05-.14.51-.03,1.02-.05,1.54-.08.75-.2,1.49-.41,2.24-.6.02,0,.06.07.13.15-.72.52-1.56.67-2.39.86Z"/>
        <path class="cls-37" d="M514.42,93.44c-.3.05-.6.14-.9.14-.22,0-.44-.09-.66-.15.01-.04.02-.09.03-.13.48-.08.96-.16,1.43-.24.88-.28,1.76-.57,2.65-.85-.75.66-1.66.93-2.55,1.23Z"/>
        <path class="cls-39" d="M513.07,91.24c-.3,0-.61,0-.9-.04-.13-.02-.25-.14-.37-.22.12-.06.24-.15.37-.16.4-.03.79-.03,1.19-.05.6-.05,1.2-.09,1.8-.14,0,.05.01.11.02.16-.65.37-1.4.32-2.11.44Z"/>
        <path class="cls-37" d="M513.55,91.81c-.46.01-.92.04-1.38.03-.13,0-.26-.12-.4-.19.02-.06.04-.12.06-.18.41,0,.82,0,1.23,0,.79-.12,1.58-.24,2.38-.36.01.05.03.11.04.16-.65.18-1.29.35-1.94.53Z"/>
        <path class="cls-12" d="M514.44,93.96c-.29.07-.58.22-.85-.15.3-.07.58-.14.85-.21,1.01-.36,2.02-.72,3.02-1.08-.92.67-2,1-3.02,1.44Z"/>
        <path class="cls-12" d="M513.36,90.55c-.49-.04-.98-.07-1.46-.11,0-.06,0-.13,0-.19.29,0,.59,0,.88,0,.46,0,.92.02,1.37.02.23,0,.46,0,.69,0,0,.06,0,.12,0,.17-.5.04-1,.07-1.5.11Z"/>
        <path class="cls-39" d="M510.76,97.88c-.21-.01-.41-.03-.66-.04v-1.2c.22-.01.44-.03.66-.04.27,0,.54,0,.81.02.39.02.63.21.63.63,0,.41-.23.61-.63.61-.27,0-.54.02-.81.03Z"/>
        <path class="cls-37" d="M516.87,80.18v-.95c.2.06.37.08.49.16.19.13.36.29.53.44-.23.12-.45.26-.68.37-.09.04-.21-.01-.34-.02Z"/>
        <path class="cls-46" d="M544.3,110.5v3.02h-3.04v-3.02h3.04Z"/>
        <path class="cls-6" d="M481.45,59.68v-8.9h8.93v8.9h-8.93Z"/>
        <path class="cls-6" d="M556.17,50.78v8.9h-8.93v-8.9h8.93Z"/>
        <path class="cls-6" d="M481.47,116.46h8.91v8.92h-8.91v-8.92Z"/>
      </g>
      <text class="cls-87" transform="translate(169 50.59)"><tspan x="0" y="0">ABEER SALEH</tspan></text>
      <text class="cls-85" transform="translate(170.81 74.12)"><tspan x="0" y="0">Sr.BD Engineer</tspan></text>
      <text class="cls-84" transform="translate(77.07 179.42)"><tspan x="0" y="0">Abu Dhabi,uae</tspan></text>
      <text class="cls-82" transform="translate(440.55 180.76)"><tspan x="0" y="0">ahmed.almushariaaa@rgcc.ae</tspan></text>
      <g>
        <path class="cls-20" d="M347.84,181.76h-.7c-.8-.1-1.6-.4-2.3-.9-1.4-1.1-1.9-2.6-1.6-4.3.4-2.3,2.7-3.8,5-3.4,1.8.3,3.3,1.8,3.5,3.6v1h0c0,.1,0,.3-.1.4-.3,1.8-1.8,3.2-3.6,3.4,0,.1-.1.1-.2.2h0ZM350.34,177.46c0-1.6-1.3-2.9-2.9-2.9s-2.9,1.3-2.9,2.9,1.3,2.9,2.9,2.9c1.6-.1,2.9-1.3,2.9-2.9Z"/>
        <path class="cls-20" d="M347.44,176.86h.7s.1,0,.1.1v1.1q0,.1-.1.1h-1.5s-.1,0-.1-.1v-1.1q0-.1.1-.1h.8Z"/>
        <path class="cls-20" d="M347.44,178.46h.7s.1,0,.1.1c-.1.3-.2.7-.3,1,0,.1-.1.2-.2.2-.1.1-.3.1-.4,0s-.2-.2-.2-.3c-.1-.3-.2-.6-.3-.9v-.1c.2,0,.4,0,.6,0h0Z"/>
        <path class="cls-20" d="M347.44,176.36h-.7s-.1,0-.1-.1c.1-.3.1-.6.3-.9,0-.1.1-.2.2-.3.2-.2.3-.2.5,0,.1.1.2.3.3.5.1.2.1.4.2.6v.1c-.2.1-.4.1-.7.1h0Z"/>
        <path class="cls-20" d="M345.64,178.06h-.5s-.1,0-.1-.1c-.1-.4-.1-.7,0-1.1,0,0,0-.1.1-.1h1s.1,0,.1.1v1.1q0,.1-.1.1h-.5Z"/>
        <path class="cls-20" d="M349.34,176.86h.5s.1,0,.1.1c.1.4.1.7,0,1.1,0,0,0,.1-.1.1h-1q-.1,0-.1-.1v-1.2c.2-.1.4-.1.6,0h0Z"/>
        <path class="cls-20" d="M348.24,175.16s.1,0,0,0c.6.2,1.1.6,1.3,1.1v.1h-.8q-.1,0-.1-.1c0-.4-.2-.8-.4-1.1h0Z"/>
        <path class="cls-20" d="M348.24,179.66c.2-.4.3-.8.4-1.1q0-.1.1-.1h.8q.1,0,0,.1c-.2.5-.6.9-1.3,1.1q.1,0,0,0,.1,0,0,0h0Z"/>
        <path class="cls-20" d="M346.64,175.16c-.2.4-.3.8-.4,1.2q0,.1-.1.1h-.9s-.1,0,0-.1c.4-.6.8-1,1.4-1.2h0Z"/>
        <path class="cls-20" d="M346.64,179.66h0c-.6-.2-1.1-.6-1.3-1.1v-.1h.8s.1,0,.1.1c.1.4.2.8.4,1.1h0Z"/>
      </g>
      <text class="cls-86" transform="translate(355.04 179.76)"><tspan x="0" y="0">www.rgcc.ae</tspan></text>
      <text class="cls-83" transform="translate(179.99 180.21)"><tspan x="0" y="0">971545342563</tspan></text>
      <path class="cls-19" d="M266.32,176.72h3.3v.8h-3.3v-.8ZM268.42,175.52v3.3h-.8v-3.3h.8Z"/>
      <text class="cls-83" transform="translate(270.65 180.21)"><tspan x="0" y="0">971545342563</tspan></text>
      <path class="cls-20" d="M255.86,172.82c2.4,0,4.3,1.9,4.3,4.3s-1.9,4.3-4.3,4.3-4.4-1.9-4.4-4.3c0-2.3,2-4.3,4.4-4.3h0ZM257.16,179.82h.1c.4-.2.8-.5,1.1-.9.1-.1.1-.2,0-.3-.4-.3-.7-.5-1.1-.7-.1-.1-.2,0-.3.1s-.2.2-.3.3q-.1.1-.2.1c-.1,0-.2-.1-.3-.1-.7-.3-1.1-.9-1.4-1.6,0-.1,0-.2.1-.2.1-.1.2-.2.3-.2.1-.1.2-.2.1-.4-.2-.4-.4-.7-.6-1.1-.1-.2-.2-.2-.3,0-.3.3-.6.6-.9,1,0,.1-.1.1,0,.2,0,.2.1.4.1.5.2.6.6,1.2,1,1.7.6.6,1.2,1.2,2,1.5.1-.1.3,0,.6.1h0ZM258.36,177.02c0-1.4-1.2-2.4-2.4-2.4v.3h0c1.2.1,1.9.8,2.1,2.1h.3ZM257.46,177.02c.1-.8-.8-1.5-1.5-1.5v.4c.3,0,.6.1.8.3.2.2.3.5.3.8,0,0,.4,0,.4,0Z"/>
    </g>
  </g>
</svg>
