<?xml version="1.0" encoding="UTF-8"?>
<svg id="Layer_2" data-name="Layer 2" xmlns="http://www.w3.org/2000/svg" xmlns:xlink="http://www.w3.org/1999/xlink" viewBox="0 0 599.6 201.2">
  <defs>
    <style>
      .cls-1 {
        fill: url(#linear-gradient-12);
      }

      .cls-1, .cls-2, .cls-3, .cls-4, .cls-5, .cls-6, .cls-7, .cls-8, .cls-9, .cls-10, .cls-11, .cls-12, .cls-13, .cls-14, .cls-15, .cls-16, .cls-17, .cls-18, .cls-19, .cls-20, .cls-21, .cls-22, .cls-23, .cls-24, .cls-25, .cls-26, .cls-27, .cls-28, .cls-29, .cls-30, .cls-31, .cls-32, .cls-33, .cls-34, .cls-35, .cls-36, .cls-37, .cls-38, .cls-39, .cls-40, .cls-41, .cls-42, .cls-43, .cls-44, .cls-45, .cls-46, .cls-47, .cls-48, .cls-49, .cls-50, .cls-51, .cls-52, .cls-53, .cls-54, .cls-55 {
        stroke-width: 0px;
      }

      .cls-2 {
        fill: url(#linear-gradient-17);
      }

      .cls-3 {
        fill: url(#linear-gradient-19);
      }

      .cls-4 {
        fill: url(#linear-gradient);
      }

      .cls-5 {
        fill: #000;
      }

      .cls-6 {
        fill: #151515;
      }

      .cls-7 {
        fill: #1c1c1c;
      }

      .cls-8 {
        fill: url(#linear-gradient-21);
      }

      .cls-9 {
        fill: url(#linear-gradient-6);
      }

      .cls-56, .cls-14, .cls-57, .cls-58, .cls-59, .cls-60 {
        fill: #033753;
      }

      .cls-56, .cls-61, .cls-60 {
        font-family: Cairo-Bold, Cairo;
        font-weight: 700;
      }

      .cls-56, .cls-57, .cls-58 {
        font-size: 9px;
      }

      .cls-10 {
        fill: #424342;
      }

      .cls-11 {
        fill: #288948;
      }

      .cls-62 {
        isolation: isolate;
      }

      .cls-12 {
        fill: #33ac4e;
      }

      .cls-13 {
        fill: #636363;
      }

      .cls-15, .cls-61 {
        fill: #c92127;
      }

      .cls-16, .cls-41 {
        fill: #215ba8;
      }

      .cls-17 {
        fill: url(#linear-gradient-15);
      }

      .cls-18 {
        fill: url(#linear-gradient-11);
      }

      .cls-19 {
        fill: #7c7b7b;
      }

      .cls-20 {
        fill: url(#linear-gradient-5);
      }

      .cls-61 {
        font-size: 13px;
      }

      .cls-21 {
        fill: none;
      }

      .cls-22 {
        fill: #e61f2d;
      }

      .cls-23 {
        fill: #1a9e4a;
      }

      .cls-24 {
        fill: url(#linear-gradient-13);
      }

      .cls-25 {
        fill: #f6f6f5;
      }

      .cls-26 {
        fill: url(#linear-gradient-16);
      }

      .cls-57 {
        font-family: Bahnschrift-Condensed, Bahnschrift;
        font-variation-settings: 'wght' 400, 'wdth' 75;
      }

      .cls-27 {
        fill: url(#linear-gradient-20);
      }

      .cls-28 {
        fill: #f3f1f1;
      }

      .cls-29 {
        fill: url(#linear-gradient-14);
      }

      .cls-30 {
        fill: #109448;
      }

      .cls-31 {
        fill: url(#linear-gradient-2);
      }

      .cls-32 {
        fill: #010101;
      }

      .cls-33 {
        fill: #292a2a;
      }

      .cls-34 {
        fill: #ea1f2f;
      }

      .cls-35 {
        fill: #e6222a;
      }

      .cls-36 {
        fill: url(#linear-gradient-7);
      }

      .cls-37 {
        fill: url(#linear-gradient-3);
      }

      .cls-63 {
        clip-path: url(#clippath);
      }

      .cls-38 {
        fill: url(#linear-gradient-9);
      }

      .cls-39 {
        fill: url(#radial-gradient);
      }

      .cls-40 {
        fill: #e62227;
      }

      .cls-41 {
        fill-rule: evenodd;
      }

      .cls-42 {
        fill: #9d9da1;
      }

      .cls-43 {
        fill: #ce353b;
      }

      .cls-44 {
        fill: #439058;
      }

      .cls-45 {
        fill: #111;
      }

      .cls-64 {
        opacity: .83;
      }

      .cls-46 {
        fill: #b84348;
      }

      .cls-47 {
        fill: url(#linear-gradient-8);
      }

      .cls-48 {
        fill: url(#linear-gradient-18);
      }

      .cls-49 {
        fill: #fff;
      }

      .cls-58 {
        font-family: Cairo-SemiBold, Cairo;
        font-weight: 600;
      }

      .cls-59 {
        font-family: Cairo-Medium, Cairo;
        font-size: 11px;
        font-weight: 500;
      }

      .cls-50 {
        fill: url(#linear-gradient-10);
      }

      .cls-51 {
        fill: #258044;
      }

      .cls-52 {
        fill: url(#linear-gradient-4);
      }

      .cls-53 {
        fill: #191919;
      }

      .cls-54 {
        fill: #030303;
      }

      .cls-55 {
        fill: #e1242a;
      }

      .cls-60 {
        font-size: 8px;
      }
    </style>
    <radialGradient id="radial-gradient" cx="-23379.62" cy="12752.25" fx="-23379.62" fy="12752.25" r="308.59" gradientTransform="translate(-2167.85 -3106.93) rotate(-180) scale(.1 -.25)" gradientUnits="userSpaceOnUse">
      <stop offset="0" stop-color="#bdbdbd"/>
      <stop offset=".23" stop-color="#d5d5d5"/>
      <stop offset=".51" stop-color="#ececec"/>
      <stop offset=".77" stop-color="#fafafa"/>
      <stop offset="1" stop-color="#fff"/>
    </radialGradient>
    <clipPath id="clippath">
      <path class="cls-21" d="M39,110.5h46.1c.9,0,1.7.7,1.7,1.6v19.2c0,.9-.7,1.6-1.7,1.6h-46.1c-.9,0-1.7-.7-1.7-1.6v-19.2c0-.9.8-1.6,1.7-1.6Z"/>
    </clipPath>
    <linearGradient id="linear-gradient" x1="41.49" y1="-5519.76" x2="44.32" y2="-5519.76" gradientTransform="translate(0 -5481.61) scale(1 -1)" gradientUnits="userSpaceOnUse">
      <stop offset="0" stop-color="#e9262a"/>
      <stop offset="1" stop-color="#a21d30"/>
    </linearGradient>
    <linearGradient id="linear-gradient-2" x1="45.7" y1="-5577.46" x2="61.35" y2="-5577.46" xlink:href="#linear-gradient"/>
    <linearGradient id="linear-gradient-3" x1="49.61" y1="-5558.98" x2="89.49" y2="-5558.98" xlink:href="#linear-gradient"/>
    <linearGradient id="linear-gradient-4" x1="61.63" y1="-5578.05" x2="77.91" y2="-5578.05" xlink:href="#linear-gradient"/>
    <linearGradient id="linear-gradient-5" x1="78.57" y1="-5577.93" x2="93.65" y2="-5577.93" xlink:href="#linear-gradient"/>
    <linearGradient id="linear-gradient-6" x1="78.98" y1="-5558.73" x2="108.85" y2="-5558.73" xlink:href="#linear-gradient"/>
    <linearGradient id="linear-gradient-7" x1="65.92" y1="-5528.32" x2="82.52" y2="-5528.32" xlink:href="#linear-gradient"/>
    <linearGradient id="linear-gradient-8" x1="65.97" y1="-5535.21" x2="85.64" y2="-5535.21" xlink:href="#linear-gradient"/>
    <linearGradient id="linear-gradient-9" x1="53.23" y1="-5554.66" x2="65.85" y2="-5554.66" xlink:href="#linear-gradient"/>
    <linearGradient id="linear-gradient-10" x1="80.21" y1="-5520.46" x2="83.73" y2="-5520.46" xlink:href="#linear-gradient"/>
    <linearGradient id="linear-gradient-11" x1="34.43" y1="-5547.01" x2="35.07" y2="-5547.01" xlink:href="#linear-gradient"/>
    <linearGradient id="linear-gradient-12" x1="78.79" y1="-5566.56" x2="94.83" y2="-5566.56" xlink:href="#linear-gradient"/>
    <linearGradient id="linear-gradient-13" x1="65.84" y1="-5538.31" x2="66.5" y2="-5538.31" xlink:href="#linear-gradient"/>
    <linearGradient id="linear-gradient-14" x1="66.48" y1="-5539.96" x2="67.15" y2="-5539.96" xlink:href="#linear-gradient"/>
    <linearGradient id="linear-gradient-15" x1="54.49" y1="-5554.74" x2="67.16" y2="-5554.74" xlink:href="#linear-gradient"/>
    <linearGradient id="linear-gradient-16" x1="58.1" y1="-5560.6" x2="72.56" y2="-5560.6" xlink:href="#linear-gradient"/>
    <linearGradient id="linear-gradient-17" x1="55.52" y1="-5556.01" x2="70.38" y2="-5556.01" xlink:href="#linear-gradient"/>
    <linearGradient id="linear-gradient-18" x1="57.89" y1="-5559.31" x2="71.56" y2="-5559.31" xlink:href="#linear-gradient"/>
    <linearGradient id="linear-gradient-19" x1="55.74" y1="-5558.21" x2="68.89" y2="-5558.21" xlink:href="#linear-gradient"/>
    <linearGradient id="linear-gradient-20" x1="57.57" y1="-5552.41" x2="62.4" y2="-5552.41" xlink:href="#linear-gradient"/>
    <linearGradient id="linear-gradient-21" x1="93.79" y1="-5577.61" x2="106.67" y2="-5577.61" xlink:href="#linear-gradient"/>
  </defs>
  <g id="Layer_1-2" data-name="Layer 1">
    <g>
      <rect class="cls-49" width="599.6" height="199.8"/>
      <rect class="cls-15" x="172" y="80.4" width="89.4" height="1"/>
      <path class="cls-39" d="M163,7.1v151c-13.9-7.5-24.4-38.4-24.4-75.5s10.5-68,24.4-75.5Z"/>
      <g class="cls-62">
        <path class="cls-14" d="M170,27.7v-6.9h2.5c.5,0,.8.1,1.1.2.3.1.5.3.7.6s.2.6.2,1c0,.3,0,.5-.1.7s-.2.4-.3.5-.3.2-.5.3c.2.1.4.2.5.3.2.1.3.3.4.5.1.2.1.5.1.8,0,.4,0,.7-.1.9s-.2.5-.4.6-.4.3-.7.3c-.3.1-.6.1-.9.1h-2.5v.1ZM170.8,23.9h1.8c.3,0,.5,0,.7-.1s.3-.2.4-.4c.1-.2.1-.4.1-.7,0-.4-.1-.7-.3-.9s-.5-.3-1-.3h-1.7v2.4ZM170.8,27h1.8c.3,0,.5,0,.7-.1s.4-.2.5-.4.2-.4.2-.8c0-.3,0-.5-.1-.6-.1-.2-.2-.3-.4-.4-.1-.1-.3-.1-.5-.2h-2.2v2.5Z"/>
        <path class="cls-14" d="M177.8,27.8c-.5,0-.9-.1-1.2-.3s-.5-.5-.6-.9-.2-.9-.2-1.4c0-.6.1-1.1.3-1.5s.4-.7.7-.8.7-.3,1.1-.3c.7,0,1.2.2,1.5.6.3.4.5,1,.5,1.8v.6h-3.3c0,.5.1.9.3,1.2s.5.4,1,.4h1.9v.6c-.2,0-.4.1-.6.1s-.5,0-.7.1c-.3-.2-.5-.2-.7-.2ZM176.6,24.9h2.6c0-.6-.1-1-.3-1.3-.2-.2-.5-.4-.9-.4-.3,0-.5.1-.7.2-.2.1-.3.3-.4.5-.3.3-.3.6-.3,1Z"/>
        <path class="cls-14" d="M182.6,27.8h-.6c-.2,0-.4,0-.6-.1s-.4-.1-.6-.1v-.7c.2,0,.4,0,.6.1.2,0,.4,0,.6.1s.4,0,.5,0c.3,0,.5,0,.7-.1.2,0,.3-.1.4-.3s.1-.3.1-.5,0-.3-.1-.4c-.1-.1-.2-.2-.4-.2-.2-.1-.5-.1-.8-.2-.4-.1-.7-.1-.9-.2s-.4-.2-.6-.4c-.1-.2-.2-.4-.2-.8s.1-.7.3-.9.4-.4.7-.5.6-.1.9-.1h.6c.2,0,.4,0,.7.1s.4.1.5.1v.7c-.2,0-.3-.1-.6-.1-.2,0-.4,0-.6-.1s-.4,0-.6,0-.4,0-.5.1-.3.1-.4.2-.1.3-.1.5c0,.1,0,.3.1.4.1.1.2.2.4.2.2.1.5.1.8.2.4.1.7.2,1,.2.2.1.4.2.5.4s.2.4.2.8-.1.7-.2.9c-.2.2-.4.4-.7.5-.3.2-.7.2-1.1.2Z"/>
        <path class="cls-14" d="M187.4,27.9c-.3,0-.6-.1-.8-.2-.2-.1-.3-.3-.4-.6-.1-.3-.1-.6-.1-1.1v-2.6h-.7v-.7h.7v-1.5h.8v1.5h1.6v.7h-1.6v3.2c0,.2.1.3.2.4s.3.1.5.1h.9v.7h-.7c-.2,0-.3.1-.4.1Z"/>
        <path class="cls-14" d="M191.6,27.7v-6.9h2.6c.5,0,.9.1,1.2.2.3.1.6.4.7.7.2.3.2.7.2,1.2s-.1.9-.3,1.3c-.2.3-.5.6-1,.7l1.3,2.8h-.8l-1.2-2.6h-1.9v2.6h-.8ZM192.4,24.4h1.8c.3,0,.6-.1.8-.2.2-.1.3-.3.4-.5s.1-.5.1-.8c0-.5-.1-.8-.3-1.1s-.6-.3-1-.3h-1.8v2.9Z"/>
        <path class="cls-14" d="M199.4,27.8c-.5,0-.9-.1-1.2-.3s-.5-.5-.6-.9-.2-.9-.2-1.4c0-.6.1-1.1.3-1.5s.4-.7.7-.8.7-.3,1.1-.3c.7,0,1.2.2,1.5.6.3.4.5,1,.5,1.8v.6h-3.3c0,.5.1.9.3,1.2s.5.4,1,.4h1.9v.6c-.2,0-.4.1-.6.1s-.5,0-.7.1c-.3-.2-.5-.2-.7-.2ZM198.2,24.9h2.6c0-.6-.1-1-.3-1.3-.2-.2-.5-.4-.9-.4-.3,0-.5.1-.7.2-.2.1-.3.3-.4.5-.3.3-.3.6-.3,1Z"/>
        <path class="cls-14" d="M204.6,30.1c-.5,0-.9,0-1.3-.1-.3-.1-.5-.2-.7-.5-.1-.2-.2-.5-.2-.9,0-.2,0-.4.1-.5s.1-.3.3-.4c.1-.1.3-.2.4-.4-.1-.1-.2-.2-.2-.3-.1-.1-.1-.3-.1-.4,0,0,0-.1.1-.2,0-.1.1-.2.1-.3s.1-.2.1-.3c-.1-.1-.3-.2-.4-.3-.1-.1-.2-.3-.3-.5s-.1-.5-.1-.8c0-.4.1-.7.2-1s.4-.4.7-.5.6-.2,1-.2h.6c.2,0,.4.1.5.1h1.5v.7h-.9c.1.1.2.2.2.4s.1.4.1.6c0,.4-.1.8-.2,1-.1.2-.4.4-.6.5-.3.1-.6.1-1.1.1h-.4c0,.1-.1.2-.1.3s-.1.2-.1.2v.2l.1.1s.2.1.4.1h.7c.5,0,.9,0,1.1.1s.5.2.6.4.2.5.2.9c0,.6-.2,1-.6,1.2-.5.6-1,.7-1.7.7ZM204.6,29.4c.5,0,.9-.1,1.1-.2.2-.1.4-.4.4-.7,0-.2,0-.4-.1-.5s-.2-.2-.4-.2-.4-.1-.7-.1h-1l-.3.3c-.1.1-.1.2-.2.3,0,.1-.1.2-.1.3,0,.2,0,.4.1.5s.2.2.4.3c.1,0,.4,0,.8,0ZM204.4,25.4c.4,0,.7-.1.9-.2.2-.2.3-.4.3-.8s-.1-.7-.3-.8c-.2-.2-.5-.2-.9-.2s-.7.1-.8.2c-.2.2-.3.4-.3.8s.1.7.3.8c.1.1.4.2.8.2Z"/>
        <path class="cls-14" d="M208.9,27.8c-.5,0-.8-.1-1.1-.4-.2-.3-.4-.6-.4-1.1,0-.3.1-.6.2-.8.1-.2.3-.4.5-.5s.5-.2.9-.2l1.5-.1v-.4c0-.3-.1-.6-.2-.7s-.4-.2-.7-.2h-.6c-.2,0-.5,0-.7.1-.2,0-.4,0-.6.1v-.6c.2,0,.4-.1.6-.1s.5-.1.7-.1h.7c.4,0,.7.1.9.2.2.1.4.3.5.5s.2.5.2.9v2.5c0,.1.1.3.2.3.1.1.2.1.4.1v.6h-.5c-.1,0-.2,0-.2-.1-.1,0-.2-.1-.2-.1,0,0-.2-.1-.2-.2-.1.1-.3.1-.5.2-.2.1-.4.1-.6.2-.4-.1-.6-.1-.8-.1ZM209,27.2h.6c.2,0,.4-.1.5-.1s.3-.1.4-.1v-1.6l-1.5.1c-.3,0-.5.1-.6.3-.1.1-.2.4-.2.6,0,.3.1.5.2.7s.4.1.6.1Z"/>
        <path class="cls-14" d="M212.8,27.7v-5h.8v.7c.1-.1.3-.2.5-.3s.4-.2.6-.3c.2-.1.5-.2.7-.2v.8c-.2,0-.5.1-.7.2-.2.1-.4.2-.6.2-.2.1-.4.2-.5.2v3.7h-.8Z"/>
        <path class="cls-14" d="M217.9,27.8c-.2,0-.4,0-.6-.1s-.3-.1-.5-.2l-.4-.4c-.1-.2-.2-.4-.3-.7s-.1-.7-.1-1.1c0-.6.1-1.1.2-1.5.1-.4.4-.7.7-.9s.7-.3,1.2-.3h.8c.1,0,.3,0,.3.1v-2.2h.8v7.2h-.8v-.3c-.1.1-.2.1-.4.2-.2.1-.4.1-.5.2h-.4ZM218,27.1c.2,0,.3,0,.5-.1s.3-.1.5-.1.3-.1.4-.2v-3.3h-1.1c-.3,0-.6.1-.8.2s-.3.4-.4.7c-.1.3-.1.7-.1,1.1s0,.7.1,1,.1.4.2.6c.1.1.2.2.4.3s.1-.2.3-.2Z"/>
        <path class="cls-14" d="M223.2,27.8h-.6c-.2,0-.4,0-.6-.1s-.4-.1-.6-.1v-.7c.2,0,.4,0,.6.1.2,0,.4,0,.6.1s.4,0,.5,0c.3,0,.5,0,.7-.1.2,0,.3-.1.4-.3s.1-.3.1-.5,0-.3-.1-.4c-.1-.1-.2-.2-.4-.2-.2-.1-.5-.1-.8-.2-.4-.1-.7-.1-.9-.2s-.4-.2-.6-.4c-.1-.2-.2-.4-.2-.8s.1-.7.3-.9.4-.4.7-.5.6-.1.9-.1h.6c.2,0,.4,0,.7.1s.4.1.5.1v.7c-.2,0-.3-.1-.6-.1-.2,0-.4,0-.6-.1s-.4,0-.6,0-.4,0-.5.1-.3.1-.4.2-.1.3-.1.5c0,.1,0,.3.1.4.1.1.2.2.4.2.2.1.5.1.8.2.4.1.7.2,1,.2.2.1.4.2.5.4s.2.4.2.8-.1.7-.2.9c-.2.2-.4.4-.7.5-.4.2-.7.2-1.1.2Z"/>
        <path class="cls-14" d="M225.9,29l.5-2.3h.9l-.7,2.3h-.7Z"/>
      </g>
      <g>
        <path class="cls-15" d="M251.75,177.5v-.6c0-.2,0-.4.1-.6.3-1.3,1.1-2.3,2.3-2.9.8-.4,1.7-.5,2.6-.4,1.1.2,2,.7,2.7,1.6s1,2,.9,3.2c-.1.9-.5,1.6-1,2.3-.7.7-1.5,1.2-2.5,1.4-.2,0-.3.1-.5.1h-.8c-.9-.1-1.6-.5-2.3-1-.8-.7-1.2-1.5-1.4-2.5-.1-.2-.1-.4-.1-.6h0ZM256.05,179.2h2.2c.4,0,.6-.2.6-.6v-2.8c0-.4-.2-.6-.6-.6h-4.4c-.4,0-.6.2-.6.6v2.7c0,.3.2.6.6.6.7.1,1.5.1,2.2.1h0Z"/>
        <path class="cls-15" d="M253.75,176c.3.2.5.4.8.6.5.4.9.8,1.4,1.1.1.1.2.1.3,0,.7-.5,1.4-1.1,2-1.6l.1-.1v2.6c0,.1,0,.2-.2.2h-4.3c-.1,0-.2,0-.2-.2v-2.5s0-.1.1-.1h0Z"/>
        <path class="cls-15" d="M257.95,175.8c-.2.1-.3.2-.4.4-.5.4-.9.7-1.4,1.1,0,0-.1.1-.1,0-.6-.5-1.2-.9-1.8-1.4h0l3.7-.1h0Z"/>
      </g>
      <path class="cls-15" d="M164.85,173c2.4,0,4.3,1.9,4.3,4.3s-1.9,4.3-4.3,4.3-4.4-1.9-4.4-4.3c0-2.3,2-4.3,4.4-4.3h0ZM166.15,180h.1c.4-.2.8-.5,1.1-.9.1-.1.1-.2,0-.3-.4-.3-.7-.5-1.1-.7-.1-.1-.2,0-.3.1s-.2.2-.3.3q-.1.1-.2.1c-.1,0-.2-.1-.3-.1-.7-.3-1.1-.9-1.4-1.6,0-.1,0-.2.1-.2.1-.1.2-.2.3-.2.1-.1.2-.2.1-.4-.2-.4-.4-.7-.6-1.1-.1-.2-.2-.2-.3,0-.3.3-.6.6-.9,1,0,.1-.1.1,0,.2,0,.2.1.4.1.5.2.6.6,1.2,1,1.7.6.6,1.2,1.2,2,1.5.1-.1.3,0,.6.1h0ZM167.35,177.2c0-1.4-1.2-2.4-2.4-2.4v.3h0c1.2.1,1.9.8,2.1,2.1h.3ZM166.45,177.2c.1-.8-.8-1.5-1.5-1.5v.4c.3,0,.6.1.8.3.2.2.3.5.3.8,0,0,.4,0,.4,0Z"/>
      <g>
        <path class="cls-15" d="M73.7,177v.8c-.1.9-.5,1.6-1.1,2.3-.7.8-1.5,1.2-2.5,1.4-.2,0-.3,0-.5.1h-.6c-.9-.1-1.8-.4-2.5-1-1.1-1-1.6-2.2-1.5-3.7.1-.9.4-1.8,1.1-2.4.8-.9,1.9-1.4,3.1-1.4.8,0,1.6.2,2.3.6,1.1.7,1.8,1.7,2.1,3,0,0,0,.1.1.3h0ZM69.3,180.1c.3-.4.6-.8.9-1.2.4-.5.7-1,1-1.6.2-.4.3-.8.2-1.2-.2-.9-.8-1.5-1.7-1.7-.8-.2-1.7.2-2.2.9-.3.4-.4.9-.4,1.4,0,.3.2.6.3.9.3.6.8,1.2,1.2,1.8.4.2.5.4.7.7h0Z"/>
        <path class="cls-15" d="M70.2,176.5c0,.4-.4.8-.8.8s-.9-.3-.9-.8.4-.8.8-.8.8.4.9.8h0Z"/>
      </g>
      <g>
        <path class="cls-15" d="M429.09,177.79v-.6c0-.2,0-.4.1-.6.3-1.3,1.1-2.3,2.3-2.9.8-.4,1.7-.5,2.6-.4,1.1.2,2,.7,2.7,1.6s1,2,.9,3.2c-.1.9-.5,1.6-1,2.3-.7.7-1.5,1.2-2.5,1.4-.2,0-.3.1-.5.1h-.8c-.9-.1-1.6-.5-2.3-1-.8-.7-1.2-1.5-1.4-2.5,0-.2,0-.4-.1-.6h0ZM433.39,179.49h2.2c.4,0,.6-.2.6-.6v-2.8c0-.4-.2-.6-.6-.6h-4.4c-.4,0-.6.2-.6.6v2.7c0,.3.2.6.6.6.8.1,1.5.1,2.2.1h0Z"/>
        <path class="cls-15" d="M431.09,176.29c.3.2.5.4.8.6.5.4.9.8,1.4,1.1.1.1.2.1.3,0,.7-.5,1.4-1.1,2-1.6l.1-.1v2.6c0,.1,0,.2-.2.2h-4.3c-.1,0-.2,0-.2-.2v-2.5c.1,0,.1-.1.1-.1h0Z"/>
        <path class="cls-15" d="M435.39,176.09c-.2.1-.3.2-.4.4-.5.4-.9.7-1.4,1.1,0,0-.1.1-.1,0-.6-.5-1.2-.9-1.8-1.4h0l3.7-.1h0Z"/>
      </g>
      <g>
        <path class="cls-49" d="M39,110.5h46.1c.9,0,1.7.7,1.7,1.6v19.2c0,.9-.7,1.6-1.7,1.6h-46.1c-.9,0-1.7-.7-1.7-1.6v-19.2c0-.9.8-1.6,1.7-1.6Z"/>
        <g class="cls-63">
          <g>
            <rect class="cls-16" x="35.7" y="110.5" width="52.9" height="22"/>
            <rect class="cls-42" x="61.1" y="124.6" width="19.2" height=".7"/>
            <g>
              <rect class="cls-49" x="44.1" y="114.7" width="11.1" height="13.7"/>
              <path class="cls-41" d="M52.7,121.6c-.1.5-.4.9-.8,1.2h2.2c.4-1.9-1.1-3.8-3.5-4.3.4.1,2.6,1,2.1,3.1"/>
              <path class="cls-41" d="M45.1,115.5v7.3h2c1.3-.2,2.6-1.1,2.7-1.9.2-1-.4-1.8-1.6-2h-.1c-.1,0-.6,0-1.1-.1,0,0-.2.2-.2.5,0,0-.6-.5-.2-1.2,0,0,.2-.3.8-.7h0c.2-.2.6-.5,1.2-.7.3-.1.8-.3,1.4-.3,2.6-.2,4,1.5,4,1.5v-2.4h-8.9Z"/>
              <path class="cls-41" d="M51.6,117.2c-1.3-.1-2.3.1-3.2.6,0,0,.2-.1.6-.2.1.2.3.4.5.4.4.1.7-.1.8-.4v-.2c2.4-.1,3.7,1.4,3.7,1.4v-.7c-.2-.2-1.2-.8-2.4-.9"/>
              <path class="cls-41" d="M45.8,126h.4l.7,1.5h-.4l-.2-.3h-.6l-.2.3h-.4c0-.1.7-1.5.7-1.5ZM46.2,126.8l-.2-.5-.2.5h.4Z"/>
              <path class="cls-41" d="M47,126h.7c.3,0,.5.1.6.2.2.1.2.3.2.6,0,.1,0,.2-.1.3s-.1.2-.2.2c-.1.1-.2.1-.3.1s-.2.1-.4.1h-.6l.1-1.5h0ZM47.7,127.2h.2c.1,0,.1-.1.2-.1q.1-.1.1-.2v-.4c0-.1-.1-.1-.1-.2,0,0-.1-.1-.2-.1h-.5v.9l.3.1h0Z"/>
              <polygon class="cls-41" points="48.9 126 49.2 126 49.9 126.9 49.9 126 50.3 126 50.3 127.4 50 127.4 49.2 126.5 49.2 127.4 48.9 127.4 48.9 126"/>
              <path class="cls-41" d="M51.5,127.5c-.1,0-.3,0-.4-.1-.1,0-.2-.1-.3-.2q-.1-.1-.2-.2c0-.1-.1-.2-.1-.3s0-.2.1-.3c0-.1.1-.2.2-.2.1-.1.2-.1.3-.2.1,0,.2-.1.4-.1s.2,0,.3.1c.1,0,.2.1.3.2q.1.1.2.2c0,.1.1.2.1.3s0,.2-.1.3c0,.1-.1.2-.2.2-.1.1-.2.1-.3.2-.1,0-.2.1-.3.1M51.5,127.2c.2,0,.3-.1.3-.1.1-.1.1-.2.1-.4s0-.3-.1-.4c-.1-.1-.2-.1-.3-.1-.2,0-.3.1-.4.1-.1.1-.1.2-.1.4s0,.3.1.4c.1.1.2.1.4.1"/>
              <path class="cls-41" d="M54.1,126.9q0,.1-.1.2c0,.1-.1.1-.2.2q-.1.1-.2.1h-.3c-.1,0-.2,0-.4-.1-.1-.1-.2-.1-.2-.2-.1-.1-.1-.2-.2-.2s-.1-.2-.1-.3,0-.2.1-.3c0-.1.1-.2.2-.2.1-.1.2-.1.2-.2.1,0,.2-.1.3-.1s.2,0,.3.1c.1,0,.2.1.2.1q.1.1.1.2c0,.1.1.1.1.2l-.4.1c0-.1-.1-.2-.1-.2,0,0-.1-.1-.2-.1s-.2.1-.3.1c-.1.1-.1.2-.1.4s.1.3.1.4c.1.1.2.1.3.1s.2,0,.2-.1q.1-.1.1-.2h.6Z"/>
              <path class="cls-41" d="M47,125v-1.3h.4v1.6h-1.5c-.2,0-.4-.1-.5-.1-.1-.1-.2-.2-.2-.4,0-.1,0-.2.1-.2q.1-.1.2-.2c.1-.1.2-.1.3-.1v.2c-.1,0-.2,0-.2.1-.1,0-.1.1-.1.2s0,.2.1.2c.1.1.2.1.3.1l1.1-.1h0ZM46.7,124.4v.1h-.5v-.1h.1v-.1s0-.1.1-.1c0,0,.1-.1.2-.1s.1,0,.1.1t0,.2l-.1-.1v-.1h-.1q-.1,0-.1.1v.1h.3Z"/>
              <path class="cls-41" d="M51,124.2v.8h-2v-.3c0-.2-.1-.3-.2-.4-.1-.1-.2-.1-.4-.1s-.3.1-.5.1c-.1.1-.2.2-.2.4s.1.4.2.4c.1.1.3.1.6.1h0v.1c0,.1,0,.2-.1.2l.2.2s.1,0,.1-.1c.1-.1.2-.3.2-.4h2.4v-1.1l-.3.1h0ZM48.5,125h-.1c-.2,0-.4-.1-.4-.3q0-.1.1-.2t.2-.1h.1l.1.1v.5h0Z"/>
              <rect class="cls-16" x="51" y="123.8" width=".3" height=".3"/>
              <path class="cls-41" d="M53,125v-.2c0-.1,0-.2-.1-.3s-.2-.1-.3-.1-.2,0-.3.1l-.1-.3c.1,0,.2-.1.4-.1s.4.1.5.2c.1.1.2.3.2.5v.4h-1.8v-.3l1.5.1h0Z"/>
              <path class="cls-41" d="M54.1,123.7v.1h-.5v-.1h.1v-.1s0-.1.1-.1h.3s0,0,0,.2l-.1-.1v-.1h-.1q-.1,0-.1.1v.1h.3Z"/>
              <rect class="cls-16" x="53.7" y="123.9" width=".3" height="1.4"/>
            </g>
            <g>
              <path class="cls-49" d="M61.2,121.6v-7h1.7v7h-1.7Z"/>
              <path class="cls-49" d="M70,119l1.7.4c-.3.8-.7,1.3-1.3,1.7-.6.4-1.3.6-2.3.6-1.1,0-2.1-.3-2.8-.9-.7-.6-1.1-1.5-1.1-2.6,0-1.2.4-2.1,1.1-2.7.7-.6,1.7-1,2.9-1,1,0,1.9.2,2.5.8.4.3.7.7.9,1.3l-1.7.3c-.1-.4-.3-.6-.6-.9-.3-.2-.7-.3-1.2-.3-.6,0-1.1.2-1.5.6s-.6,1-.6,1.8c0,.9.2,1.5.6,1.9s.9.6,1.5.6c.5,0,.8-.1,1.2-.4.3-.3.6-.7.7-1.2h0Z"/>
              <path class="cls-49" d="M75.3,121.6l-3.1-7h1.9l2.2,5.2,2.1-5.2h1.8l-3.1,7h-1.8Z"/>
            </g>
            <g>
              <path class="cls-49" d="M61.1,122.5h.4v1.1h-.4v-1.1Z"/>
              <path class="cls-49" d="M61.7,122.5h.4l.5.6v-.6h.4v1.1h-.4l-.5-.6v.6h-.4v-1.1Z"/>
              <path class="cls-49" d="M63.1,123.1h.5v.2h-.5v-.2Z"/>
              <path class="cls-49" d="M64.6,123.2l.3.1c0,.1-.1.2-.1.2,0,0-.1.1-.2.1h-.3c-.1,0-.2,0-.3-.1-.1,0-.2-.1-.2-.2-.1-.1-.1-.2-.1-.3,0-.2.1-.3.2-.4.1-.1.3-.1.5-.1s.3,0,.4.1.2.1.2.3l-.3.1v-.1l-.1-.1h-.1c-.1,0-.2,0-.2.1s-.1.1-.1.2,0,.2.1.3.1.1.2.1.1,0,.2-.1c-.1-.1-.1-.2-.1-.2h0Z"/>
              <path class="cls-49" d="M65.1,123.1c0-.2.1-.3.2-.4.1-.1.3-.2.5-.2s.4.1.5.2c.1.1.2.2.2.4,0,.1,0,.2-.1.3s-.1.2-.2.2c-.1.1-.2.1-.3.1s-.3,0-.3-.1c-.1,0-.2-.1-.2-.2-.3-.1-.3-.2-.3-.3h0ZM65.5,123.1c0,.1,0,.2.1.2s.1.1.2.1.2,0,.2-.1q.1-.1.1-.3c0-.1,0-.2-.1-.2s-.1-.1-.2-.1-.1,0-.2.1-.1.2-.1.3h0Z"/>
              <path class="cls-49" d="M67.4,122.5h.4v.9c0,.1-.1.1-.1.2s-.1.1-.2.1h-.5q-.1,0-.2-.1c-.1,0-.1-.1-.1-.1l-.1-.1v-.9h.4v.7q0,.1.1.2s.1.1.2.1.1,0,.2-.1c0,0,.1-.1.1-.2l-.2-.7h0Z"/>
              <path class="cls-49" d="M68.1,122.5h.4l.5.6v-.6h.4v1.1h-.4l-.5-.6v.6h-.4v-1.1Z"/>
              <path class="cls-49" d="M69.5,122.5h1.2v.3h-.4v.9h-.4v-.9h-.4v-.3h0Z"/>
              <path class="cls-49" d="M70.8,123.6v-1.1h1c.1,0,.1.1.2.1,0,.1.1.1.1.2v.2c0,.1-.1.1-.1.1h-.1.1l.1.1.1.1.2.3h-.4l-.2-.4-.1-.1h-.1v.5h-.8ZM71.2,122.9h.4v-.2h-.4v.2h0Z"/>
              <path class="cls-49" d="M72,122.5h.4l.2.4.2-.4h.4l-.5.7v.5h-.2v-.5l-.5-.7h0Z"/>
              <path class="cls-49" d="M73.9,122.5h.4l.3.8.3-.8h.4l-.5,1.1h-.4l-.5-1.1Z"/>
              <path class="cls-49" d="M76.1,123.4h-.4l-.1.2h-.4l.5-1.1h.4l.5,1.1h-.4l-.1-.2ZM76,123.2l-.1-.4-.1.4h.2Z"/>
              <path class="cls-49" d="M76.7,122.5h.4v.9h.6v.3h-1v-1.2Z"/>
              <path class="cls-49" d="M78.7,122.5h.4v.9c0,.1-.1.1-.1.2s-.1.1-.2.1h-.5q-.1,0-.2-.1c-.1,0-.1-.1-.1-.1l-.1-.1v-.9h.4v.7q0,.1.1.2s.1.1.2.1.1,0,.2-.1c0,0,.1-.1.1-.2l-.2-.7h0Z"/>
              <path class="cls-49" d="M79.3,122.5h1v.2h-.7v.2h.6v.2h-.6v.2h.7v.3h-1.1v-1.1h.1Z"/>
            </g>
            <g>
              <path class="cls-49" d="M62.8,127.5l.6.2c0,.2-.1.3-.2.4s-.2.2-.3.2-.3.1-.5.1-.5,0-.6-.1-.3-.2-.4-.3c-.1-.2-.2-.4-.2-.7s.1-.6.3-.8.5-.3.9-.3c.3,0,.5.1.7.2s.3.3.4.5l-.6.1q0-.1-.1-.1c0-.1-.1-.1-.2-.1h-.2c-.2,0-.3.1-.4.2-.1.1-.1.2-.1.4s0,.4.1.5.2.1.3.1.2,0,.3-.1.2-.3.2-.4h0Z"/>
              <path class="cls-49" d="M63.8,126.2h1.9v.4h-1.2v.3h1.1v.4h-1.1v.4h1.2v.5h-1.9v-2h0Z"/>
              <path class="cls-49" d="M66.1,128.4v-2.1h1.2c.2,0,.4,0,.5.1.1,0,.2.1.3.2.1.1.1.2.1.3s0,.2-.1.3-.1.1-.2.2c-.1,0-.1.1-.2.1.1,0,.2.1.2.1l.1.1.1.1.3.6h-.8l-.4-.6q-.1-.1-.1-.2c-.1,0-.1-.1-.2-.1h-.1v.9h-.7ZM66.8,127.1h.5q.1,0,.1-.1l.1-.1q0-.1-.1-.2c-.1,0-.1-.1-.3-.1h-.3v.5h0Z"/>
              <path class="cls-49" d="M68.4,126.2h2.2v.5h-.7v1.6h-.7v-1.6h-.7c-.1.1-.1-.5-.1-.5Z"/>
              <path class="cls-49" d="M71,126.2h.7v2.1h-.7v-2.1Z"/>
              <path class="cls-49" d="M72.2,126.2h1.8v.5h-1.1v.4h.9v.4h-.9v.9h-.7s0-2.2,0-2.2Z"/>
              <path class="cls-49" d="M74.4,126.2h.7v2.1h-.7v-2.1Z"/>
              <path class="cls-49" d="M75.6,126.2h1.9v.4h-1.2v.3h1.1v.4h-1.1v.4h1.2v.5h-1.9v-2h0Z"/>
              <path class="cls-49" d="M78,126.2h1.1c.2,0,.4,0,.5.1s.2.1.3.2.2.2.2.3.1.3.1.4c0,.2,0,.4-.1.5s-.1.2-.2.3-.2.1-.3.2c-.2,0-.3.1-.4.1h-1.1l-.1-2.1h0ZM78.7,126.7v1.2h.2c.2,0,.3,0,.3-.1.1,0,.1-.1.2-.2,0-.1.1-.2.1-.4s0-.4-.1-.5-.2-.1-.4-.1c-.2.1-.3.1-.3.1Z"/>
            </g>
          </g>
        </g>
      </g>
      <g id="Layer_1-2" data-name="Layer 1-2">
        <g>
          <g class="cls-64">
            <path class="cls-4" d="M44.3,36.3c-.2.4-.4.8-.7,1.1-.3.4-.7.8-1,1.3-.2.5-.7.8-.9,1.2,0,.1-.2.1-.3.1,1-1.2,2-2.4,2.9-3.7Z"/>
            <path class="cls-46" d="M68.1,31.1c-.3,0-.4.1-.2.4.1.1.1.3.1.4-.3-.5-.6-1-.9-1.6.1,0,.1-.1.2-.1.2.3.5.6.8.9h0Z"/>
            <path class="cls-31" d="M49.2,97.3v6.8h-3.5v-16.5h8.2c1,0,2,.1,3,.4,1.7.4,2.8,1.9,2.9,3.7.1,1.5-.2,2.9-1.4,3.9-.7.6-1.6.9-2.5,1.1-.2,0-.3.1-.5.1,2.8,1.7,4,4.7,5.9,7.3h-4.1c-.1,0-.3-.2-.4-.4-1.2-1.7-2.4-3.3-3.5-5-1-1.4-2.5-1.5-4.1-1.4h0ZM49.2,94.5c1.8,0,3.5.1,5.2,0,1.2-.1,1.8-.8,1.8-2.1,0-1.1-.7-1.9-1.8-2-1.7-.1-3.4,0-5.2,0l-.1.1.1,4h0Z"/>
            <path class="cls-37" d="M65.2,68.9c0-.2,0-.5.1-.8.8.8,1.5,1.4,2.2,2.1,2.1,2,4.6,3.6,7.4,4.4.8.2,1.6.4,2.3.5.2,0,.4,0,.5-.1,2.6-1.9,5.3-3.8,7.9-5.9.8-.7,1.7-.9,2.7-.9h1.3c-.6.6-1,1.2-1.6,1.7-2.5,2.6-5.2,4.7-8.2,6.6-2.9,1.9-6,3.5-9.1,5-3.8,1.8-7.6,3.3-11.5,4.6-1.1.4-2.2.6-3.3.5-2-.1-4-.1-6.1-.2,1.3-.4,2.6-.9,3.9-1.3,1.5-.5,3.1-1,4.6-1.5.7-.2.7-.5.2-1.1-1.2-1.4-2.3-2.8-3.5-4.2-.1-.2-.2-.4-.3-.6-.2-.6-.5-1.3-.7-1.9l-.6-2.4v-.2c.1-.3.1-.5.2-.8.1-.6.3-1.1.5-1.7,0-.2.3-.3.4-.4.1-.2.2-.5.3-.7.1.2.2.3.2.5-.1.4.2.6.5.6.8.1,1.5.2,2.3.2h1.5c.2.1.5.2.7.2.4.1.8.1,1.2.1-.3.1-.7,0-1,.1-1.2.3-2.4.2-3.7,0-.4-.1-.9,0-1.3.1-.3.1-.6.2-.6.6,0,.6.4,1,1.2,1-.5.5-1.2.7-.9,1.5.1.3.4.6.8.6v.7c.1.3.1.7.2,1,.1.1.2.2.4.2.2.1.4,0,.7.1-.1.2-.2.3-.2.3-.4.4-.3,1.1.2,1.3.4.1.9.2,1.3.3,0,.1.1.3,0,.3-.4.2-.2.5,0,.8,0,.3,0,.4.4.4.7.1,1.3.4,2,.6-.1.4,0,.8.4,1,.5.2,1,.6,1.7.2.2-.1.5-.2.8-.2.5-.1,1-.3,1.4-.7.1-.1.2-.1.3-.2,1.8-.7,3.6-1.4,5.4-2.2.9-.4,1.8-.9,2.8-1.3.2-.1.3-.3.3-.5,0-.1-.2-.4-.3-.4-.2,0-.4.1-.7.2h-.8c.2-.3.4-.4.6-.7-.3-.2-.6-.4-.8-.6-.2-.2-.4-.2-.6-.1-.3.1-.5.5-.8.2.1-.3.2-.5.3-.8v-.2c-.4-.2-.8-.3-1.2-.4-.2-.1-.4-.2-.5-.4-.3-.5-.6-.9-1.2-.9-.1,0-.2-.1-.3-.2.2-.9-.6-.8-1.2-.9.4-.6.4-.8-.1-1.2-.2-.1-.3-.2-.5-.4.7-.6.1-.8-.2-.9-.3-.2-.3-.4-.3-.6h0Z"/>
            <path class="cls-52" d="M77.6,92.7c-1,.2-2,.4-3,.6-.3.1-.4-.1-.5-.3-.6-1.5-1.8-2.2-3.4-2.3-1.2-.1-2.3.1-3.3.8-1.2.8-1.8,2-2,3.4s-.1,2.7.3,4c.6,1.9,2.3,3.1,4.2,3.2,1.5.1,2.8-.4,4.1-1.1.3-.2.4-.3.4-.7v-1.2c0-.4-.1-.5-.5-.5h-3.4v-2.7h7.5v6.1c0,.4-.1.6-.4.8-1.9,1.3-4.1,2.1-6.4,2.2-2.1.1-4.1-.2-5.9-1.4-1.8-1.1-2.8-2.8-3.2-4.9-.6-2.9-.3-5.7,1.7-8.1,1.3-1.5,2.9-2.4,4.9-2.6,2-.3,3.9-.2,5.8.6,1.7.7,2.8,2,3.3,3.7v.2c-.2,0-.2.1-.2.2h0Z"/>
            <path class="cls-20" d="M93.6,92.6c-1.1.2-2,.5-3,.7-.1,0-.4-.1-.5-.2-.7-1.6-1.8-2.4-3.5-2.4-2.1-.1-3.5,1.1-3.9,2.4-.8,2.1-.8,4.3,0,6.5.6,1.8,2.1,2.6,4.1,2.5,1.5,0,2.8-1.1,3.4-2.7.1-.2.2-.5.3-.8,1.1.3,2.1.6,3.2.9,0,1.1-.6,2-1.2,2.8-1.4,1.9-3.3,2.5-5.6,2.6-3.8.1-6.8-1.8-7.8-5.3-.8-2.9-.7-5.8,1-8.5,1.3-2,3.3-3,5.6-3.3,1.6-.2,3.1,0,4.6.7,1.6.7,2.7,1.9,3.2,3.5.1.2.1.4.1.6h0Z"/>
            <path class="cls-9" d="M79,84.7c2.2-1.6,4.5-3,6.6-4.7,3.5-2.8,6.1-6.3,8-10.3.1-.2.3-.5.6-.5.8-.2,1.1.1,1,1-.2,1.3-.8,2.4-1.5,3.5-1.1,1.7-2.4,3.3-3.9,4.7q-.1.1-.2.3c6.5,1.7,12.9,3.5,19.3,5.2-.2.6-.6.6-.9.6-1.1,0-2.2,0-3.2-.1-1.5-.1-2.9-.1-4.4-.3-2.2-.3-4.3-.6-6.4-1-2.3-.4-4.6-1-6.9-1.6-.3-.1-.6,0-.8.2-.5.5-1,.9-1.6,1.4,3.2.6,6.4,1.1,9.5,1.6.1.1.2.2.4.4h-15c-.4,0-.7,0-.6-.4h0Z"/>
            <path class="cls-36" d="M68.1,31.1c1.3,1.1,2.8,1.8,4.5,2.3.8.2,1.5.6,2.2.9.3.1.6.4.9.6.5.5.5.9.1,1.5-1.3,1.6-2.8,2.1-4.7,1.5-.3-.1-.5-.1-.8.2-.7.7-1.4,1.4-2.6,1.6.2.2.3.3.4.4.8.7,1.4,1.5,1.5,2.6,0,.1,0,.3.1.4.2.8.5.9,1.1.4.9-.6,1.8-.9,2.9-.6.8.2,1.2.7,1.3,1.5.2,1.8-.4,3.3-1.6,4.6-.9,1-2,1.9-2.8,3-2.2,2.6-.8,7.7,2.6,8.5,2.2.6,4.1-.1,5.7-1.6,1.9-1.8,2.5-4.2,2.4-6.8,0-.5-.1-1-.2-1.4h-1.7c-.8-.1-1.1-.6-.6-1.3.2-.3.5-.6.8-.8.6-.4.8-.9,1-1.6,0-.2.1-.4.3-.7.2.3.3.4.3.5.8,2.2,1.6,4.4,1.6,6.7.1,3.4-1.9,7.4-5.7,8.5-3.1.9-6.4-.2-8-2.8-1.5-2.5-1.1-6.5,1-8.6.9-.9,1.8-1.8,2.7-2.7.6-.6.9-1.3,1-2.1.1-.6.1-1.2-.5-1.6-.5-.4-1.1-.3-1.7,0-.5.2-.9.6-1.4.8-.6.3-1.1.2-1.4-.2-.1-.3-.3-.6-.2-.9.1-2-.8-3.4-2.4-4.6,1.3-.6,2.7-1.1,3.6-2.2-.5-.5-1.2-1-1.1-1.8,0-.8.6-1.3,1.1-1.7-.5-.5-1-1.1-1.5-1.6,0-.1-.1-.3-.1-.4-.5-.4-.4-.5-.1-.5h0ZM72.1,37.2c.9-.1,1.8-.2,2.4-.9.3-.3.4-.8,0-1-.8-.4-1.7-.9-2.6-1.1-.6-.2-.8,0-.7.7,0,.5.1,1.1-.1,1.6-.1.5-.2.6.4.7h.6ZM69.5,35.1c.1.3.1.6.2.8s.3.2.5.3c.1-.2.2-.3.2-.5s0-.5-.1-.7-.3-.3-.4-.5c-.1.3-.2.5-.4.6h0Z"/>
            <path class="cls-47" d="M67.2,59.3c.8,1.5,1.8,2.8,3.3,3.8,2.8,1.7,6.7,1.4,9.3-.6,2.2-1.7,3.5-3.9,4-6.6.3-1.6.2-3.3-.2-4.9-.6-2.4-1.2-4.7-1.9-7.1-.1-.2-.1-.4-.1-.6-.1-.8-.3-1.7-.4-2.6h.2c.2.6.3,1.2.5,1.8.5,1.3,1,2.5,1.5,3.8.1.2.3.4.4.6.9,2.1,1.6,4.2,1.8,6.4.5,4-.9,7.4-3.6,10.3-1.8,1.9-4.1,2.9-6.8,2.9-4,0-7.7-2.4-8.9-6.3v-1.2c-.1-.9-.2-1.9-.3-2.8h.2c0,.2,0,.5.1.7,0,.2.1.3.2.4h0c-.1.8.1,1.4.7,2h0Z"/>
            <path class="cls-38" d="M55.1,71.4c.5,0,.9-.1,1.3-.1,1.2.2,2.4.3,3.7,0,.3-.1.7,0,1-.1-.4,0-.8-.1-1.2-.1-.2,0-.5-.1-.7-.2h2.8c.2,0,.3-.1.5-.2.7-.1,1.5-.1,2.2-.3.2,0,.5-.3.7-.4-.3-.1-.5-.2-.8-.1-1.8,0-3.6.1-5.5.1-1.1,0-2.3-.2-3.4-.4-.3,0-.6,0-.6.4,0,.2.3.4.4.4.7.1,1.3.2,2,.3,0,.1.1.1.1.2-.8-.1-1.5-.1-2.3-.2-.3,0-.6-.2-.5-.6,0-.1,0-.3-.2-.5-.1.2-.2.5-.3.7s-.3.3-.4.4c-.2.5-.3,1.1-.5,1.6-.1.3-.1.5-.2.8v.2l.6,2.4c.2.6.5,1.3.7,1.9-2-3.1-2-6.6.7-9.1.2.2.4.4.6.4,2,.3,4.1.5,6.1.4.8-.1,1.5-.1,2.2-.1.3,0,.6-.1.8-.2,0,.2-.1.4-.1.6.3.2.9.4.2.9.2.1.4.3.5.4v.2c-.2-.1-.4-.2-.6-.2-.9.1-1.7.4-2.6.4-1.8.1-3.5.2-5.3.3-.8,0-1.5-.1-2.3-.1q.3,0,.4-.1h0Z"/>
            <path class="cls-50" d="M83.7,46.8c-.2-.2-.3-.4-.4-.6-.5-1.2-1-2.5-1.5-3.8-.2-.6-.3-1.2-.5-1.8h-.2c.1.8.3,1.7.4,2.6-.3-1.1-.6-2.2-.8-3.2-.4-2.1-.6-4.2-.4-6.3.1-.9.3-1.9.4-2.8h.2v1.4c0,1.7,0,3.5.1,5.2.1,1.9.7,3.8,1.4,5.6.4,1.2.9,2.4,1.3,3.7h0Z"/>
            <path class="cls-18" d="M34.6,59.5v7.6c0,.9.3,1.7.4,2.6.1.5,0,1.1,0,1.6-.1-.9-.4-1.8-.4-2.6-.1-2.4-.2-4.8-.2-7.1,0-.7.2-1.4.2-2.1h0Z"/>
            <path class="cls-1" d="M79,84.7c-.1.5.2.4.5.4h15c-.2-.2-.3-.2-.4-.4.2.1.5.2.8.3-.3.1-.5.2-.8.2h-15c-.1,0-.3-.1-.2-.2-.1-.2,0-.2.1-.3h0Z"/>
            <path class="cls-24" d="M66.5,57.3c-.1-.2-.2-.3-.2-.4-.1-.2,0-.5-.1-.7h-.2c.1.9.2,1.9.3,2.8v1c-.1-.9-.3-1.9-.4-2.8-.1-.5,0-1,.1-1.5.1-.8.3-1.5.5-2.3v3.9h0Z"/>
            <g>
              <path class="cls-14" d="M86.3,66.2c-.3.3-.6.6-.8.9,0,0-.1,0-.1-.1.2-.9.4-1.9.7-2.8.7-2.8,1.2-5.7,1.3-8.6.2-3.5-.6-6.8-1.8-10.1-.1-.3-.2-.6-.3-.9-.3-.8-.6-1.6-.9-2.4h0c-.3-.9-.6-1.7-.9-2.6-1.3-4.2-1.8-8.4-.1-12.6.2-.5.5-1,.7-1.4.1.1.2.3.3.4-.9,3-1.5,6-.8,9.1.6,2.7,1.9,5.2,3.1,7.6,1.4,2.9,2.7,5.8,3.4,8.9,1.1,5.5,0,10.4-3.8,14.6h0Z"/>
              <path class="cls-14" d="M80.3,81.3c-2.3,1.2-4.6,2.4-6.9,3.6-.3.2-.7.2-1.1.2h-4.9c-.2,0-.3-.2-.5-.2.2-.1.3-.4.4-.4,1.2-.3,2.4-.5,3.6-.9,2.5-.8,4.8-1.9,7-3.2.3-.2.5-.2.8,0,.6.3,1.1.6,1.6.9h0Z"/>
              <path class="cls-14" d="M79.6,79.4c.8-.6,1.6-1.1,2.3-1.6,1.3-1,2.5-2.1,3.7-3.2.4-.3.8-.4,1.2-.2.4.2.9.4,1.4.6-.2.3-.4.6-.5.8-1.6,1.8-3.4,3.2-5.4,4.4-.2.1-.6.1-.8,0-.7-.2-1.2-.5-1.9-.8h0Z"/>
              <path class="cls-14" d="M92.1,69.7c-.2,1.1-.7,1.9-1.2,2.7q-1.2,1.7-3.2,1.2c-.2-.1-.4-.1-.7-.2.2-.2.3-.4.5-.5.9-.9,1.9-1.7,2.5-2.9.1-.1.2-.2.4-.2.5-.1,1-.1,1.7-.1h0Z"/>
              <path class="cls-14" d="M85,64.9h0c-.1.6-.3,1.2-.4,1.8-.1,1.1-.5,2-1.7,2.4-.7.2-1.3.5-1.9.8-1.1.3-2.2.6-3.4.9h0c-.9.1-1.8.1-2.6.2-4-.2-7.3-1.7-9.7-4.9-.5-.6-.8-1.4-1.2-2.1-.7-1.3-1-2.8-1.2-4.2-.2-1.6-.1-3.3.4-4.9.1-.4.3-.7.5-1.1,0,.5,0,1.1-.1,1.6-.4,3,.3,5.7,2.1,8.2l.1.1c1,1.2,2.1,2.4,3.6,3.1,4.6,2.2,10.7,1.7,14.4-2.6,0,0,.1,0,.1-.1.6-.8,1.2-1.6,1.9-2.5,0,0,.1,0,.2.1-.5,1-.8,2.1-1.1,3.2h0Z"/>
              <path class="cls-14" d="M118.1,73.1c-.1.6-.1,1.1-.3,1.7-.2.7-.4,1.4-.6,2-.2.5-.4.9-.6,1.3.5-1.6,1-3.3,1.5-5h0Z"/>
            </g>
            <path class="cls-29" d="M67.2,59.3c-.6-.5-.8-1.2-.7-1.9.2.6.4,1.2.7,1.9Z"/>
            <path class="cls-17" d="M65.8,71.1v-.2c.5.4.5.6.1,1.2.6.1,1.3,0,1.2.9h-.2c.2-.4,0-.6-.4-.6-.2,0-.4.1-.6.1-3.3,1.1-6.7,1.5-10.2,1.2-.3,0-.7-.1-.8.4,0,.4.1.8.6.8,1.2,0,2.4.1,3.6,0,1.2-.1,2.4-.3,3.7-.5-.1.1-.2.2-.4.2-.2.1-.3,0-.5.1-.7.1-1.3.3-1.9.4-.9.1-1.9-.2-2.8.2-.1.1-.3,0-.5,0-.4-.1-.8-.1-1.2-.2-.4,0-.7-.2-.8-.6-.3-.8.4-1,.9-1.5-.8,0-1.1-.4-1.2-1,0-.4.3-.5.6-.6v.1c-.6.7-.5,1.1.4,1.3.2.1.5.1.7.1,2.7.1,5.3-.2,7.9-.7.7-.1,1.4-.2,1.9-.8,0,0,0-.2-.1-.3h0Z"/>
            <path class="cls-26" d="M72.6,77.1c-1.3.6-2.5,1.4-3.9,1.9-2.4,1-4.9,1.7-7.5,2.1-.1,0-.3,0-.4.1-.1.1-.2.2-.2.2,0,.1.1.2.2.2.6.3,1.2.7,2,.3.6-.3,1.3-.4,2-.7-.4.4-.9.6-1.4.7-.3.1-.5.1-.8.2-.6.4-1.2,0-1.7-.2s-.5-.6-.4-1c-.7-.2-1.4-.4-2-.6-.3-.1-.4-.2-.4-.4h.3c.4.2.8.4,1.2.5.7,0,1.4,0,2.1-.2,2.5-.4,4.9-1.3,7.3-2.3.9-.4,1.8-.9,2.8-1.4.4-.2.4-.4,0-.6-.1,0-.1-.1-.2-.1l.1-.1c.3.2.5.4.8.6-.2.3-.4.4-.6.7l.7.1h0Z"/>
            <path class="cls-2" d="M66.9,73h.2c.1.1.2.2.3.2.6,0,.9.4,1.2.9.1.2.3.3.5.4.4.2.8.3,1.2.4v.2h-.2c-.4-.2-.8-.5-1.2-.4-.2,0-.3.1-.5.1-.4.2-.8.4-1.2.6,0-.1-.1-.1-.1-.2.2-.1.3-.2.5-.3.3-.2.5-.4.8-.7-.1-.7-.6-.9-1.2-.6-3.1,1.5-6.4,2.2-9.8,2.2-.4,0-.8-.1-1.2-.1-.2,0-.5.1-.7.1v-.7c.4.1.8.1,1.2.2.2,0,.3.1.5,0,.9-.4,1.9-.1,2.8-.2.7-.1,1.3-.2,1.9-.4.2,0,.3,0,.5-.1.1,0,.3-.2.4-.2,1.4-.4,2.7-.9,4.1-1.4h0Z"/>
            <path class="cls-48" d="M70.1,75.2h.2c-.1.2-.2.5-.3.8.3.3.6-.1.8-.2.3-.1.4-.1.6.1l-.1.1c-.3.1-.8.2-1.1.3-3.6,2.1-7.5,3-11.6,3.2-.2,0-.4.1-.6.2.1.2.2.3.3.5h-.3c-.2-.2-.4-.5,0-.8v-.3c.1-.1.2-.1.2-.2,2.4,0,4.7-.3,7-1.1,1.4-.5,2.8-1.2,4.2-1.8.4-.2.8-.3.7-.8h0Z"/>
            <path class="cls-3" d="M58.3,78.8c-.1.1-.2.1-.2.2-.4-.1-.9-.1-1.3-.3-.5-.2-.5-.9-.2-1.3.1-.1.1-.2.2-.3-.3,0-.5,0-.7-.1-.1,0-.2-.2-.4-.2,4.2.5,8.2-.3,12-2.2.2-.1.5-.3.7-.4-.3.2-.5.5-.8.7-.2.1-.3.2-.5.3,0,.1.1.1.1.2.4-.2.8-.4,1.2-.6.2-.1.3-.1.5-.1-1,.5-2,1.1-3,1.5-2.8,1.1-5.7,1.4-8.7,1.4-.2,0-.5.1-.7.2.1.2.2.5.3.6s.3.2.5.2c.3.2.7.2,1,.2h0Z"/>
            <path class="cls-27" d="M57.7,70.9c0-.1-.1-.1-.1-.2h4.8c-.2.1-.3.1-.5.1h-2.8c-.4.1-.9.1-1.4.1h0Z"/>
            <path class="cls-14" d="M42.6,85.2c-3.7-6.2-5.9-13.4-5.9-21.1,0-22.6,18.4-40.9,40.9-40.9s40.9,18.3,40.9,40.9c0,8-2.3,15.4-6.2,21.7l2.3,1.4c4.2-6.7,6.7-14.6,6.7-23.1,0-24-19.6-43.6-43.6-43.6s-43.6,19.6-43.6,43.6c0,8.2,2.3,15.9,6.3,22.5l2.2-1.4h0Z"/>
          </g>
          <path class="cls-8" d="M106.7,91h-4.5v12.9h-3.8v-12.9h-4.5v-2.9h12.9l-.1,2.9h0Z"/>
        </g>
      </g>
      <path class="cls-14" d="M175.65,176.72h3.3v.8h-3.3v-.8ZM177.75,175.52v3.3h-.8v-3.3h.8Z"/>
      <g>
        <path class="cls-54" d="M107,125c-.9.2-1.7.2-2.5.1-1.1-.1-2.2-.5-3.1-1.1-1.5-.9-2.4-2.2-2.7-3.8-.4-1.9.1-3.5,1.4-5,1-1.1,2.4-1.8,4-2.1,2.3-.4,4.2.1,6,1.5.1.1.2.2.1.3-.6.6-1.1,1.2-1.6,1.8h0c-.7-.7-1.6-1.1-2.7-1.2-1-.1-1.9.2-2.7.7-1.7,1.1-1.9,2.8-1.3,4.2.3.7.8,1.2,1.5,1.6.7.4,1.4.5,2.3.6.2.8.8,1.6,1.3,2.4h0Z"/>
        <path class="cls-32" d="M94.2,113h2.5v12.1h-2.5v-12.1Z"/>
        <path class="cls-40" d="M106.3,118.5s.1,0,0,0q.1.1.1.2h0c.1.1.2.2.2.3h0l.1.1h0q.1.1.2.2h0c.1.1.1.2.2.2h0l.1.1h0l.1.1h0v.1c.1.2.3.4.4.6,0,0,.1,0,.1.1h0v.2c-.1,0-.2-.1-.3-.1-.1-.1-.2-.2-.3-.2-.2-.1-.2-.2-.3-.4,0-.1-.1-.2-.2-.3s-.2-.2-.3-.4v-.2c-.2,0-.2-.2-.3-.3,0-.1-.2-.1-.3-.2-.1-.1-.1-.2-.2-.2-.1-.1-.1-.2-.2-.3-.4-.1-.8-.2-1.2-.1l-.1.1c-.1.1,0,.4.2.6q.1.1.2.2c.1.2.3.4.4.6.1.1.2.3.2.4s.1.1.1.1c.1.1.2.2.3.4.2.2.1.5.4.6v.1c0,.2.2.3.4.5.1.1.2.2.2.3l.3.6c.1.1.3.2.3.4s.2.4.3.6.4.1.6.2c.1,0,.2-.1.2-.2.1-.1.1-.2.2-.3q-.1-.1.1-.2c.2-.1.2-.2.3-.3.1-.1.1-.2.2-.3s.3-.2.3-.3c.2-.2.3-.4.4-.6,0-.1.1-.2.1-.2.2-.1.4-.2.4-.5v-.1c.1-.2.3-.3.4-.5,0-.1.1-.1.1-.1.2-.1.3-.2.3-.4q0-.1.1-.1c.3-.1.5-.3.6-.6.1-.2.5-.3.3-.6h.2q.1,0,.2-.1c0-.1,0-.2.2-.3,0-.2.5-.2.4-.6l.1-.1c.1,0,.1-.1.1-.1.2-.2.3-.4.5-.6v-.3h.1c.1-.1.2-.2.3-.3h.1c.2-.1.2-.2.2-.3h.1c.1,0,.1-.1.2-.1.2-.2.4-.4.6-.7v-.1c.1-.1.2-.1.2-.2l.1-.1c.1-.1.2-.2.3-.4.1-.1.1-.2.2-.3.1,0,.1-.1.2-.1l.1-.1c.1-.2.2-.4.3-.5.1,0,.1.1.2.1,0-.1.1-.2.1-.2,0-.2.1-.3.2-.3.3-.1.4-.3.6-.6,0,0,0-.1.1-.1.3-.1.4-.3.6-.5.1-.1.2-.3.3-.4.1-.1.1-.2.2-.3.1-.2,0-.3-.2-.3h-.5c.1-.1.2-.1.3-.1h1.2c-4,4.7-8,9.5-12.1,14.2,0,0-.1,0-.1-.1-.8-1.2-1.6-2.3-2.4-3.5-.7-1-1.4-2-2.1-3v-.3h1.7c.2,0,.4,0,.6.1h0c0,.1.1.1.1.1h0c0,.1.1.1.1.1h0l.1.1h0l.1.1h0l.5.3h0Z"/>
        <path class="cls-30" d="M116.9,115.5c-.2.3-.4.6-.7,1-.7,1-1.4,1.9-2.1,2.9h0c0,.1-.1.1-.1.2h0l-.1.1h0s-.1,0-.1.1c-.2.2-.3.4-.4.6v.1h0c-.2.2-.4.4-.5.7h0l-.1.1h0c0,.1-.1.1-.1.2h0c-.2.2-.4.4-.4.6h0l-.1.1h0c-.2.1-.2.2-.3.4h0c-.2.1-.3.2-.3.4h0c-.1,0-.2.1-.2.1-.1.2-.3.4-.4.6-.2.2-.3.5-.5.8-.2.2-.3.4-.7.4h-.9s-.1,0-.1-.1l.1-.1c0-.1.1-.2.1-.2h0v-.1c.2-.2.3-.4.5-.6.4-.1.5-.4.6-.7h0s0-.1.1-.1h0c.1,0,.2,0,.2-.1.2-.2.4-.5.6-.8q0-.1.1-.2h0c.2,0,.2-.2.3-.3.1-.2.3-.3.4-.5.1,0,.1-.1.2-.1.4-.4.7-.9,1.1-1.3q.1-.1.1-.2h0c.2-.1.4-.3.5-.6,0-.1.1-.1.1-.2s.1-.1.1-.1h0c.2,0,.2-.1.2-.2h0c0-.1.1-.1.1-.1h0l.1-.1h0c.2-.1.3-.2.3-.4h0l.1-.1h0v-.1c.2-.2.3-.4.5-.6h.1c.2-.3.5-.5.7-.8.1-.1.1-.2.1-.3.1-.1.2-.3.3-.4,0-.1.1-.1.1-.1h.1c0,.2-.2.3-.2.6q.1-.1.2-.2c.1-.1.2-.2.3-.3,0-.1,0,0,0,0h0Z"/>
        <path class="cls-35" d="M106.5,119.3c.1.1.2.2.3.4.1.1.2.2.2.3,0,.2.1.3.3.4.1.1.2.2.3.2.1.1.2.1.3.1l.1.1h0s0,.1.1.1c0,0,0-.1.1-.1h0c.1-.1.2-.1.2-.2.1-.1.2-.3.4-.3,0-.1,0-.2.1-.2l.5-.5c.1-.1.2-.3.4-.4h0c.2,0,.2-.2.3-.3h.1c.4-.4.8-.8,1.2-1.2v-.1h.1c.3-.3.7-.6,1-1,.1-.1.1-.2.1-.2h0l.1-.1c.1-.1.2-.2.3-.3v-.1h0l.1-.1h0q.1,0,.2-.1c.5-.5,1.1-1,1.6-1.6q.1-.1.2-.2h0s.1,0,.1-.1l.7-.7v-.1h0l.5-.5h0q.1-.1.2-.2h0q.1-.1.2-.2h0c.1-.1.2-.1.2-.2h0c.2-.2.4-.3.6-.5v-.1h0l.1-.1h.1c.1-.1.2-.2.3-.4h0c.1.3,0,.3-.3.5-.1,0-.1.1-.1.2.1.2-.1.2-.2.1-.1.2-.2.3-.3.5-.3.1-.4.3-.5.6-.1,0-.3-.1-.3.2,0,.2,0,.3-.2.2-.2.2-.4.4-.6.7l-.5.5c-.1.1-.1.2-.2.3s-.1.1-.2.1-.1.1-.2.1q-.1.1-.2.2l-.1.1c-.1.1-.2.2-.3.3-.1.1-.2.2-.2.3h-.1c-.1,0-.1-.1-.2-.1-.1.1-.2.1-.2.2q.2.1-.1.2c-.1,0-.1.1-.1.1,0,.1-.1.1-.1.2q-.1.1-.2.2c-.2.2-.3.4-.6.5l-.1.1c0,.2-.1.2-.3.3q-.1.1-.2.2l-.1.1c-.2.2-.4.3-.5.6,0,0,0,.1-.1.1-.3.1-.3.3-.4.4-.1.1-.2.2-.3.2-.2.1-.3.2-.3.3-.1.2-.2.5-.6.6-.1,0-.1.1-.2.1-.1.1-.1.2-.2.3-.3.2-.4.4-.5.7-.2,0-.3-.1-.4,0-.2.1-.5.2-.7.3-.3.1-.4.2-.5-.1,0-.1.1-.2.1-.2,0-.1-.2-.1-.3-.1.1,0,.2-.1.3-.1l.1-.1-.1-.1c-.3-.1-.4-.2-.5-.5,0-.1-.1-.1-.2-.2q-.1.1-.2.1h-.1v-.4c0-.1,0-.2-.2-.2l-.1-.1h.2c.1,0,.1.1.2.2q.6-.1.6-.2h0Z"/>
        <path class="cls-6" d="M101.1,128q.3,0,.3-.2v-.3c.2-.1.2,0,.2.1v.4h.4v-.9h.2v.9h.7c.1,0,.2-.1.1-.1,0-.1-.1-.2-.1-.3h-.2c-.1,0-.1.1-.2.1-.1-.2,0-.3.2-.3.3,0,.5.1.5.5h.1c.2,0,.3-.1.3-.2,0-.2.1-.3.4-.3.2,0,.3.1.3.3v.2h.3v-.9h.2v1h-3.5c0,.1.1.2.1.2.1,0,.2-.1.2-.1h0c-.1,0-.1.1-.1.1-.1,0-.3.1-.3-.1,0-.3-.2-.2-.3-.2-.2,0-.4,0-.5-.2s0-.4.2-.4c.2-.1.4,0,.5.2-.1.2-.1.3,0,.5h0ZM103.6,127.9q.1.1.2.1c.2,0,.2-.1.2-.2s0-.2-.2-.2-.2.1-.2.3ZM100.8,127.9c0-.1,0-.3-.2-.3-.1,0-.2.1-.2.2s.1.2.2.2q.2,0,.2-.1h0Z"/>
        <path class="cls-7" d="M107.5,128h.4c0-.2,0-.3.1-.5h.1v.5h.3c.1-.2-.2-.5.3-.5.1,0,.3,0,.4.1s0,.2,0,.4h.4v-.8c0-.1.1-.1.1-.2,0,.1.1.1.1.2v.9h-3.6c-.2,0-.4-.2-.3-.4s.3-.3.6-.2c.1,0,.1.2.2.2,0,.1,0,.2.1.3h.3c0-.1,0-.2.1-.3,0-.2.2-.2.3-.2.2,0,.3.1.4.3-.3,0-.3.1-.3.2h0ZM106.4,127.9c-.1-.2,0-.3-.2-.3s-.2.1-.2.2.1.2.3.2c-.1,0,0-.1.1-.1h0ZM107,127.8c0,.1,0,.2.2.2.1,0,.2,0,.2-.2,0-.1,0-.3-.2-.3-.2.1-.2.2-.2.3h0ZM108.6,127.6c.1.1-.1.3.2.4q.2,0,.2-.2t-.4-.2h0Z"/>
        <path class="cls-53" d="M97.3,127.4c.3,0,.3.2.3.4s.2.2.3.2c0-.5.1-.6.5-.5.3,0,.3.2.2.6h.4v-.8q0-.1.2-.1v1h-3.2v-1s.1-.1.2-.1v.9h.4v-.5c.2,0,.3.1.4,0,.1,0,.1-.2.1-.3q.2-.1.2.2s-.1,0,0,0c0,.2-.1.2-.3.2h-.2c0,.1,0,.2-.1.4h.8c0-.1,0-.2-.1-.2,0-.2-.1-.3-.1-.4h0ZM98.1,128c.2-.1.3-.1.4-.1.1-.1,0-.2,0-.3,0,0-.2-.1-.2,0-.2.1-.1.2-.2.4h0Z"/>
        <path class="cls-7" d="M101.1,130.3c-.1-.1-.2-.1-.2-.1-.2-.2-.3-.4-.5-.7l-.1-.1v.8h-.2v-.9q0-.1.1-.2c.1,0,.2.1.2.1.1.2.2.3.4.5,0,.1.1.1.2.1v-.6c0-.1.1-.1.2-.1l-.1,1.2h0Z"/>
        <path class="cls-12" d="M118.6,112.8c.2-.2.3-.4.5-.6.1,0,.1-.1.1-.1q.1,0,.2-.1c-.5.7-.9,1.3-1.4,1.9,0,.1-.1.1-.1.2h0q-.1.1-.2.2v.1h-.1c.1-.2.2-.3.2-.5.1-.1.2-.1.2-.2v-.2h0c.1,0,.3-.2.3-.4h0c.2,0,.2-.1.2-.2q.1,0,.1-.1h0Z"/>
        <path class="cls-53" d="M103.1,129.8c.1.2.2.3.3.4-.2.1-.2,0-.3-.1-.1-.3-.2-.3-.5-.3v.4h-.2v-1.1h.6c.2,0,.3.1.3.2.1.3,0,.4-.2.5h0ZM102.6,129.6s0,.1,0,0c.2,0,.4,0,.5-.1,0,0,0-.2-.1-.2s-.3-.1-.4,0v.3h0Z"/>
        <path class="cls-6" d="M98.2,129.2c.3,0,.6.2.6.6,0,.3-.2.6-.6.6s-.6-.2-.6-.6c.1-.4.3-.6.6-.6ZM98.6,129.7c0-.3-.1-.4-.4-.4-.2,0-.3.1-.3.3-.1.2.1.5.3.5s.4-.1.4-.4h0Z"/>
        <path class="cls-45" d="M94.7,129.5v.8h-.2v-1.1c.1.1.2.1.2.2.2.2.3.4.5.7v-.8h.2v1.1h-.1q-.1-.1-.2-.1c0-.4-.2-.6-.4-.8h0Z"/>
        <path class="cls-7" d="M99,129.2q.2,0,.2.1v.6c0,.1,0,.2.2.2s.3-.1.3-.2v-.7h.2c0,.3,0,.5-.1.8s-.5.4-.8.3c-.1,0-.1-.1-.1-.2.1-.4.1-.6.1-.9h0Z"/>
        <path class="cls-23" d="M117.7,114c-.1.2-.2.3-.2.5h.1v.1h0c-.1,0-.1.1-.2.1-.2.2-.3.5-.5.7-.1.1-.2.2-.3.3,0,0-.1.1-.2.2-.1-.2.2-.4.2-.6.1-.2.2-.4.4-.6h0s0-.1.1-.1h0c.2,0,.2-.1.2-.2h0s0-.1.1-.1h0c0-.1.1-.1.1-.2h0l.1-.1h.1q-.1,0,0,0h0Z"/>
        <path class="cls-6" d="M97.4,129.6c-.1,0-.2-.1-.2-.1-.1-.2-.2-.2-.4-.1-.1,0-.2.1-.2.2v.3c0,.1.2.2.3.2s.2-.1.3-.2l.1-.1v.2c-.1.3-.5.3-.8.1s-.3-.6-.1-.9c.1-.2.3-.1.5-.1.4.1.6.2.5.5h0Z"/>
        <path class="cls-6" d="M109.3,129.2c.5,0,.7,0,.8.1h-.6v.3h.5c0,.1-.2.1-.5.2v.3h.6v.2h-.8v-1.1h0Z"/>
        <path class="cls-6" d="M106.9,130.3c-.1-.1-.2-.1-.2-.1-.1-.2-.2-.2-.4-.2s-.2.1-.2.2l-.1.1s-.1,0-.1-.1c.2-.3.3-.7.5-1,0-.1.2-.1.2,0,.1.4.2.7.3,1.1.1,0,0,0,0,0h0ZM106.4,129.4c-.1.2-.1.3-.2.5h.4c0-.2-.1-.3-.2-.5Z"/>
        <path class="cls-45" d="M109,129.2v.8c0,.2-.2.4-.5.3-.3,0-.4-.1-.4-.4v-.6l.1-.1h.1v.6c0,.2.1.4.2.4.2,0,.3-.1.3-.4v-.5q.1-.1.2-.1h0Z"/>
        <path class="cls-6" d="M104.9,129.2c.2,0,.3,0,.3.2.1.2.2.4.3.7.1-.2.2-.5.3-.7,0-.2.1-.2.3-.1-.1.3-.3.7-.4,1l-.1.1-.1-.1c-.1-.2-.2-.4-.3-.7-.2-.2-.3-.3-.3-.4h0Z"/>
        <path class="cls-53" d="M103.9,129.6c.1-.1.2-.3.3-.4h.2c-.2.4-.5.6-.4,1.1h-.1c-.1,0-.1-.1-.1-.1,0-.4-.2-.6-.4-.9v-.1c.4,0,.3.3.5.4h0Z"/>
        <path class="cls-11" d="M108.7,124.8l.1.1h.9c.3,0,.5-.2.7-.4s.3-.5.5-.8c.1-.2.3-.4.4-.6,0-.1.1-.1.2-.1-.4.6-.9,1.2-1.3,1.8,0,.1-.1.1-.2.1-.5,0-.9,0-1.3-.1-.1.1-.2.1,0,0q-.1,0,0,0Z"/>
        <path class="cls-53" d="M95.1,128l-.1.1q-.1,0-.2-.1c-.1.1-.3.1-.5,0s-.2-.2-.2-.4.2-.2.4-.2.3.1.3.3c0,.2.1.3.3.3h0ZM94.8,127.8c-.1-.1-.2-.2-.3-.2-.2,0-.2.1-.2.2s.1.2.2.2.1-.1.3-.2h0Z"/>
        <path class="cls-53" d="M101.9,130.3h-.2v-.6q0-.3-.4-.3c0-.1,0-.2.1-.2h.8c0,.1-.1.1-.3.2v.9h0Z"/>
        <path class="cls-53" d="M95.1,128v-.3c0-.2.1-.3.3-.3.3,0,.4.1.4.2v.4c-.2.1-.5.2-.7,0h0ZM95.7,127.8c0-.2-.1-.3-.2-.3s-.2.1-.2.2,0,.2.2.2c.1.1.1,0,.2-.1Z"/>
        <path class="cls-45" d="M107.4,129.2v.9h.6c0,.1,0,.2-.2.2h-.6v-1.1h.2Z"/>
        <path class="cls-55" d="M105.8,117.9c-.2,0-.4-.1-.6-.1h-1.7v.2q-.1-.1-.2-.2h2.2c.1-.1.3-.1.3.1Z"/>
        <path class="cls-33" d="M94.3,129.2v1.1h-.2v-1c0-.2.1-.1.2-.1Z"/>
        <path class="cls-55" d="M109.8,119.1c-.1.2-.2.3-.4.4l-.5.5q-.1.1-.1.2c-.2,0-.3.2-.4.3s-.2.1-.2.2c.2-.2.3-.4.5-.6.4-.3.7-.6,1.1-1h0Z"/>
        <path class="cls-43" d="M115.3,113.8c-.1.1-.1.2-.2.2-.5.5-1.1,1-1.6,1.6,0,0-.1.1-.2.1.4-.4.8-.8,1.2-1.2.3-.3.6-.5.8-.7h0Z"/>
        <path class="cls-33" d="M110.1,127.1v1l-.1.1h-.1v-1c0-.1.1-.1.2-.1-.1-.1-.1,0,0,0h0Z"/>
        <path class="cls-54" d="M99.6,127.1v.9l-.1.1h-.1v-1h.2Z"/>
        <path class="cls-53" d="M105.1,127.1v1c-.1,0-.2,0-.2-.1v-.8s.1-.1.2-.1h0Z"/>
        <path class="cls-51" d="M113,119.5c0,.1-.1.2-.1.2-.4.4-.7.9-1.1,1.3,0,.1-.1.1-.2.1.2-.2.4-.5.6-.8.3-.2.5-.5.8-.8h0Z"/>
        <path class="cls-55" d="M111.4,117.5v.1c-.4.4-.8.8-1.2,1.1h-.1c.4-.3.9-.7,1.3-1.2Z"/>
        <path class="cls-55" d="M112.7,116.3c0,.1-.1.2-.1.2l-1,1h-.1c.4-.4.8-.8,1.2-1.2Z"/>
        <path class="cls-51" d="M116,115.9c-.1.1-.1.2-.1.3-.2.3-.4.5-.7.8h-.1c.3-.3.6-.7.9-1.1,0,.1,0,0,0,0h0Z"/>
        <path class="cls-51" d="M110.9,122q0,.1-.1.2c-.2.3-.4.5-.6.8,0,0-.1.1-.2.1.3-.4.6-.8.9-1.1Z"/>
        <path class="cls-11" d="M116.9,115.5c.2-.2.3-.5.5-.7,0-.1.1-.1.2-.1-.3.2-.5.5-.7.8h0Z"/>
        <path class="cls-51" d="M110,123.1c-.1.3-.2.6-.6.7.2-.3.4-.5.6-.7Z"/>
        <path class="cls-45" d="M95.7,129.9v-.1h.5q0,.2-.5.1h0Z"/>
        <path class="cls-43" d="M116.2,112.9v.1l-.7.7s-.1,0-.1.1c.2-.3.5-.6.8-.9h0Z"/>
        <path class="cls-44" d="M119.4,112q-.1,0-.2.1c-.1,0-.1.1-.1.1.2-.2.3-.4.5-.5h.1c-.1.1-.2.2-.3.3h0Z"/>
        <path class="cls-55" d="M107.9,120.5s-.1,0-.1-.1c-.2-.2-.3-.4-.4-.6v-.1c.1.3.3.5.5.8h0Z"/>
        <path class="cls-10" d="M108.9,127.4c-.2-.1-.3-.1-.4-.2.3-.1.4-.1.4.2Z"/>
        <path class="cls-11" d="M113.3,120.5v-.1c.1-.2.3-.4.4-.6,0,0,.1,0,.1-.1-.1.3-.3.5-.5.8h0Z"/>
        <path class="cls-51" d="M116.9,114.8c-.1.2-.2.4-.4.6h-.1c.2-.2.4-.4.5-.6Z"/>
        <path class="cls-11" d="M112.8,121.2c.1-.3.3-.5.5-.7-.2.2-.3.4-.5.7Z"/>
        <path class="cls-53" d="M100.8,127.3h-.5v-.1h.4q.1,0,.1.1Z"/>
        <path class="cls-43" d="M117.8,111.3v.1c-.2.2-.4.3-.6.5.3-.2.4-.4.6-.6h0Z"/>
        <path class="cls-11" d="M112.2,122.1c.1-.2.2-.5.4-.6-.1.2-.3.4-.4.6Z"/>
        <path class="cls-51" d="M113.5,118.9c-.1.2-.3.4-.5.6.2-.2.3-.4.5-.6Z"/>
        <path class="cls-13" d="M119.7,111.6h-.1c.1-.1.2-.3.4-.4h.1c-.2.1-.3.3-.4.4h0Z"/>
        <path class="cls-33" d="M94.2,127.2h.4v.1c-.1.1-.2,0-.4-.1q0,.1,0,0Z"/>
        <path class="cls-35" d="M118.3,110.9c.1-.1.2-.2.4-.3h0c0,.2-.2.2-.4.3h0Z"/>
        <path class="cls-11" d="M111.5,123c0-.2.1-.3.3-.4-.1.1-.2.3-.3.4Z"/>
        <path class="cls-30" d="M118.3,113.2c0,.2-.2.4-.3.4.1-.2.2-.3.3-.4Z"/>
        <path class="cls-43" d="M116.7,112.5l-.5.5c.2-.2.3-.4.5-.5Z"/>
        <path class="cls-51" d="M114.5,117.7c0,.2-.1.3-.3.4.1-.1.2-.3.3-.4Z"/>
        <path class="cls-51" d="M111.2,121.7c-.1.1-.1.3-.3.3.1-.1.2-.2.3-.3Z"/>
        <path class="cls-11" d="M111.8,122.6c.1-.2.1-.3.3-.4-.1.1-.2.2-.3.4Z"/>
        <path class="cls-51" d="M108.7,124.8s-.1,0,0,0c0-.1.1-.2.2-.3,0,.1-.1.1-.1.2q-.1,0-.1.1Z"/>
        <path class="cls-23" d="M117.9,113.7c0,.1-.1.2-.2.2h0v-.1l.1-.1c0,.1.1,0,.1,0h0Z"/>
        <path class="cls-55" d="M110.1,118.8c-.1.1-.1.3-.3.3.1-.1.2-.2.3-.3Z"/>
        <path class="cls-55" d="M106.7,119c-.1-.1-.2-.2-.2-.3,0,.1.1.2.2.3Z"/>
        <path class="cls-51" d="M113.9,118.4c0,.1,0,.2-.2.2.1,0,.1-.1.2-.2Z"/>
        <path class="cls-30" d="M118.5,112.9c0,.1-.1.2-.2.2.1,0,.2-.1.2-.2Z"/>
        <path class="cls-19" d="M120.3,110.7c-.1.1-.1.2-.2.3h0c.1-.1.2-.2.2-.3h0Z"/>
        <path class="cls-23" d="M117.6,114.4q.1-.1.2-.2c0,.1-.1.1-.2.2q.1,0,0,0Z"/>
        <path class="cls-55" d="M107.2,119.6c-.1-.1-.1-.2-.2-.2,0,0,.1.1.2.2Z"/>
        <path class="cls-51" d="M117.2,114.5c0,.1,0,.2-.2.2q.1-.1.2-.2Z"/>
        <path class="cls-55" d="M108,120.7l-.1-.1v-.2c0,.2.1.2.1.3h0Z"/>
        <path class="cls-43" d="M117.3,111.9c-.1.1-.2.2-.2.2,0,0,.1-.1.2-.2Z"/>
        <path class="cls-19" d="M120,111.2h0q0-.1.1-.2h0c0,.1,0,.2-.1.2h0Z"/>
        <path class="cls-55" d="M107,119.3q-.1-.1-.2-.2c0,.1.1.1.2.2Z"/>
        <path class="cls-11" d="M112.6,121.5c0-.1.1-.1.1-.2q0,.1-.1.2Z"/>
        <path class="cls-51" d="M113.7,118.7c0,.1-.1.1-.1.2.1-.1.1-.2.1-.2Z"/>
        <path class="cls-30" d="M117.9,113.7h-.1q.1-.1.2-.2c-.1.1-.1.2-.1.2h0Z"/>
        <path class="cls-43" d="M116.9,112.3q-.1.1-.2.2.1-.1.2-.2Z"/>
        <path class="cls-23" d="M117.9,114.1c0-.1.1-.1.1-.1l-.1.1Z"/>
        <path class="cls-11" d="M114,119.6c0-.1.1-.1.1-.2q-.1.1-.1.2Z"/>
        <path class="cls-51" d="M116.4,115.4s-.1.1-.1.2c.1-.1.1-.2.1-.2Z"/>
        <path class="cls-51" d="M117.4,114.3l-.1.1s0-.1.1-.1Z"/>
        <path class="cls-51" d="M114,118.3l-.1.1.1-.1Z"/>
        <path class="cls-43" d="M117,112.1q-.1.1-.2.1c.1,0,.2,0,.2-.1Z"/>
        <path class="cls-55" d="M106.1,118.2l-.1-.1s.1,0,.1.1Z"/>
        <path class="cls-55" d="M106,118l-.1-.1q0,.1.1.1Z"/>
        <path class="cls-19" d="M120.4,110.6s-.1.1-.1.2h0c0-.1.1-.2.1-.2h0Z"/>
        <path class="cls-55" d="M108.2,120.7s-.1.1,0,0c-.1.1-.1,0-.1,0h.1Z"/>
        <path class="cls-55" d="M112.9,116.2l-.1.1q0-.1.1-.1Z"/>
        <path class="cls-43" d="M113.4,115.7l-.1.1c0-.1.1-.1.1-.1Z"/>
        <path class="cls-51" d="M114.1,118.2l-.1.1.1-.1Z"/>
        <path class="cls-55" d="M107.3,119.8l-.1-.1q.1,0,.1.1Z"/>
        <path class="cls-55" d="M107.2,119.7l-.1-.1q.1,0,.1.1Z"/>
        <path class="cls-11" d="M112.1,122.2l.1-.1s-.1.1-.1.1Z"/>
        <path class="cls-55" d="M106.3,118.4s-.1-.1,0,0c-.1-.1-.1,0,0,0Z"/>
        <path class="cls-51" d="M114.6,117.6l-.1.1s.1,0,.1-.1Z"/>
        <path class="cls-51" d="M117.5,114.2l-.1.1q0-.1.1-.1Z"/>
        <path class="cls-11" d="M112.7,121.3l.1-.1s0,0-.1.1Z"/>
        <path class="cls-55" d="M106.5,118.7l-.1-.1s0,0,.1.1Z"/>
        <path class="cls-51" d="M117,114.7s-.1.1,0,0c-.1.1,0,0,0,0Z"/>
        <path class="cls-55" d="M106.2,118.3l-.1-.1.1.1Z"/>
        <path class="cls-51" d="M117.6,114l-.1.1.1-.1Z"/>
        <path class="cls-55" d="M106.3,118.5l-.1-.1c.1,0,.1.1.1.1Z"/>
        <path class="cls-11" d="M113.9,119.7l.1-.1c-.1,0-.1.1-.1.1Z"/>
        <path class="cls-55" d="M106.8,119.1l-.1-.1s.1,0,.1.1Z"/>
        <path class="cls-11" d="M117.6,114.4s.1,0,0,0c.1,0,.1.1,0,0,0,.1,0,0,0,0Z"/>
        <path class="cls-43" d="M118,111.2s-.1.1,0,0c-.1.1,0,0,0,0Z"/>
        <path class="cls-51" d="M110.1,123s-.1.1,0,0c-.1.1-.1,0,0,0Z"/>
        <path class="cls-22" d="M106.5,119.3c-.1,0-.1.1-.2.1q-.1-.1-.2-.2h-.2s0,.1.1.1.2.1.2.2v.4h.1q.1-.1.2-.1t.2.2c.1.2.3.4.5.5l.1.1-.1.1c-.1,0-.2.1-.3.1.1.1.2.1.3.1q0,.1-.1.2c.2.2.3.2.5.1.2-.1.5-.2.7-.3.1-.1.3,0,.4,0,.1-.3.2-.5.5-.7.1-.1.2-.2.2-.3,0,0,.1-.1.2-.1.3-.1.5-.3.6-.6.1-.1.1-.3.3-.3.1,0,.2-.1.3-.2.1-.2.2-.4.4-.4l.1-.1c.1-.2.3-.4.5-.6l.1-.1q.1-.1.2-.2c.1-.1.3-.2.3-.3l.1-.1c.3,0,.4-.3.6-.5.1-.1.2-.1.2-.2q.1-.1.1-.2c0-.1.1-.1.1-.1q.2-.1.1-.2c.1-.1.2-.1.2-.2,0,0,.1.1.2.1v.2h0c-.1,0-.1.1-.1.1l.1.1c.1,0,.2,0,.2-.1.1-.1.2-.2.2-.3q.3.2.4-.1s.1-.1.2-.1c0,.1-.1.3-.2.3h-.1c-.1.1-.2.2-.3.3h-.1v.3c-.2.2-.4.4-.5.6,0,.1-.1.1-.1.1l-.1.1c0,.3-.4.3-.4.6-.2,0-.2.2-.2.3,0,0-.1.1-.2.1h-.2c.1.3-.2.4-.3.6s-.4.4-.6.6l-.1.1c0,.2-.1.4-.3.4-.1,0-.1.1-.1.1-.1.1-.3.3-.4.5v.1c0,.2-.2.4-.4.5-.1,0-.1.1-.1.2-.1.2-.2.4-.4.6-.1.1-.2.2-.3.3-.1.1-.2.2-.2.3-.1.1-.2.3-.3.3s-.1.1-.1.2c-.1.1-.1.2-.2.3s-.2.2-.2.2c-.2-.1-.4,0-.6-.2-.1-.2-.3-.3-.3-.6,0-.1-.2-.2-.3-.4l-.3-.6c-.1-.1-.1-.2-.2-.3-.2-.1-.4-.2-.4-.5v-.1c-.3-.1-.2-.4-.4-.6-.1-.1-.2-.2-.3-.3l-.1-.1c-.1-.1-.2-.3-.2-.4-.1-.2-.3-.4-.4-.6q-.1-.1-.2-.2c-.2-.1-.3-.4-.2-.6l.1-.1c.4-.1.8,0,1.2.1.1,0,.2.2.2.3.1.1.1.2.2.2.1.3.3.5.6.6l-.5.3h0Z"/>
        <path class="cls-34" d="M114.9,115.7c-.1,0-.1.1-.2.1-.2.2-.1.2-.4.1-.1.1-.2.2-.2.3-.1,0-.1.1-.2.1l-.1-.1c0-.1.1-.1.1-.1h0v-.2h.1c.1,0,.2,0,.2-.1s.1-.2.2-.3c0-.1.1-.1.1-.2l.1-.1q.1-.1.2-.2c.1,0,.1-.1.2-.1s.2,0,.2-.1c.1-.1.1-.2.2-.3l.5-.5c.2-.2.4-.4.6-.6.2.1.2,0,.2-.2s.2-.1.3-.2c.1-.3.2-.5.5-.6.1-.2.2-.3.3-.5.2.1.3.1.2-.1,0-.1,0-.2.1-.2q.3-.2.3-.5c.2-.1.4-.1.4-.3h.5c.2,0,.3.1.2.3,0,.1-.1.2-.2.3s-.2.3-.3.4c-.2.2-.3.4-.6.5,0,0-.1,0-.1.1-.1.2-.3.4-.6.6-.1.1-.3.2-.2.3,0,.1-.1.1-.1.2q-.1-.1-.2-.1c-.1.2-.2.4-.3.5l-.1.1c-.1,0-.1.1-.2.1,0,0-.1,0-.1.1-.1.1-.2.2-.3.3l-.1.1c-.1.1-.1.2-.2.2-.1.1-.2.2-.1.3v.1c-.1.1-.3.1-.4.2-.1.1-.3.1-.2.3l-.1.1c0-.3,0-.2-.2-.1h0Z"/>
        <path class="cls-22" d="M115.8,114.8c-.1-.1,0-.2.1-.3.1,0,.1-.1.2-.2l.1-.1c.1-.1.2-.2.3-.3,0,0,.1,0,.1-.1-.1.1-.1.2-.2.3s-.2.2-.3.4l-.1.1c0,.1-.1.1-.2.2h0Z"/>
        <path class="cls-22" d="M115,115.6l.1-.1.1-.1c-.1-.2.1-.2.2-.3s.3-.2.4-.2c-.2.2-.4.4-.6.7,0,0-.1,0-.2,0h0Z"/>
        <path class="cls-35" d="M106.5,119.2c-.3-.1-.5-.3-.6-.6.1.1.2.1.3.2.1.2.1.3.3.4,0-.1,0,0,0,0h0Z"/>
        <path class="cls-22" d="M114.6,115.1c0,.1-.1.1-.1.2-.1.1-.2.2-.2.3s-.1.1-.2.1c0-.1,0-.2.2-.3.1-.1.2-.3.3-.3h0Z"/>
        <path class="cls-22" d="M114.9,114.7q-.1.1-.2.2l.2-.2Z"/>
        <path class="cls-22" d="M115.2,114.5c0,.1-.1.2-.2.1q.1,0,.2-.1Z"/>
        <path class="cls-28" d="M103.6,127.9c0-.2,0-.3.2-.3.1,0,.2.1.2.2,0,.2-.1.2-.2.2-.1,0-.1-.1-.2-.1Z"/>
        <path class="cls-25" d="M100.8,127.9q0,.1-.2.1c-.2,0-.3-.1-.2-.2,0-.1.1-.2.2-.2.2,0,.2.1.2.3h0Z"/>
        <path class="cls-25" d="M106.4,127.9c-.1,0-.1.1-.2.1-.2,0-.3-.1-.3-.2s.1-.2.2-.2c.3,0,.2.1.3.3h0Z"/>
        <path class="cls-28" d="M107,127.8c0-.1,0-.2.2-.2s.2.2.2.3-.1.1-.2.2c-.2-.1-.2-.2-.2-.3h0Z"/>
        <path class="cls-28" d="M108.6,127.6c.3,0,.4,0,.4.2,0,.1-.1.2-.2.2-.3-.1-.2-.3-.2-.4h0Z"/>
        <path class="cls-28" d="M97.3,127.4c.1.1.1.2.2.3q0,.1.1.2h-.7c0-.1,0-.2.1-.4h.2c-.1.1.1.2.1-.1-.1,0,0,0,0,0h0Z"/>
        <path class="cls-25" d="M98.1,128c0-.2-.1-.4.1-.5h.2c0,.1.1.2,0,.3,0,.2-.1.2-.3.2h0Z"/>
        <path class="cls-25" d="M102.6,129.6c0-.1,0-.3.1-.3h.4l.1.2c-.2.1-.4.1-.6.1h0Z"/>
        <path class="cls-25" d="M98.6,129.7c0,.3-.1.4-.3.4s-.4-.2-.3-.5c0-.2.1-.3.3-.3.2,0,.3.1.3.4h0Z"/>
        <path class="cls-28" d="M106.4,129.4c.1.2.1.3.2.5h-.4c.1-.2.1-.3.2-.5Z"/>
        <path class="cls-28" d="M94.8,127.8c-.1.1-.2.2-.3.2-.2,0-.2-.1-.2-.2s.1-.2.2-.2.2.1.3.2h0Z"/>
        <path class="cls-28" d="M95.7,127.8q-.1.1-.2.2c-.2,0-.2-.1-.2-.2s0-.2.2-.2c.1,0,.2.1.2.2Z"/>
      </g>
      <path class="cls-5" d="M114,119.5v11.4c0,1.1-.9,2-2,2h-18.9c-1.1,0-2-.9-2-2v-18c0-1.1.9-2,2-2h18.9c1.1,0,2,.9,2,2v1.9h.1v-1.8c0-1.2-.9-2.1-2.1-2.1h-18.9c-1.2,0-2.1.9-2.1,2.1v18c0,1.2.9,2.1,2.1,2.1h18.9c1.2,0,2.1-.9,2.1-2.1v-11.3q0-.1-.1-.2h0Z"/>
      <text class="cls-61" transform="translate(169 50.59)"><tspan x="0" y="0">MOHAMMED SALEM</tspan></text>
      <text class="cls-59" transform="translate(170.81 74.12)"><tspan x="0" y="0">IT Officer</tspan></text>
      <text class="cls-58" transform="translate(77.07 179.42)"><tspan x="0" y="0">Abu Dhabi,uae</tspan></text>
      <text class="cls-56" transform="translate(440.55 180.76)"><tspan x="0" y="0">ahmed.almushariaaa@rgcc.ae</tspan></text>
      <g>
        <path class="cls-15" d="M347.84,181.76h-.7c-.8-.1-1.6-.4-2.3-.9-1.4-1.1-1.9-2.6-1.6-4.3.4-2.3,2.7-3.8,5-3.4,1.8.3,3.3,1.8,3.5,3.6v1h0c0,.1,0,.3-.1.4-.3,1.8-1.8,3.2-3.6,3.4,0,.1-.1.1-.2.2h0ZM350.34,177.46c0-1.6-1.3-2.9-2.9-2.9s-2.9,1.3-2.9,2.9,1.3,2.9,2.9,2.9c1.6-.1,2.9-1.3,2.9-2.9Z"/>
        <path class="cls-15" d="M347.44,176.86h.7s.1,0,.1.1v1.1q0,.1-.1.1h-1.5s-.1,0-.1-.1v-1.1q0-.1.1-.1h.8Z"/>
        <path class="cls-15" d="M347.44,178.46h.7s.1,0,.1.1c-.1.3-.2.7-.3,1,0,.1-.1.2-.2.2-.1.1-.3.1-.4,0s-.2-.2-.2-.3c-.1-.3-.2-.6-.3-.9v-.1c.2,0,.4,0,.6,0h0Z"/>
        <path class="cls-15" d="M347.44,176.36h-.7s-.1,0-.1-.1c.1-.3.1-.6.3-.9,0-.1.1-.2.2-.3.2-.2.3-.2.5,0,.1.1.2.3.3.5.1.2.1.4.2.6v.1c-.2.1-.4.1-.7.1h0Z"/>
        <path class="cls-15" d="M345.64,178.06h-.5s-.1,0-.1-.1c-.1-.4-.1-.7,0-1.1,0,0,0-.1.1-.1h1s.1,0,.1.1v1.1q0,.1-.1.1h-.5Z"/>
        <path class="cls-15" d="M349.34,176.86h.5s.1,0,.1.1c.1.4.1.7,0,1.1,0,0,0,.1-.1.1h-1q-.1,0-.1-.1v-1.2c.2-.1.4-.1.6,0h0Z"/>
        <path class="cls-15" d="M348.24,175.16s.1,0,0,0c.6.2,1.1.6,1.3,1.1v.1h-.8q-.1,0-.1-.1c0-.4-.2-.8-.4-1.1h0Z"/>
        <path class="cls-15" d="M348.24,179.66c.2-.4.3-.8.4-1.1q0-.1.1-.1h.8q.1,0,0,.1c-.2.5-.6.9-1.3,1.1q.1,0,0,0,.1,0,0,0h0Z"/>
        <path class="cls-15" d="M346.64,175.16c-.2.4-.3.8-.4,1.2q0,.1-.1.1h-.9s-.1,0,0-.1c.4-.6.8-1,1.4-1.2h0Z"/>
        <path class="cls-15" d="M346.64,179.66h0c-.6-.2-1.1-.6-1.3-1.1v-.1h.8s.1,0,.1.1c.1.4.2.8.4,1.1h0Z"/>
      </g>
      <text class="cls-60" transform="translate(355.04 179.76)"><tspan x="0" y="0">www.rgcc.ae</tspan></text>
      <text class="cls-57" transform="translate(179.99 180.21)"><tspan x="0" y="0">971545342563</tspan></text>
      <path class="cls-14" d="M266.32,176.72h3.3v.8h-3.3v-.8ZM268.42,175.52v3.3h-.8v-3.3h.8Z"/>
      <text class="cls-57" transform="translate(270.65 180.21)"><tspan x="0" y="0">971545342563</tspan></text>
      <image width="308" height="308" transform="translate(472.42 43.17) scale(.3)" xlink:href="../../Untitled design222.png"/>
    </g>
  </g>
</svg>
